<svg xmlns="http://www.w3.org/2000/svg" viewBox="0 0 366.05 372.75"><defs><style>.cls-1{fill:#243a6a;}.cls-2{fill:#8b2121;}.cls-3{fill:none;stroke:#fff;stroke-miterlimit:10;stroke-width:8px;}.cls-4,.cls-5,.cls-6,.cls-7{fill:#fff;}.cls-5{font-size:39px;}.cls-5,.cls-6,.cls-7{font-family:FranklinGothic-Heavy, Franklin Gothic Heavy;font-weight:800;}.cls-6{font-size:41px;}.cls-7{font-size:31px;}</style></defs><g id="レイヤー_2" data-name="レイヤー 2"><g id="レイヤー_3" data-name="レイヤー 3"><path class="cls-1" d="M9.68,92.83C-14.09,197.22,35.5,327.76,183,368.6,330.56,327.76,380.14,197.22,356.38,92.83Z"/><path class="cls-2" d="M312,4.59C275.4,16.14,202.82,12,183,4.59c-19.8,7.42-92.38,11.55-128.95,0C32.32,28.82,17.27,59.49,9.68,92.83h346.7C348.78,59.49,333.73,28.82,312,4.59Z"/><path class="cls-3" d="M356.38,92.83c-7.6-33.34-22.65-64-44.41-88.24C275.4,16.14,202.82,12,183,4.59c-19.8,7.42-92.38,11.55-128.95,0C32.32,28.82,17.27,59.49,9.68,92.83-14.09,197.22,35.5,327.76,183,368.6,330.56,327.76,380.14,197.22,356.38,92.83Z"/><line class="cls-3" x1="9.68" y1="92.83" x2="356.38" y2="92.83"/><path class="cls-4" d="M270,183.59c-.43-1.27-1.45-6.36-2.77-6.78.28.08.58-.26.34-.5a25,25,0,0,0-3.35-2.9,37.1,37.1,0,0,0-.13-6.18l-.47-2.34a16.44,16.44,0,0,1-.45-2.73,31,31,0,0,0-1.88-8.06,2.45,2.45,0,0,0-1.43-1.4c-.89-.28-2.08,0-3.72,1a33.92,33.92,0,0,0-6.29,5.87l-.07.09c-.4.44-1.36.35-2.07.13a22.61,22.61,0,0,0-3.45-.22L242,159.5a37.51,37.51,0,0,0-5,.31l-.73.07a3.9,3.9,0,0,1-1.49-.53l-2.83-2.59a54.67,54.67,0,0,0-5.19-3.75,1,1,0,0,0-1.12-.06,1.09,1.09,0,0,0-.44,1,20.86,20.86,0,0,0,.85,3.77c.44,1.47,1.6,5.21,2.15,6.66-1.11,1.18-2.09,2.45-3.22,3.67a.31.31,0,0,0,.16.54c.42.09.44.24.27.4a3,3,0,0,1-.43.29c-.71.4-2,.81-2.21,1a12.29,12.29,0,0,0-3.1,2.43.32.32,0,0,0,.26.54c-1,.08-3.57,4.67-4.05,5.58-.14.26.1.68.41.48,1.36-.79.34,0-.21,1.05a31.47,31.47,0,0,1-2.15,3.49c-.21.28.11.56.4.47,2-.67-.52,2-1,2.55-.21.24,0,.52.3.5-2.85,2-6.71.33-10.16,1.11a.35.35,0,0,0,0,.69c1,.24-1.87.73-2.19.84a24,24,0,0,0-4.59,2.43c-.23.13-.3.56,0,.63-2-.49-5.85,3.6-7,4.66-.21.17-.13.61.18.59.94,0-1.95,1.58-2.07,1.67a16.69,16.69,0,0,0-2.29,2,18.15,18.15,0,0,0-3.06,2.76c-.21.23.07.53.32.49-2.11.22-5.08,5.08-6.22,6.57a.34.34,0,0,0,.33.52c.94-.26-1.61,1.64-1.72,1.76-1.21,1.33-2.34,2.7-3.43,4.14a.32.32,0,0,0,.3.48c-.28,0-3,6.38-3.34,7-.1.21.14.42.34.41-.49.06-2.21,8-2.57,9a.32.32,0,0,0,.43.4,14.65,14.65,0,0,1-.62,2.55,12.79,12.79,0,0,1-2.73,4.77.3.3,0,0,0,.33.5c1-.43-.19,4-.29,4.8a.3.3,0,0,0,.49.26c.24-.22-1,6.36-.76,5.29a.33.33,0,0,0,.44.4c.58-.2.61.75.49,1.72C162,255,159.74,253,158,251.39l-1-.92-.28.29a6.78,6.78,0,0,1,1.15,1.54l-.25-.19a42.5,42.5,0,0,0-7.35-4.81l-.19.34a9.15,9.15,0,0,1,1.48,1.37l-7.81-4.7-.24.27.84,1.18c.21.32.44.64.66,1-.4-.2-.9-.42-1.41-.66a15,15,0,0,0-4.08-2.84l-1.5-.67-2.25-1.09-.89-.58a5.15,5.15,0,0,0-1.89-1l-.41-.08.37.7s.39.66.65,1.08a8.35,8.35,0,0,1-2.53-1.3l-1.37-.83a5.19,5.19,0,0,0-2.77-.47l-1.67-.08-.08.38a6.18,6.18,0,0,1,1.51.74l.23.13a18.33,18.33,0,0,0-5-.39,17.39,17.39,0,0,0-4,.86l-1.47.42,0,.37a16,16,0,0,1,2.37.52c-3.66.44-6.81,2.32-9.83,4.21l-.21.13.15.38a9.72,9.72,0,0,1,2.23,0,8.94,8.94,0,0,0-2.59,1.37l-.85.71a10,10,0,0,1-3,2.05l.08.37,1.93-.22.2,0-.25.15-2.42,1.67L103,254a6.68,6.68,0,0,1-2,1.8l.15.37,1.77-.56,1-.3c-1.1,1.39-3.25,3.52-4.89,3.4h0v.39l2.64.13-.76.72a11.75,11.75,0,0,1-3.64,2.79h0a0,0,0,0,1,0,0l.18.35h0a4.42,4.42,0,0,1,1.76-.54l.09,0a7.31,7.31,0,0,1-3.2,1.68h0l.06.38h0a8.78,8.78,0,0,1,3.62,0c-.31.16-.61.3-.87.45l-.31.16.27.18a14.73,14.73,0,0,0,8,1.64,9.79,9.79,0,0,1-3.44,1.44l-.82.22.07.4,3.16-.11a27.69,27.69,0,0,0,6.48-.66,6,6,0,0,1-2.38,2l.09.38a23.59,23.59,0,0,1,6.33-.18,28.54,28.54,0,0,0,4.44.06,14.82,14.82,0,0,1-2.53,1.84l.15.37a34,34,0,0,1,5.87-.6,31.3,31.3,0,0,0,6.51-.78l-1.4,2.4.56-.26a13.31,13.31,0,0,1,5.62-.81,17.17,17.17,0,0,0,5.16-.6,4.85,4.85,0,0,1-.93,1.34l-.37.39,4.27-.27a39.7,39.7,0,0,0,6.89-.83,7,7,0,0,0-1.27,1.41l-.19.33.38,0a50.31,50.31,0,0,1,6.38.08,34.62,34.62,0,0,0,9.47-.34l1.91-.37.81-.12c-.18.21-.37.42-.55.66a.18.18,0,0,0,.15.31s5.66.43,5.83.28a.34.34,0,0,0,.28.59c1.28-.08,7.54,1.67,8.53.48a.4.4,0,0,0,.29.61,37.44,37.44,0,0,1,4,.18.41.41,0,0,0,.43.54c2-.44,4.13-.37,6.19-.64a15.29,15.29,0,0,0,2.51-.6h0l-.12.16a.4.4,0,0,0,.39.61c2.29-.28,4.48-.19,6-1.24a4.6,4.6,0,0,1-.59.87.21.21,0,0,0,.22.31c2.29-.45,4.51-.19,6.82-.37a10.61,10.61,0,0,0,2.63-.35l-.23.24c-.27.28,0,.87.4.61a13.65,13.65,0,0,1,4.44-1.41c.45-.11,2.89-1.81,1.93-.37a.39.39,0,0,0,.39.6c1.7-.27,3.43-.47,5.12-.84.94-.19.8-.66.9.27a.37.37,0,0,0,.34.31c1.22.13,6-.76,6.51-2.2l.08,0a.46.46,0,0,0,.87,0l0,0a19.92,19.92,0,0,0,8.73,3.82,16.13,16.13,0,0,0,6.09-.17c.19.12.71.38,2.14.08l.66-.13c1.37-.26,2.66-.51,3.15-2.18s.64-2.76-.29-4.41a7.29,7.29,0,0,0-1.77-2.41l-.34-.34-1.42-1.24c-1.42-1.18-3.36-2.81-3.66-3.87a94.44,94.44,0,0,1-1.54-11.77c0-.94,0-2.18,0-3.39l0,.06a.3.3,0,0,0,.55-.09c.16-1.18.74-7,2.37-5.09a.28.28,0,0,0,.48-.23c0,.39.22-6.67.82-5.61a.25.25,0,0,0,.47-.08c.08-1.16,1.21-7.69,1.88-4.8.05.18.37.25.44,0a19,19,0,0,0,.71-3c.12-.7.41-5.24,1.33-2.63.09.27.46.16.48-.07a18.42,18.42,0,0,1,.58-3.54c0-1.22.51-1.62,1.66-1.15a.26.26,0,0,0,.52,0c.05-.23,1.05-7,1.83-3.65a.27.27,0,0,0,.51,0c.27-1,.55-2,.79-3,.07.17.14.35.2.52.14.34.55.18.62-.1-.27,1.25,1-4.5,1.35-3.82a.33.33,0,0,0,.6,0c.43-1.35.17-5.19,1.58-3.44a.35.35,0,0,0,.61-.18c.18-1.13,1-5.32.9-5.67.09.33.67.37.66,0a27.06,27.06,0,0,0-.5-5.17l1.55,1.7a.35.35,0,0,0,.6-.28c-.18-.93-1.46-5.64.21-3.81.19.22.63.13.63-.19,0-1.47-.92-6.89,1.07-4.35a.38.38,0,0,0,.66-.21,13.86,13.86,0,0,0,0-3.86,6.63,6.63,0,0,0-.39-1.49l0,0A.39.39,0,0,0,270,183.59Zm-14,35.67c.17-.59.38-1.17.57-1.78A6.18,6.18,0,0,1,256,219.26Zm9.21-18.71v-.22C265.24,200.48,265.25,200.56,265.2,200.55Z"/><text class="cls-5" transform="translate(101.85 145.74) scale(0.93 1)">RAGDOLL</text><text class="cls-6" transform="translate(78.29 67.2)">AFTER YOU</text><text class="cls-7" transform="translate(132.25 323.89) scale(1.09 1)">IN CAR</text></g></g></svg>