<svg xmlns="http://www.w3.org/2000/svg" viewBox="0 0 408.71 408.71"><defs><style>.cls-1{fill:#3a8b45;}.cls-2,.cls-4,.cls-5{fill:#fff;}.cls-3{fill:none;stroke:#fff;stroke-miterlimit:10;stroke-width:8px;}.cls-4{font-size:30.82px;}.cls-4,.cls-5{font-family:FranklinGothic-Heavy, Franklin Gothic Heavy;font-weight:800;}.cls-5{font-size:32.68px;}</style></defs><g id="レイヤー_2" data-name="レイヤー 2"><g id="レイヤー_1-2" data-name="レイヤー 1"><path class="cls-1" d="M204.36,404.71a15.74,15.74,0,0,1-11.21-4.62L8.62,215.56a15.9,15.9,0,0,1,0-22.41L193.15,8.62a15.9,15.9,0,0,1,22.41,0L400.09,193.15a15.9,15.9,0,0,1,0,22.41L215.56,400.09A15.73,15.73,0,0,1,204.36,404.71Z"/><path class="cls-2" d="M204.36,8a11.76,11.76,0,0,1,8.37,3.44L397.27,196a11.87,11.87,0,0,1,0,16.75L212.73,397.27a11.91,11.91,0,0,1-16.75,0L11.44,212.73a11.87,11.87,0,0,1,0-16.75L196,11.44A11.76,11.76,0,0,1,204.36,8m0-8a19.79,19.79,0,0,0-14,5.79L5.79,190.32a19.91,19.91,0,0,0,0,28.07L190.32,402.92a19.91,19.91,0,0,0,28.07,0L402.92,218.39a19.91,19.91,0,0,0,0-28.07L218.39,5.79a19.79,19.79,0,0,0-14-5.79Z"/><rect class="cls-3" x="76.7" y="76.7" width="255.31" height="255.31" rx="14.17" transform="translate(-84.65 204.36) rotate(-45)"/><path class="cls-2" d="M285.47,177.42l-.92-1.06a10.51,10.51,0,0,1-1.22-2.14c-.46-.9-1-2-1.69-3.12a15.52,15.52,0,0,0-3.09-3.57l-.41-.38a1.1,1.1,0,0,1-.34-.74l-.15-.48a5.78,5.78,0,0,1,.48-1.69,6.77,6.77,0,0,0,.49-1.73,2.52,2.52,0,0,1,.18-.69,2,2,0,0,0-.44-2.49,2.5,2.5,0,0,1-.94-1.56,3.07,3.07,0,0,0-.7-1.48c-.92-1-2.4-2.84-2.82-3.39a7.56,7.56,0,0,1-.41-2.37,16.64,16.64,0,0,0-.28-2.1,3.43,3.43,0,0,0-1.31-1.57,5.94,5.94,0,0,1-1.12-1.12,18.49,18.49,0,0,1-1.28-3.81,19.48,19.48,0,0,0-1.12-3.39c-.28-.41-.52-.59-.8-.59s-.79.44-1.34,1.24a17.88,17.88,0,0,0-1.54,4.15l-.4,1.36-.11.33c-.33,1.05-.57,1.74-1.19,2l-1.24.55-2.45,1.1a7.67,7.67,0,0,0-2.31,1.74,4.48,4.48,0,0,1-1.27,1,2.3,2.3,0,0,1-2.33-.32,21.74,21.74,0,0,1-2.18-1.53l-2.32-1.66a6.28,6.28,0,0,0-4.76-1.11c-1.13.36-1.37,2.42-1.37,5.42a9.89,9.89,0,0,0,2.53,6.23c.16.16.24.29.22.43,0,.31-.5.59-1,.91l-.36.23a6.16,6.16,0,0,0-1.32,1.49,12.85,12.85,0,0,1-2.93,3.13c-1.65,1.16-3.13,1-5.6.79l-2.75-.23c-4.25-.21-11.64.16-22.53,3.29-11.44,3.28-19.18,9.92-21,12-2.07,2.34-6.79,5.34-9.49,6.77a11,11,0,0,1-5.21,1.08l-1,.07c-.47-.14-.93-.25-1.3-.34-.72-.2-1.5-.37-2.26-.51s-1.51-.3-2.25-.53a25.7,25.7,0,0,1-3.6-1.46,23.41,23.41,0,0,1-5.78-3.2,16.59,16.59,0,0,1-4.29-5.21,21,21,0,0,1-1.86-5.06s-.72-2.35-.72-2.35-.33-1.48-.33-1.48l-.24-1-.2-1.95a22.92,22.92,0,0,0-.64-4c-.21-.63-1.71-3.73-2.17-3.73l-.11,0s0,.07,0,.09a.08.08,0,0,0,0,.05,8.81,8.81,0,0,1,.42,2.45l.09,1c0,.28,0,.58,0,.88a18,18,0,0,1-.16,1.91,10.07,10.07,0,0,0-.15-2.05,16.21,16.21,0,0,0-2-4.82l-.57-1.06-1.58-2.79c-.39-.66-.91-1.35-1.42-2.05l-.76-1c-.87-1-1.6-2-2.33-2.9L137,145.78a.17.17,0,0,0-.19,0,.12.12,0,0,0-.05.12v.07l.69,1.15a12,12,0,0,1,.9,1.59c.18.42.39.81.57,1.2-.18-.3-.46-.74-.46-.74a15.71,15.71,0,0,0-3.65-3.25l-1-.8-1-.8a14.36,14.36,0,0,0-2.08-1.23l-1-.53c-.06,0-.11,0-.17,0a.23.23,0,0,0,0,.09.12.12,0,0,0,0,.08,9.5,9.5,0,0,0,.91.85,11.87,11.87,0,0,1,1.27,1.2,3.41,3.41,0,0,1,.78,1.24,4,4,0,0,1-.72-.55,17.09,17.09,0,0,0-1.74-1.2l-1.33-.88-.37-.25a7.64,7.64,0,0,0-2.86-1.52l-.13-.05a3.13,3.13,0,0,0-1.68-.25.14.14,0,0,0-.11.14c0,.25.56.48.77.53a25.57,25.57,0,0,1,2,1.85l.2.2c.46.46.9,1,1.33,1.47-1.5-.87-3.09-1.58-4.55-2.53-1.88-1.19-2.43-3.8-4.28-4.86a.15.15,0,0,0-.22.11c-.21.95,1.73,5,2.53,5.48a8.54,8.54,0,0,1-2.32-2.23c-.18-.2-.36-.42-.53-.62v0a11.92,11.92,0,0,0-1.11-1.2,10.56,10.56,0,0,0-3.31-2c-.16-.06-.27.17-.14.28a13.51,13.51,0,0,1,3.19,3.71s-1.9-1.8-2.44-2.24c-1.59-1.26-3.91-1.63-5.87-2.09a.18.18,0,0,0-.13.32c3.22,2.19,5.19,6,6.39,9.61,0,0,0,0,0,0a.55.55,0,0,0-.09-.14,12.09,12.09,0,0,0-1.11-1.52,49.23,49.23,0,0,0-3.95-4.33c-.15-.17-.47,0-.33.2a31.61,31.61,0,0,1,1.56,3c.57,1.33.54,3.5,1.35,4.63-.92-1.27-2-2.21-2.84-3.6-.56-.92-1-1.89-1.65-2.81-.09-.16-.38,0-.35.18a30.28,30.28,0,0,0,2.94,8c-.59-.57-1.17-1.15-1.74-1.75a9,9,0,0,0-3.12-2.53c-.12,0-.31.06-.25.2.38,1.32,1.49,2.45,2.15,3.65a10,10,0,0,0,2.41,3,6.12,6.12,0,0,0,1.22.83,7,7,0,0,1-.76-.11,6,6,0,0,1-1.44-.44c-1.67-.62-3.14-1.68-4.8-2.23a.21.21,0,0,0-.24.32c1.68,1.89,3.6,4.19,5.87,5.39,0,0,0,0,.05,0a3.7,3.7,0,0,0-.77-.28c-1.41-.42-2.81-.81-4.25-1.13a.23.23,0,0,0-.22.32,3.56,3.56,0,0,0,1.37,1.11c1.53.85,2.69,2.12,4.33,2.79.06,0,1.13.39,1.17.27-.15.42-2.08.19-2.4.19a33,33,0,0,0-4.2-.16c-.21,0-.21.28-.09.39a20.62,20.62,0,0,0,4.38,2.44c1.72.9,3.67,1.56,5.43,2.44a17.19,17.19,0,0,1-5.15-1.52,15.54,15.54,0,0,0-5.54-1.79.13.13,0,0,0-.06.25,11.85,11.85,0,0,1,1.76,1.15,15.25,15.25,0,0,0,2.21,1.8.18.18,0,0,0,.08.05,7.46,7.46,0,0,0,2.94,1.42c2.54.55.44.26,0,.17a5.89,5.89,0,0,0-2,0c-2.33.2-3.73-.65-5.88-1a.16.16,0,0,0-.12.28c1.12,1.65,3.21,2.62,5.06,3.25,1,.32,3,.39.14.41a22.77,22.77,0,0,1-4.36-.76.19.19,0,0,0-.11.35c1.81,1.19,3.66,2.62,5.85,3.07a1.93,1.93,0,0,0,1.39.11c-.37.11-.29.24-.25.34-.12,0-.21.09-.32.12h0a1.93,1.93,0,0,1-.57.09c.18,0,.37,0,.57-.09-.26,0-.7-.08-1.48-.19a28.78,28.78,0,0,1-5-1c-.16-.05-.34.11-.25.27.89,1.71,3,3,4.75,3.83-1.06-.19-2.07-.35-3.1-.48a.21.21,0,0,0-.21.29c1,1.85,3,2.7,4.82,3.55a8.28,8.28,0,0,0,3.34.6h0c-1.83.07-3.64.12-5.45.23-.16,0-.2.21-.13.32.86,1.11,2.39,1.39,3.68,1.68a25.65,25.65,0,0,0,2.51.56,23.6,23.6,0,0,1-4.84,0c-.16,0-.31.17-.22.31.93,1.65,4,1.86,5.56,1.91a9.68,9.68,0,0,0,3.19-.22h0c-1.52,1-4.34,1.21-6,1.51a.22.22,0,0,0,0,.42,22.63,22.63,0,0,0,7.49,1c-.42.15-.86.26-1.31.38-1.72.42-3.32,0-5,.25a.24.24,0,0,0-.13.37,21.87,21.87,0,0,0,6.35,3.93c.43.18,3.19,1.08,3.55.73-1.28,1.27-4.4.83-6,.81a.23.23,0,0,0-.21.37c1.06,1.29,4.49,2.07,6.1,2s.74-.46.09.87a8.41,8.41,0,0,0-.6,4.48c0,.25.38.27.47,0,.78-2.21,3.16-2.44,5-3,.5-.17.3-.33-.4.84a6.59,6.59,0,0,1-3.38,2.45.25.25,0,0,0,.07.48c1.55,0,3.07-.25,4.6-.3,2.93-.11-1.88,2-2.88,2.26-.28.07-.28.53,0,.53,2.73,0,5.92.44,8.68-.16a5.83,5.83,0,0,0-1.94,2.88.28.28,0,0,0,.44.32,14.79,14.79,0,0,1,2.46-1.49c1.25-.63.86-.79.66.55-.3,1.91-1,3.71-1.41,5.58h0a.11.11,0,0,1,0,.06c-.06.32.46.44.56.14a21.82,21.82,0,0,1,1.73-3.41c.4-.81.74-2.77.68-.63a21,21,0,0,0,1,6.62.26.26,0,0,0,.52,0,9,9,0,0,1,1.7-3.86c0,.46-.06.89-.06,1.38a.34.34,0,0,0,0,.14A5.39,5.39,0,0,1,139,217c-.11.06,0,.27.11.22,1.27-.32,5.2-2.73,5.2-4.2,0,1.8-1,3.9.28,5.41a.21.21,0,0,0,.35-.12,12.87,12.87,0,0,1,1.4-4c.11-.17.17-.31.23-.42.14,2.86.36,5.34-.89,8.08-.1.2.2.39.35.25a10.17,10.17,0,0,0,3.06-7.07c-.12,2.62.47,5.73,2.79,7.39.15.09.37,0,.33-.2a9.91,9.91,0,0,1-.28-2.43c0-.31,0-.94-.07-1.45a5.09,5.09,0,0,0,0-.55c.07-.23.22-.25.52.23,1.62,2.49-.3,4.31-.37,6.66,0,.19.16.33.33.25a9.53,9.53,0,0,0,3.75-4.33,2.36,2.36,0,0,0,0,.39,8,8,0,0,0,1.77,4.91.22.22,0,0,0,.4-.12,5.73,5.73,0,0,1,.35-2.44c0-.11.56-1.79.56-1.81a23.33,23.33,0,0,0,1.25,2.14c.76,1.34.38,2.48.14,3.82,0,.26.27.32.42.17a17.69,17.69,0,0,0,1.64-3.25c.37-.77.56.06.65.32a4.12,4.12,0,0,1-.09,3.3.22.22,0,0,0,.31.29c1.29-.57,2.16-2.14,2.68-3.57v0a9.45,9.45,0,0,1-.82,5.3.23.23,0,0,0,.27.29c1-.2,1.45-1.17,2-2a8.09,8.09,0,0,0,.92-2.11c.17,1.57.72,4.82,2.22,5.28a.25.25,0,0,0,.32-.34,12.54,12.54,0,0,1-.37-5.4c-.06.39,1.6,1.83,1.62,2.72s-.09,1.73,0,2.59a5.84,5.84,0,0,0-.69,2.3c0,1.63,2.94,4.37,6.37,7.53l.84.78c3.65,3.42,9.76,8.44,12.53,10.54s3.4,2.56,6,3l2.81.52c3,.6,6.72,1.34,8.07,1.25a9.65,9.65,0,0,1,2.05.09,5.17,5.17,0,0,0,1.84,0l.87-.23a1.29,1.29,0,0,1,.84,0,1.29,1.29,0,0,0,1.2-.41l.77-.56c1.09-.62,1.05-1.77.92-3a5.66,5.66,0,0,0-1.42-3.34,5.47,5.47,0,0,0-4.19-1.62l-1.44.08a5.77,5.77,0,0,1-2.77-.23,21,21,0,0,1-5.57-3.81l-.24-.27a2,2,0,0,1,.64.06,13.06,13.06,0,0,0,1.9.18c2.48,0,5.37,0,8.16-.24l.3,0a6.94,6.94,0,0,0,3.43-.9,3.31,3.31,0,0,1-.55.88l-.37.46a.24.24,0,0,0,0,.09.07.07,0,0,0,0,.07.21.21,0,0,0,.15.07c1.81-.46,3.8-2.19,5.28-3.48a7.19,7.19,0,0,1-1.48,3,.18.18,0,0,0,0,.09s0,.08,0,.1a.16.16,0,0,0,.17,0,8.77,8.77,0,0,0,2.43-2l1.22-1.18a11.58,11.58,0,0,0,2.15-3.13,6.12,6.12,0,0,1-.65,2.59l-.22.57v0a.2.2,0,0,0,0,.1.24.24,0,0,0,.16,0c1.33-.49,2.7-3.55,3.25-4.91v.14a7.87,7.87,0,0,1-.18,1.45v0a.12.12,0,0,0,.07.11.12.12,0,0,0,.17,0,9.22,9.22,0,0,0,1.85-3.23,15.62,15.62,0,0,0,.6-2.28,3.24,3.24,0,0,1,.11.76,3.15,3.15,0,0,1-.16,1v0a.14.14,0,0,0,.07.12.14.14,0,0,0,.17,0,8.35,8.35,0,0,0,1.55-2.77l.09-.22a3.32,3.32,0,0,1,.63-1,.44.44,0,0,1,.11-.14c-.09.51-.2,1.22-.2,1.22l-.08.53-.05.58a3.68,3.68,0,0,1-.3,1.58.12.12,0,0,0,0,.1.19.19,0,0,0,.06.12.13.13,0,0,0,.19,0h0a10.17,10.17,0,0,0,1.58-2.14s1.13-2.13,1.32-2.45c-.1.68-.35,1.91-.52,2.77l-.23,1.15a2.86,2.86,0,0,0,0,.37c0,.14,0,.23.15.28s.46-.28,1.29-1.71l.57-.95a6.18,6.18,0,0,0,.76-1.77,11.83,11.83,0,0,1-.61,3.48,1.76,1.76,0,0,0-.18.6.43.43,0,0,0,0,.17.35.35,0,0,0,.19.06c.38-.05,1.33-1.34,1.79-2.42a17.43,17.43,0,0,0,.81-2.19c0,.28,0,.6,0,.84a17.65,17.65,0,0,1-.11,1.86,3.19,3.19,0,0,0-.06.51c0,.18,0,.25.15.28s.15,0,.42-.65a40.46,40.46,0,0,0,.32,6l.74,3.68a18.48,18.48,0,0,1,.46,2.33c.24,1.93.54,2.63,1.85,3.2a6.29,6.29,0,0,0,2.45.78c0,.14,0,.42,0,.42a5.49,5.49,0,0,0,1.42,3.66c1.49,1.5,2.64,1.73,5.52,2l1.44.18c1.78.23,3.05.39,4.15-.32l.38-.23c1-.6,2.28-1.4,1.88-2.42a3,3,0,0,1-.36-1.3,2.25,2.25,0,0,0-.18-.89c-.24-.72-.46-.86-1.5-1.48l-.38-.23a4.29,4.29,0,0,1-1.46-1.4c-.56-.79-.63-1.32-.91-3.05l-.13-.74a39.24,39.24,0,0,1,.27-7.07c.16-1.86.31-3.64.31-4.91,0-.34,0-.78.06-1.29h0a.18.18,0,0,0,.12-.07,9.45,9.45,0,0,0,1.24-3.71,9,9,0,0,0-.09-4s0-.05,0-.07a1.2,1.2,0,0,1-.18-.7s.05,0,.07,0a1.26,1.26,0,0,1,.35.48.26.26,0,0,0,0,.1l1.92,3a2.86,2.86,0,0,1,.22.3,1.47,1.47,0,0,0,.83.71.15.15,0,0,0,.13,0,.21.21,0,0,0,0-.12v0a2.72,2.72,0,0,0-.43-.85l-.31-.51-.26-.69a14.78,14.78,0,0,1-.79-2.44,8.47,8.47,0,0,1-.15-1.68c0-.28,0-.58,0-.86l0-.83a8,8,0,0,1,.09-1.38,2.39,2.39,0,0,1,.37.58,5.61,5.61,0,0,1,1,1.81c.14.88.18,1.71.26,2.56l.07,1.29a.2.2,0,0,0,.13.14.14.14,0,0,0,.14-.09l.22-.62a8.47,8.47,0,0,0,.65-2.83,3,3,0,0,0,0-.6,8.93,8.93,0,0,0-.5-2.86,3.43,3.43,0,0,1-.33-1.19,0,0,0,0,0,0,0s.05.07.07.11l.1.24.5.86.58,1.1.6,1.08,1.58,2.59a.18.18,0,0,0,.17,0,.17.17,0,0,0,.09-.13s0,0,0-.05l-.31-.94-.32-1.28a13.12,13.12,0,0,1-.42-2.24l0-3.14c0-.18.07-1.19.18-2,.17,1.15.38,2.71.38,3.22a23.43,23.43,0,0,0,.45,4.92l.08.23a5.1,5.1,0,0,0,.42,1.36.13.13,0,0,0,.19.07c.05,0,.09-.07.09-.12l0,0a5.21,5.21,0,0,1-.16-1.24,4.46,4.46,0,0,1,.18-1.23,13.76,13.76,0,0,0,.63-3.81c0-.37,0-.78,0-1.2a5.17,5.17,0,0,1,.11,1.09s.11.57.11.57a5.7,5.7,0,0,1,.17,1.17,2.71,2.71,0,0,1,0,.41,5.78,5.78,0,0,1-.24,1.94.1.1,0,0,1,0,.05.15.15,0,0,0,.08.11.12.12,0,0,0,.16,0,14.48,14.48,0,0,0,1.13-1.85,6.19,6.19,0,0,0,.89-2.1l.14-.59a12.06,12.06,0,0,0,.43-2.23,3.65,3.65,0,0,1,.48,2.05,6.43,6.43,0,0,1-.48,2.37.12.12,0,0,0,0,.08.14.14,0,0,0,.09.11.11.11,0,0,0,.17-.05,10.29,10.29,0,0,0,1.36-2.94,19.9,19.9,0,0,0,.63-2.56c0-.23,0-.88.07-1.38a5.16,5.16,0,0,0,.52,1.19h0l.17.35a9.43,9.43,0,0,0,1.53,2.44v0h0a.11.11,0,0,0,.18,0,.14.14,0,0,0,0-.12s0-.07,0-.09a6.14,6.14,0,0,1-1.16-3.8,9.44,9.44,0,0,1,.26-1.92l.11-.6,0-.34,0-.37a5.58,5.58,0,0,0,.13-1c.13.42.28.91.3,1l.18.73.17.63.06.23a8.15,8.15,0,0,1,.1.83s0,.06,0,.09l0,.43,0,.62h0v0c0,.07.06.11.13.14a.16.16,0,0,0,.15-.14,12.75,12.75,0,0,1,.5-2.23l.36-1.39a8.63,8.63,0,0,0,.19-1.59,3.92,3.92,0,0,0-.05-.67,1.66,1.66,0,0,1-.21-.64l.18.25a6.09,6.09,0,0,1,.86,1.68l.11.26a12.74,12.74,0,0,1,.62,2.58l.21,1.06s.06.09.13.09.13-.05.15-.11l.13-.55a5.62,5.62,0,0,0,.23-1.42,5.19,5.19,0,0,0-.36-2.71,7.65,7.65,0,0,0-.73-2.33h0l-.09-.26a7.35,7.35,0,0,1-.2-.71,4.28,4.28,0,0,1,.78,1.2,4.83,4.83,0,0,0,1.17,1.59h0c.07.05.16.05.19,0a.1.1,0,0,0,0-.18,4.65,4.65,0,0,1-.48-1.1l-.15-.37-.11-.56-.11-.53s-.13-.55-.13-.55a2.42,2.42,0,0,1-.12-.5c0,.06.07.11.12.2l.24.39a4.62,4.62,0,0,1,.94,1.41,10.38,10.38,0,0,1,.45,1.39c.14.63.14.63.28.66a.19.19,0,0,0,.14-.09,5.6,5.6,0,0,0,0-1.66,12.38,12.38,0,0,0-.46-2.33,12.92,12.92,0,0,0-.5-1.29c1.41,1,2,2.88,2.47,4.45a.2.2,0,0,0,.38-.11c-.26-1.94,0-4.71-1.15-6.41-.28-.4-.55-.78-.79-1.18a7.58,7.58,0,0,0,1.4,1.43,18,18,0,0,1,3,3.48c.1.16.4.11.35-.09a10.31,10.31,0,0,0-2.42-4.42,5.63,5.63,0,0,0,3,.92.18.18,0,0,0,.1-.35c-2.85-1.27-4.19-3.39-5.25-6.18-.23-.69-1.86-2.58.41-.06a13.45,13.45,0,0,1,2,4.12c.07.18.4.09.34-.12a23.91,23.91,0,0,0-3.08-7.21,11.82,11.82,0,0,0,4.19,4.15c.15.06.32-.11.24-.25a29,29,0,0,1-1.66-3.18,13.33,13.33,0,0,0-.63-1.58c-.09-.18-.9-1.91-.18-1,1.16,1.56,1.53,3.43,2.38,5.14.09.18.4.09.35-.11-.63-2.19-.37-4.64-1.09-6.78a3.44,3.44,0,0,1-.16-.49l.07.17a13.53,13.53,0,0,1,1.51,4.72.17.17,0,0,0,.33,0c0-1.73.33-3.44.37-5.19,0-1.52-.79-2.61-1.46-3.87a5.78,5.78,0,0,0-.47-.8c1.09,1.08,2.45,2.16,3,3.63a.17.17,0,0,0,.33-.11,14.17,14.17,0,0,0-2.06-4.61c.22.16.41.35.6.51l1.08.83c.48.32.63.41.71.27S286,177.93,285.47,177.42ZM109.31,137.6c0-.07,0,0,.14,0Zm.83,4.5v0h0Zm11.75,59.06v.27C121.83,201.55,121.81,201.46,121.89,201.16Zm2.67,1.47.48,0C124.66,202.73,124.4,202.82,124.56,202.63Zm42,24.24a11,11,0,0,0,0-1.17,2.43,2.43,0,0,1,.06.57C166.62,226.45,166.6,226.65,166.6,226.87Zm116.86-40.5s0,.06,0,.11,0,.13,0,.21A1.26,1.26,0,0,0,283.46,186.37Z"/><text class="cls-4" transform="translate(138.58 116.04)"><tspan xml:space="preserve"> DRIVING</tspan><tspan x="29.22" y="27.08">WITH</tspan></text><text class="cls-5" transform="translate(112.34 286.84) scale(0.96 1)">NORWEGIAN<tspan x="37.42" y="27.08">FOREST</tspan><tspan x="67.68" y="54.16">CAT</tspan></text></g></g></svg>