<svg xmlns="http://www.w3.org/2000/svg" xmlns:xlink="http://www.w3.org/1999/xlink" width="270" height="270" viewBox="0 0 270 270">
  <defs>
    <filter id="楕円形_22" x="0" y="0" width="270" height="270" filterUnits="userSpaceOnUse">
      <feOffset dx="5" dy="5" input="SourceAlpha"/>
      <feGaussianBlur stdDeviation="5" result="blur"/>
      <feFlood flood-opacity="0.6"/>
      <feComposite operator="in" in2="blur"/>
      <feComposite in="SourceGraphic"/>
    </filter>
    <clipPath id="clip-path">
      <rect id="長方形_1161" data-name="長方形 1161" width="220" height="220" transform="translate(-1 -1)" fill="none"/>
    </clipPath>
  </defs>
  <g id="グループ_1315" data-name="グループ 1315" transform="translate(-33 -1096)">
    <g transform="matrix(1, 0, 0, 1, 33, 1096)" filter="url(#楕円形_22)">
      <circle id="楕円形_22-2" data-name="楕円形 22" cx="120" cy="120" r="120" transform="translate(10 10)" fill="#fff"/>
    </g>
    <g id="グループ_1168" data-name="グループ 1168" transform="translate(54 1117)" clip-path="url(#clip-path)">
      <path id="パス_9200" data-name="パス 9200" d="M213.79,106.908A106.9,106.9,0,1,1,106.863,0,106.877,106.877,0,0,1,213.79,106.908" transform="translate(2.548 2.55)" fill="#b30017"/>
      <path id="パス_9201" data-name="パス 9201" d="M16.841,9.213c-6.929,0-12.214,4-12.214,11.745,0,7.192,4.649,11.514,12.124,11.514a16.637,16.637,0,0,0,5.69-.938V27.5a13.3,13.3,0,0,1-5.458,1.22c-5.035,0-7.944-2.89-7.944-7.918,0-4.97,2.98-7.944,7.918-7.944a13.614,13.614,0,0,1,5.58,1.361V10.26a15.028,15.028,0,0,0-5.7-1.047" transform="translate(27.634 52.5)" fill="#fbcf07"/>
      <path id="パス_9202" data-name="パス 9202" d="M16.062,10.063a15.5,15.5,0,0,0-6.646,1.355v3.776a11.6,11.6,0,0,1,5.792-1.747c2.318,0,3.4.719,3.525,2.331H17.2c-4.8,0-9.388,1.682-9.388,6.666,0,3.159,2.928,5.407,6.216,5.407a7.874,7.874,0,0,0,4.964-1.772v1.548h3.853V16.607c0-4.161-1.914-6.544-6.781-6.544M14.784,24.409c-1.368,0-2.928-.745-2.928-2.235,0-2.736,2.838-2.986,5.529-2.986h1.374v.7c0,2.633-1.657,4.521-3.975,4.521" transform="translate(44.892 57.109)" fill="#fbcf07"/>
      <path id="パス_9203" data-name="パス 9203" d="M19.45,9.021c-3.667,0-5.651,2.171-5.651,6.133v1.715H10.485v3.41H13.8V33.269h4.11V20.278H21.6v-3.41H17.908V15.3c0-2.427.873-2.787,1.849-2.787a7.172,7.172,0,0,1,2.222.572V9.4a10.507,10.507,0,0,0-2.53-.379" transform="translate(59.395 51.459)" fill="#fbcf07"/>
      <path id="パス_9204" data-name="パス 9204" d="M20.857,9.135H16.1l-2.851,4.476h3.14Z" transform="translate(74.369 52.079)" fill="#fbcf07"/>
      <path id="パス_9205" data-name="パス 9205" d="M30.752,17.281H26.97a11.543,11.543,0,0,1-7.256,6.98V9.883H15.629V28.91c9.215,0,13.331-6.043,15.123-11.63" transform="translate(87.284 56.133)" fill="#fbcf07"/>
      <path id="パス_9206" data-name="パス 9206" d="M32.8,24.121,29,21.1A20.356,20.356,0,0,0,32.469,9.9H18.29v3.545h9.549A16.825,16.825,0,0,1,18,25.257V28.93a18.083,18.083,0,0,0,8.631-4.97L32.8,29Z" transform="translate(100.144 56.241)" fill="#fbcf07"/>
      <rect id="長方形_1157" data-name="長方形 1157" width="12.664" height="3.57" transform="translate(153.991 66.117)" fill="#fbcf07"/>
      <rect id="長方形_1158" data-name="長方形 1158" width="7.25" height="3.551" transform="translate(171.008 66.136)" fill="#fbcf07"/>
      <path id="パス_9207" data-name="パス 9207" d="M24.957,9.883H20.892V28.6h4.065V19.239l9.433,1.67V17.133l-9.433-1.65Z" transform="translate(115.816 56.131)" fill="#fbcf07"/>
      <path id="パス_9208" data-name="パス 9208" d="M23.449,10.782V14.34H34.205c-.36,3.673-4.232,5.7-8.746,6.261v3.487c7.321-.514,12.882-3.77,12.882-10.718V10.782Z" transform="translate(129.681 61.007)" fill="#fbcf07"/>
      <path id="パス_9209" data-name="パス 9209" d="M36.3,9.989V17.3c0,5.234-4.919,7.057-10.069,7.578v3.468C33.3,28,40.366,25.4,40.366,17.3V9.989Z" transform="translate(144.77 56.707)" fill="#fbcf07"/>
      <path id="パス_9210" data-name="パス 9210" d="M20.229,10.056c-4.45,0-7.751,3.564-7.751,8.811,0,5.388,3,9.055,8.194,9.055A13.3,13.3,0,0,0,26.3,26.669v-3.6a10.588,10.588,0,0,1-5.388,1.4c-2.53,0-4.091-1.548-4.45-4.193h11.09v-1.76c0-5.15-2.813-8.457-7.327-8.457M20.2,13.479c2.222,0,3.025,1.605,3.333,3.378H16.607c.5-2.061,1.894-3.378,3.6-3.378" transform="translate(70.2 57.071)" fill="#fbcf07"/>
      <path id="パス_9211" data-name="パス 9211" d="M1.623,98.109A96.447,96.447,0,1,0,98.064,1.623,96.552,96.552,0,0,0,1.623,98.109m3.288,0a93.162,93.162,0,1,1,93.153,93.14A93.281,93.281,0,0,1,4.911,98.109" transform="translate(11.348 11.35)" fill="#37160c"/>
      <path id="パス_9212" data-name="パス 9212" d="M63.923,53.072l-5.08-2.864a30.665,30.665,0,0,0,6.4-18.443v-7.07a10.173,10.173,0,0,0-10.14-10.178H20.172a4.2,4.2,0,0,0-4.181,4.213V30.191A4.182,4.182,0,0,0,20.172,34.4H42.86c-2.222,8.168-14.25,15.81-26.168,19.5a4.275,4.275,0,0,0-2.948,4.007V69.852a4.2,4.2,0,0,0,5.291,4.065,99.545,99.545,0,0,0,23.9-9.947l16.806,9.562a4.218,4.218,0,0,0,6.287-3.68V56.719a4.2,4.2,0,0,0-2.106-3.648" transform="translate(77.064 81.251)" fill="#37160c"/>
      <path id="パス_9213" data-name="パス 9213" d="M69.229,33.8c-3-.308-17.062-1.727-25.456-5.06V18.723a4.216,4.216,0,0,0-4.206-4.206H26.422a4.19,4.19,0,0,0-4.18,4.206V69.178a4.178,4.178,0,0,0,4.18,4.187H39.568a4.2,4.2,0,0,0,4.206-4.187V49.663c8.1,2.273,17.043,3.192,24.422,4.039a4.2,4.2,0,0,0,4.7-4.174V37.982A4.177,4.177,0,0,0,69.229,33.8" transform="translate(123.137 81.257)" fill="#37160c"/>
      <path id="パス_9214" data-name="パス 9214" d="M51.338,15.212a5.7,5.7,0,0,1,5.651,5.709v7.064c0,7-2.864,13.524-8.56,19.432l-.231.238s9.331,5.291,9.594,5.446V65.641c-.758-.45-18.726-10.647-18.726-10.647l-.141.071A94.048,94.048,0,0,1,14.439,65.751v-11.4c14.256-4.489,29.52-14.622,29.52-26.361V26.167H16.687V15.212Z" transform="translate(80.832 85.025)" fill="#fff"/>
      <path id="パス_9215" data-name="パス 9215" d="M35.537,15.212V27.978c9.761,4.36,21.134,5.548,29.142,6.447V45.452C52.555,44.045,44.8,42.986,35.537,39.768v25.34h-12.6v-49.9Z" transform="translate(126.911 85.025)" fill="#fff"/>
      <path id="パス_9216" data-name="パス 9216" d="M59.823,13.963H41.438a4.183,4.183,0,0,0-4.206,4.219v.925l-.026-.026a4.146,4.146,0,0,0-3.237-1.56h-12.1A4.251,4.251,0,0,0,17.7,20.937L17,24.61H10.684a4.236,4.236,0,0,0-4.225,4.219V40.292a4.223,4.223,0,0,0,4.225,4.2h2.37L11.6,51.851C11.179,53.97,10.4,55.229,7,56.725a4.25,4.25,0,0,0-2.5,3.872V72.85a4.316,4.316,0,0,0,1.747,3.442,4.377,4.377,0,0,0,3.8.578C18.628,74.012,28.884,69,31.581,55.383c0,0,.963-4.868,2.171-10.891H40.77V56.519H35.851a4.207,4.207,0,0,0-4.181,4.206V72.182a4.2,4.2,0,0,0,4.181,4.193H52.188a10.146,10.146,0,0,0,10.14-10.127V34.788a10.1,10.1,0,0,0-1.438-5.24,4.2,4.2,0,0,0,3.14-4.065v-7.3a4.183,4.183,0,0,0-4.206-4.219" transform="translate(26.913 78.253)" fill="#37160c"/>
      <rect id="長方形_1159" data-name="長方形 1159" width="6.736" height="6.781" transform="translate(68.608 96.684)" fill="#fff"/>
      <rect id="長方形_1160" data-name="長方形 1160" width="6.736" height="6.781" transform="translate(79.724 96.684)" fill="#fff"/>
      <path id="パス_9217" data-name="パス 9217" d="M29.821,15.212c-.1.591-1.394,7.115-1.394,7.115H48.4a5.7,5.7,0,0,1,5.69,5.658V59.47a5.682,5.682,0,0,1-5.69,5.638H32.351v-10.9H41.47l-.019-20.973H26.27L23.419,47.725C21.19,58.847,13,63.073,5.194,65.712V53.992c4.251-1.952,6.242-4.213,7-8.046l2.524-12.708H7.159V22.327h9.71s1.3-6.685,1.393-7.115Z" transform="translate(30.709 85.025)" fill="#fff"/>
    </g>
  </g>
</svg>
