<svg xmlns="http://www.w3.org/2000/svg" xmlns:xlink="http://www.w3.org/1999/xlink" width="258" height="258" viewBox="0 0 258 258">
  <defs>
    <filter id="楕円形_22" x="0" y="0" width="258" height="258" filterUnits="userSpaceOnUse">
      <feOffset dx="5" dy="5" input="SourceAlpha"/>
      <feGaussianBlur stdDeviation="3" result="blur"/>
      <feFlood flood-opacity="0.6"/>
      <feComposite operator="in" in2="blur"/>
      <feComposite in="SourceGraphic"/>
    </filter>
  </defs>
  <g id="グループ_1307" data-name="グループ 1307" transform="translate(-68 -9910)">
    <g transform="matrix(1, 0, 0, 1, 68, 9910)" filter="url(#楕円形_22)">
      <circle id="楕円形_22-2" data-name="楕円形 22" cx="120" cy="120" r="120" transform="translate(4 4)" fill="#fff"/>
    </g>
    <path id="パス_2323" data-name="パス 2323" d="M215.768,108.28A107.489,107.489,0,1,1,108.277.789,107.49,107.49,0,0,1,215.768,108.28" transform="translate(83.722 9925.721)" fill="#fff"/>
    <path id="パス_2324" data-name="パス 2324" d="M108.277,0A109.082,109.082,0,0,1,130.1,2.2a107.692,107.692,0,0,1,38.72,16.293,108.591,108.591,0,0,1,39.229,47.639,107.743,107.743,0,0,1,6.31,20.326,109.333,109.333,0,0,1,0,43.643,107.692,107.692,0,0,1-16.293,38.72,108.591,108.591,0,0,1-47.639,39.229,107.742,107.742,0,0,1-20.326,6.31,109.328,109.328,0,0,1-43.642,0,107.687,107.687,0,0,1-38.718-16.293A108.592,108.592,0,0,1,8.509,150.428,107.742,107.742,0,0,1,2.2,130.1a109.332,109.332,0,0,1,0-43.643,107.693,107.693,0,0,1,16.293-38.72A108.591,108.591,0,0,1,66.131,8.509,107.736,107.736,0,0,1,86.456,2.2,109.072,109.072,0,0,1,108.277,0Zm0,214.982a107.5,107.5,0,0,0,21.505-2.168,106.112,106.112,0,0,0,38.153-16.055,107.014,107.014,0,0,0,38.659-46.946,106.161,106.161,0,0,0,6.217-20.028,107.755,107.755,0,0,0,0-43.01,106.113,106.113,0,0,0-16.055-38.153A107.014,107.014,0,0,0,149.81,9.963a106.16,106.16,0,0,0-20.028-6.217,107.75,107.75,0,0,0-43.009,0A106.109,106.109,0,0,0,48.621,19.8,107.015,107.015,0,0,0,9.963,66.747,106.16,106.16,0,0,0,3.746,86.775a107.755,107.755,0,0,0,0,43.01A106.114,106.114,0,0,0,19.8,167.938,107.013,107.013,0,0,0,66.745,206.6a106.154,106.154,0,0,0,20.027,6.217A107.488,107.488,0,0,0,108.277,214.982Z" transform="translate(83.722 9925.721)" fill="#891030"/>
    <rect id="長方形_617" data-name="長方形 617" width="131.537" height="131.553" transform="translate(126.229 9968.214)" fill="#fff"/>
    <path id="パス_2325" data-name="パス 2325" d="M60.419,22.528C28.36,34.209,16.113,54.456,20.9,67.572a16.179,16.179,0,0,0,8.951,9.212c10.026,4.458,26.29,2.386,47.1-6.036l.07-.054.1-.022A107.466,107.466,0,0,0,91.2,63.015c11.067-7.284,15.407-14.475,12.884-21.4-4.843-13.3-32.463-4.2-38.082-2.2-1.091.385-13.523,4.687-21.564,13.323a5.922,5.922,0,1,0,8.649,8.092c6.138-6.6,16.651-10.151,16.753-10.192l.118-.048C80.79,46.7,91.873,44.162,92.376,46.5c.573,2.479-10.376,9.05-19.945,13.288C47.315,69.927,37.19,67.069,34.664,65.949a4.166,4.166,0,0,1-2.619-2.437c-.875-2.4,0-7.048,5.11-12.868,5.922-6.676,15.608-12.728,27.337-16.973a76.453,76.453,0,0,1,41.242-3.446,5.931,5.931,0,0,0,2.221-11.652,88.471,88.471,0,0,0-47.536,3.955" transform="translate(125.425 9961.035)" fill="#891030"/>
    <path id="パス_2326" data-name="パス 2326" d="M44.4,45.866a3.166,3.166,0,0,0-3.637-2.533.058.058,0,0,0-.048.013H29.1A2.329,2.329,0,0,0,29.1,48h8.776a3.365,3.365,0,0,0-.235.283c-.484.484-2.119,1.632-6.93,1.327a3.161,3.161,0,1,0-.382,6.31c5.648.353,9.7-.837,12.095-3.507A8.262,8.262,0,0,0,44.4,45.866" transform="translate(140.417 10018.46)" fill="#891030"/>
    <path id="パス_2327" data-name="パス 2327" d="M29.093,46.293H41.324a2.323,2.323,0,0,0,0-4.646H29.093a2.323,2.323,0,0,0,0,4.646" transform="translate(140.418 10014.873)" fill="#891030"/>
    <path id="パス_2328" data-name="パス 2328" d="M38.459,45.162A2.608,2.608,0,0,0,35.919,43.2H29.291a3.111,3.111,0,0,0-2.4-1.893,3.2,3.2,0,0,0-3.618,2.638,4.888,4.888,0,0,1-1.3,2.651c-1.629,1.009-2.52,2.39-1.947,4.038a3.17,3.17,0,0,0,4.019,1.954,7.888,7.888,0,0,0,4.337-4.108h4.194a6.282,6.282,0,0,1-1.228,4.073c-1.028,1.133-2.829,1.645-5.384,1.48a3.162,3.162,0,1,0-.407,6.31c4.646.29,8.175-.945,10.548-3.631,3.717-4.219,2.708-10.2,2.555-10.854a2.2,2.2,0,0,0-.2-.69" transform="translate(125.315 10014.05)" fill="#891030"/>
    <path id="パス_2329" data-name="パス 2329" d="M49.487,45.077a3.139,3.139,0,0,0-3.6-2.609,3.2,3.2,0,0,0-2.638,3.618v-.022a5.416,5.416,0,0,1-1.063,3.923c-1.375,1.464-4.048,1.607-6.055,1.505a3.206,3.206,0,0,0-3.363,2.966A3.145,3.145,0,0,0,35.728,57.8c4.964.315,8.712-.891,11.15-3.605a11.454,11.454,0,0,0,2.609-9.12" transform="translate(153.483 10016.582)" fill="#891030"/>
    <path id="パス_2330" data-name="パス 2330" d="M35.141,47.812a2.595,2.595,0,1,0-2.59-2.6,2.594,2.594,0,0,0,2.59,2.6" transform="translate(153.026 10017)" fill="#891030"/>
    <path id="パス_2331" data-name="パス 2331" d="M36.853,47.812a2.595,2.595,0,1,0-2.59-2.6,2.594,2.594,0,0,0,2.59,2.6" transform="translate(156.762 10017)" fill="#891030"/>
    <path id="パス_2332" data-name="パス 2332" d="M54.538,47.353H52.1a7.9,7.9,0,0,0-.191-.932,17.5,17.5,0,0,0,2.526-.407A2.311,2.311,0,0,0,56.2,43.251a2.337,2.337,0,0,0-2.791-1.76c-3.029.678-9.47.678-11.687.63a2.322,2.322,0,0,0-2.393,2.243,2.293,2.293,0,0,0,2.256,2.38c.165.016,1.814.054,4.019.016,0,.2,0,.4.019.592H41.015a2.316,2.316,0,1,0,0,4.633h4.576a2.57,2.57,0,0,1-.3.49c-.627.834-1.887,1.251-3.818,1.251a3.171,3.171,0,0,0,0,6.342c5.012,0,7.6-2.078,8.894-3.818a9.636,9.636,0,0,0,1.772-4.264h2.4a2.317,2.317,0,0,0,0-4.633" transform="translate(165.586 10014.417)" fill="#891030"/>
    <path id="パス_2333" data-name="パス 2333" d="M57.522,51.684H55.3V47.818h2.221a2.332,2.332,0,0,0,0-4.665H46.773a2.332,2.332,0,1,0,0,4.665h2.2v3.866h-2.2a2.323,2.323,0,1,0,0,4.646H57.522a2.323,2.323,0,0,0,0-4.646" transform="translate(178.955 10018.159)" fill="#891030"/>
    <path id="パス_2334" data-name="パス 2334" d="M25.256,41.884a5.634,5.634,0,0,0-1.5,4.417,4.47,4.47,0,0,0,1.935,3.309,4.792,4.792,0,0,0,6.259-.283,4.04,4.04,0,0,0,1.126-2.81,3.642,3.642,0,0,0-.3-1.445,1.658,1.658,0,0,0,1.865-2.555,6.031,6.031,0,0,0-4.538-2.45,6.124,6.124,0,0,0-4.846,1.817" transform="translate(133.776 10011.4)" fill="#fff"/>
    <path id="パス_2335" data-name="パス 2335" d="M25.277,41.881a5.072,5.072,0,0,0-1.346,3.971,3.9,3.9,0,0,0,1.7,2.924,4.2,4.2,0,0,0,5.53-.232,3.293,3.293,0,0,0,.309-4.324,2.783,2.783,0,0,0-3.182-.757,2.04,2.04,0,0,0-1.263,2.227,1.117,1.117,0,0,0,2.224-.162.581.581,0,0,1,.468.08,1.146,1.146,0,0,1-.137,1.356,2.063,2.063,0,0,1-2.673-.029,1.756,1.756,0,0,1-.738-1.317,2.96,2.96,0,0,1,.738-2.189,3.436,3.436,0,0,1,2.625-.939,3.138,3.138,0,0,1,2.441,1.286,1.143,1.143,0,0,0,1.581.248,1.124,1.124,0,0,0,.235-1.569,5.475,5.475,0,0,0-4.1-2.215,5.593,5.593,0,0,0-4.41,1.642" transform="translate(134.16 10011.781)" fill="#26752d"/>
    <path id="パス_2336" data-name="パス 2336" d="M41.493,44.175V38.043a.757.757,0,0,0-.757-.773.772.772,0,0,0-.773.773v6.132a.743.743,0,0,0,.773.738.728.728,0,0,0,.757-.738" transform="translate(169.197 10005.322)" fill="#891030"/>
    <path id="パス_2337" data-name="パス 2337" d="M26.977,39.331a2.108,2.108,0,0,0-.5-1.566,2.284,2.284,0,0,0-1.651-.519,2.28,2.28,0,0,0-1.629.56,2.07,2.07,0,0,0-.554,1.524v4.894h0a.791.791,0,0,0,.789.767.75.75,0,0,0,.754-.767V41.746h1.247v2.479a.777.777,0,0,0,.773.767.79.79,0,0,0,.773-.767Zm-1.546,1.387H24.183V39.035a1.325,1.325,0,0,1,.137-.671.556.556,0,0,1,.5-.194.543.543,0,0,1,.455.2,1.2,1.2,0,0,1,.153.665Z" transform="translate(131.4 10005.272)" fill="#891030"/>
    <path id="パス_2338" data-name="パス 2338" d="M35.87,39.331a2.109,2.109,0,0,0-.5-1.566,2.236,2.236,0,0,0-1.629-.519,2.269,2.269,0,0,0-1.616.56,2,2,0,0,0-.554,1.524v4.894a.772.772,0,0,0,1.543,0V41.746h1.247v2.479H34.34a.765.765,0,1,0,1.531,0Zm-1.511,1.387H33.111V39.035a1.176,1.176,0,0,1,.137-.671.532.532,0,0,1,.49-.194.57.57,0,0,1,.455.2,1.089,1.089,0,0,1,.165.665Z" transform="translate(150.881 10005.272)" fill="#891030"/>
    <path id="パス_2339" data-name="パス 2339" d="M52.3,39.331a2.124,2.124,0,0,0-.519-1.566,2.206,2.206,0,0,0-1.648-.519,2.138,2.138,0,0,0-1.581.56,1.948,1.948,0,0,0-.573,1.524v4.894a.783.783,0,0,0,1.566,0V41.746h1.209v2.479a.767.767,0,0,0,.773.767.777.777,0,0,0,.773-.767Zm-1.546,1.387H49.542V39.035a1.686,1.686,0,0,1,.1-.671.578.578,0,0,1,.5-.194.568.568,0,0,1,.471.2,1.281,1.281,0,0,1,.137.665Z" transform="translate(186.684 10005.272)" fill="#891030"/>
    <path id="パス_2340" data-name="パス 2340" d="M29.82,41.974a2.975,2.975,0,0,0-.554-.869,9.1,9.1,0,0,0-.811-.719c-.353-.318-.554-.5-.589-.525a2.152,2.152,0,0,1-.455-.515.664.664,0,0,1-.111-.4.686.686,0,0,1,.111-.43.429.429,0,0,1,.353-.143.419.419,0,0,1,.407.2,1.015,1.015,0,0,1,.13.554v.006a.727.727,0,0,0,.725.732.761.761,0,0,0,.738-.716,1.822,1.822,0,0,0-.5-1.375,1.877,1.877,0,0,0-1.4-.525,1.964,1.964,0,0,0-1.41.531,1.9,1.9,0,0,0-.557,1.387,2.471,2.471,0,0,0,.2.945,3.681,3.681,0,0,0,.608.831c.067.067.267.255.62.573s.592.538.69.64a2.221,2.221,0,0,1,.4.554,1.335,1.335,0,0,1,.137.608.6.6,0,0,1-.185.5.586.586,0,0,1-.471.194.526.526,0,0,1-.471-.2.98.98,0,0,1-.13-.592v0a.727.727,0,1,0-1.454,0v0a1.947,1.947,0,0,0,.544,1.429,2.189,2.189,0,0,0,1.476.468,2.3,2.3,0,0,0,1.6-.531A2.311,2.311,0,0,0,30,42.961a2.561,2.561,0,0,0-.181-.986" transform="translate(138.396 10005.27)" fill="#891030"/>
    <path id="パス_2341" data-name="パス 2341" d="M33.364,37.271l-.019.019H28.954l-.016-.019a.53.53,0,0,0-.522.519.542.542,0,0,0,.522.509H30.37v5.877a.764.764,0,0,0,.773.764.749.749,0,0,0,.757-.764V38.3h1.464a.514.514,0,0,0,0-1.028" transform="translate(144.003 10005.324)" fill="#891030"/>
    <path id="パス_2342" data-name="パス 2342" d="M24.023,37.76a1.768,1.768,0,0,0-1.394-.471H20.224V37.27a.515.515,0,0,0-.032,1.028v5.88a.776.776,0,0,0,.786.76.756.756,0,0,0,.76-.76V41.426h.773a1.8,1.8,0,0,0,1.464-.535,2.124,2.124,0,0,0,.484-1.537,2.375,2.375,0,0,0-.436-1.594m-1.292,2.421a.853.853,0,0,1-.636.242h-.356V38.282h.356a.739.739,0,0,1,.636.27,1.229,1.229,0,0,1,.2.8,1.336,1.336,0,0,1-.2.827" transform="translate(125.031 10005.322)" fill="#891030"/>
    <path id="パス_2343" data-name="パス 2343" d="M41.317,37.76a1.806,1.806,0,0,0-1.41-.471h-2.4V37.27a.517.517,0,0,0-.509.522.523.523,0,0,0,.509.506v5.88a.767.767,0,0,0,.773.76.755.755,0,0,0,.754-.76V41.426h.773a1.8,1.8,0,0,0,1.464-.535,2.055,2.055,0,0,0,.474-1.537,2.378,2.378,0,0,0-.426-1.594m-1.292,2.421a.864.864,0,0,1-.655.242h-.337V38.282h.337a.773.773,0,0,1,.655.27,1.229,1.229,0,0,1,.2.8,1.336,1.336,0,0,1-.2.827" transform="translate(162.725 10005.322)" fill="#891030"/>
    <path id="パス_2344" data-name="パス 2344" d="M38.039,41.75a3.106,3.106,0,0,1-.608-.318,1.1,1.1,0,0,1-.923.442,1.208,1.208,0,0,1-.808-2.106,1.159,1.159,0,0,1-.2-.633,1.025,1.025,0,1,1,2.049,0,1.048,1.048,0,0,1-.62.958c.083.089.172.175.255.27a.368.368,0,0,1,.248-.13.331.331,0,0,1,.29.525,4.474,4.474,0,0,0,.589.337c.067.048.165.105.185.207a2.2,2.2,0,0,0,.388-1.251,2.354,2.354,0,1,0-.789,1.718c-.019-.013-.054-.013-.054-.019" transform="translate(156.67 10006.328)" fill="#891030"/>
    <path id="パス_2345" data-name="パス 2345" d="M34.787,38.894a.489.489,0,0,0,.856.331,5.156,5.156,0,0,1-.7-.678.441.441,0,0,0-.153.347" transform="translate(157.905 10008.108)" fill="#891030"/>
    <path id="パス_2346" data-name="パス 2346" d="M35.147,38.7h.019a.319.319,0,0,0,.3-.312.309.309,0,0,0-.3-.309.334.334,0,0,0-.321.309.329.329,0,0,0,.3.312" transform="translate(158.032 10007.079)" fill="#891030"/>
    <path id="パス_2347" data-name="パス 2347" d="M46.421,43.929H44.149l.016-.019a.127.127,0,0,1-.118-.092l2.119-5.04c.089-.178.153-.325.22-.474a.1.1,0,0,0,.016-.057.89.89,0,0,1,.038-.115v-.105a.715.715,0,0,0-.71-.754H42.638a.508.508,0,1,0,0,1.015h2.017c.032,0,.1.057.1.057v.035L42.5,43.852c-.016.041-.016.057-.035.076h-.013c-.016.064,0,.022-.016.1v.022a.716.716,0,0,0-.035.118.759.759,0,0,0,.706.767h3.312a.523.523,0,0,0,.509-.519.514.514,0,0,0-.509-.49" transform="translate(173.891 10005.327)" fill="#891030"/>
    <path id="パス_2348" data-name="パス 2348" d="M49.328,43.929H47.037l.019-.019a.089.089,0,0,1-.083-.092l2.1-5.04a2.28,2.28,0,0,0,.2-.474v-.057a.2.2,0,0,0,.054-.115.017.017,0,0,0,0-.029.112.112,0,0,1,.019-.076.727.727,0,0,0-.71-.754H45.526a.508.508,0,0,0,0,1.015h2.021a.139.139,0,0,1,.118.057v.035l-2.272,5.473c-.019.041-.019.057-.038.076-.029.064-.029.022-.029.1v.022a.793.793,0,0,1-.016.118.759.759,0,0,0,.706.767h3.312a.507.507,0,0,0,.49-.519.5.5,0,0,0-.49-.49" transform="translate(180.233 10005.327)" fill="#891030"/>
    <path id="パス_2349" data-name="パス 2349" d="M60.211,22C28.137,33.677,15.924,53.911,20.681,67.034a16.109,16.109,0,0,0,8.948,9.218c10.011,4.445,26.309,2.367,47.1-6.036l.089-.029.067-.048a105.413,105.413,0,0,0,14.093-7.662c11.051-7.268,15.407-14.484,12.9-21.38C99.016,27.781,71.4,36.881,65.8,38.883c-1.111.379-13.543,4.706-21.6,13.323A5.928,5.928,0,0,0,52.861,60.3c6.176-6.6,16.635-10.157,16.753-10.17l.137-.057c10.832-3.885,21.879-6.434,22.436-4.1.525,2.491-10.415,9.069-20,13.3-25.1,10.128-35.222,7.277-37.748,6.151a4.358,4.358,0,0,1-2.622-2.409c-.862-2.431,0-7.083,5.148-12.881C42.835,43.417,52.556,37.4,64.249,33.139a76.544,76.544,0,0,1,41.242-3.44,5.92,5.92,0,1,0,2.218-11.63A88.029,88.029,0,0,0,60.211,22" transform="translate(124.961 9959.891)" fill="#eb9100"/>
    <path id="パス_2350" data-name="パス 2350" d="M30.018,50.24a1.733,1.733,0,1,0,0,3.465h4.474a1.733,1.733,0,1,0,0-3.465Z" transform="translate(143.716 10033.623)" fill="#891030"/>
    <path id="パス_2351" data-name="パス 2351" d="M38.21,49.167a1.723,1.723,0,0,0-1.731,1.725A1.7,1.7,0,0,0,38.21,52.6h3.147a1.7,1.7,0,0,0,1.718-1.706,1.725,1.725,0,0,0-1.718-1.725Z" transform="translate(161.597 10031.281)" fill="#891030"/>
    <path id="パス_2352" data-name="パス 2352" d="M44.715,49.517a2.062,2.062,0,0,0-1.648,2.422v-.013a4.349,4.349,0,0,1-.643,3.233c-.636.738-1.884,1.063-3.647.951a2.072,2.072,0,0,0-.255,4.137c3.128.2,5.5-.6,7.048-2.361,2.336-2.689,1.664-6.351,1.581-6.781a2.072,2.072,0,0,0-2.437-1.588" transform="translate(161.834 10031.943)" fill="#891030"/>
    <path id="パス_2353" data-name="パス 2353" d="M35.864,51.266A1.73,1.73,0,0,0,34.3,50.238H30.48a2.073,2.073,0,0,0-3.9,0h-.757a1.733,1.733,0,1,0,0,3.465h.121a3.761,3.761,0,0,1-.239.633c-.3.665-1.209,1.263-1.225,2.231-.073,1.133.837,1.728,1.963,1.728,2.409,0,3.449-2.383,3.857-4.592h1.763a5.7,5.7,0,0,1-.99,3.265,1.511,1.511,0,0,1-1.212.455,2.081,2.081,0,1,0,0,4.162,5.624,5.624,0,0,0,4.258-1.807c2.437-2.6,2.135-7.013,2.1-7.51a2.028,2.028,0,0,0-.353-1" transform="translate(134.558 10030.63)" fill="#891030"/>
    <path id="パス_2354" data-name="パス 2354" d="M29.27,48.995a1.429,1.429,0,0,0-1.429,1.441,1.429,1.429,0,0,0,2.857,0,1.44,1.44,0,0,0-1.429-1.441" transform="translate(142.749 10030.906)" fill="#891030"/>
    <path id="パス_2355" data-name="パス 2355" d="M30.193,48.995a1.423,1.423,0,0,0-1.41,1.441,1.4,1.4,0,0,0,1.41,1.41,1.419,1.419,0,0,0,1.429-1.41,1.44,1.44,0,0,0-1.429-1.441" transform="translate(144.804 10030.906)" fill="#891030"/>
    <path id="パス_2356" data-name="パス 2356" d="M32.667,52.212h7.1a1.523,1.523,0,1,0,0-3.045h-7.1a1.523,1.523,0,0,0,0,3.045" transform="translate(149.982 10031.281)" fill="#891030"/>
    <path id="パス_2357" data-name="パス 2357" d="M41.751,50.253H32.666a1.523,1.523,0,0,0,0,3.045h2.457a1.275,1.275,0,0,1-.3.69,1.8,1.8,0,0,1-1.381.414,2.081,2.081,0,0,0,0,4.162,5.786,5.786,0,0,0,4.509-1.814A6.047,6.047,0,0,0,39.33,53.3h2.422a1.523,1.523,0,1,0,0-3.045" transform="translate(149.98 10033.651)" fill="#891030"/>
    <path id="パス_2358" data-name="パス 2358" d="M35.822,48.995a1.436,1.436,0,0,0-1.41,1.441,1.419,1.419,0,0,0,2.838,0,1.429,1.429,0,0,0-1.429-1.441" transform="translate(157.087 10030.906)" fill="#891030"/>
    <path id="パス_2359" data-name="パス 2359" d="M36.763,48.995a1.423,1.423,0,0,0-1.41,1.441,1.41,1.41,0,1,0,2.819,0,1.423,1.423,0,0,0-1.41-1.441" transform="translate(159.14 10030.906)" fill="#891030"/>
    <path id="パス_2360" data-name="パス 2360" d="M45.121,48.995a1.423,1.423,0,0,0-1.41,1.441,1.4,1.4,0,0,0,1.41,1.41,1.431,1.431,0,0,0,1.429-1.41,1.452,1.452,0,0,0-1.429-1.441" transform="translate(177.377 10030.906)" fill="#891030"/>
    <path id="パス_2361" data-name="パス 2361" d="M46.059,48.995a1.424,1.424,0,0,0-1.413,1.441,1.4,1.4,0,0,0,1.413,1.41,1.418,1.418,0,0,0,1.426-1.41,1.439,1.439,0,0,0-1.426-1.441" transform="translate(179.417 10030.906)" fill="#891030"/>
    <path id="パス_2362" data-name="パス 2362" d="M50.485,55.525c-.019-.022-.054-.022-.083-.06a13.31,13.31,0,0,0,1.056-4.178,2.013,2.013,0,0,0-1.966-2.119H41.836a1.709,1.709,0,0,0-1.7,1.725,1.686,1.686,0,0,0,1.7,1.706H47a6.01,6.01,0,0,1-.608,1.575,4.344,4.344,0,0,1-4.219,2.581,2.078,2.078,0,1,0,0,4.156A8.7,8.7,0,0,0,47.91,58.9L49.1,60.253a2.09,2.09,0,0,0,3.115-2.787Z" transform="translate(169.474 10031.281)" fill="#891030"/>
    <rect id="長方形_618" data-name="長方形 618" width="13.539" height="131.572" transform="translate(126.233 9968.214)" fill="#26752d"/>
    <rect id="長方形_619" data-name="長方形 619" width="13.539" height="131.572" transform="translate(244.228 9968.214)" fill="#891030"/>
    <rect id="長方形_620" data-name="長方形 620" width="220" height="220" transform="translate(82 9924)" fill="none"/>
  </g>
</svg>
