<svg xmlns="http://www.w3.org/2000/svg" xmlns:xlink="http://www.w3.org/1999/xlink" width="270" height="270" viewBox="0 0 270 270">
  <defs>
    <filter id="楕円形_22" x="0" y="0" width="270" height="270" filterUnits="userSpaceOnUse">
      <feOffset dx="5" dy="5" input="SourceAlpha"/>
      <feGaussianBlur stdDeviation="5" result="blur"/>
      <feFlood flood-opacity="0.6"/>
      <feComposite operator="in" in2="blur"/>
      <feComposite in="SourceGraphic"/>
    </filter>
  </defs>
  <g id="グループ_1312" data-name="グループ 1312" transform="translate(-62 -2497)">
    <g transform="matrix(1, 0, 0, 1, 62, 2497)" filter="url(#楕円形_22)">
      <circle id="楕円形_22-2" data-name="楕円形 22" cx="120" cy="120" r="120" transform="translate(10 10)" fill="#fff"/>
    </g>
    <path id="パス_812" data-name="パス 812" d="M216.685,108.654A108.032,108.032,0,1,1,108.653.622,108.032,108.032,0,0,1,216.685,108.654" transform="translate(83.347 2518.347)" fill="#fff"/>
    <path id="パス_813" data-name="パス 813" d="M110,220A110,110,0,1,1,220,110,110.124,110.124,0,0,1,110,220M110,3.939A106.063,106.063,0,1,0,216.064,110,106.185,106.185,0,0,0,110,3.939" transform="translate(82 2516.998)" fill="#c00065"/>
    <path id="パス_814" data-name="パス 814" d="M19.883,46.779h4.88V49c-1.182,0-1.318,1.271-1.182,2.307,1.813,9.82,8.049,14.846,14.849,17.678l-4.576,6.917c-9.4-6.917-13.971-15.936-13.971-29.127" transform="translate(125.121 2618.45)" fill="#1a1311"/>
    <path id="パス_815" data-name="パス 815" d="M21.813,46.779v6.794h3.219V49.564c0-1.144.634-1.071.786-1.071V46.779Z" transform="translate(129.307 2618.45)" fill="#1a1311"/>
    <path id="パス_816" data-name="パス 816" d="M23.309,46.779v6.794h3.219V49.564c0-1.144.618-1.071.824-1.071V46.779Z" transform="translate(132.551 2618.45)" fill="#1a1311"/>
    <path id="パス_817" data-name="パス 817" d="M23.4,57.614h1.9c.6-2.158,3.121-2.833,7.111-1.363,2.963,1.1,8.131,1.765,11.914-1.686V51.973c-2.842,1.473-6.078.973-9.075-1.15-3.216-2.285-10.051-1.572-11.848,1.115Z" transform="translate(132.74 2624.251)" fill="#1a1311"/>
    <path id="パス_818" data-name="パス 818" d="M46.708,51.019a4.6,4.6,0,0,0,4.9,1.293v2.494c-2.963,1.736-7.735-1.261-10.289-2.443-4.728-2.285-7.827.371-9.161,2.443l-2.262.006v-5.2a10.056,10.056,0,0,1,4.918-2.83,11.245,11.245,0,0,1,7.827,1.093,19.08,19.08,0,0,1,4.072,3.147" transform="translate(146.826 2617.847)" fill="#1a1311"/>
    <path id="パス_819" data-name="パス 819" d="M30.3,51.828v5.634h2.224c1.629-2.262,3.8-3.416,9.639-1.353,2.912.919,5.859,2.525,8.565,1.134V54.731c-3.444,1.1-4.281-.814-6.692-2.481-4.1-3.064-6.461-3.194-9.915-2.411a12.122,12.122,0,0,0-3.822,1.99" transform="translate(147.707 2624.206)" fill="#1a1311"/>
    <path id="パス_820" data-name="パス 820" d="M35.9,52.71a13,13,0,0,1,5.685.158,21.576,21.576,0,0,1,8.958,4.278c.925.64,2.516,2.421,3.92,2.421,1.283,0,1.759-.881,1.42-1.854-.187-.551-.837-.627-1.42-.627l.035-2.9a4.744,4.744,0,0,1,2.449.437,4.322,4.322,0,0,1,1.1,6.787c-.688.713-2.931,2.611-6.543.824a22.781,22.781,0,0,0-8.632-3c-6.917-1.207-9.848,1.721-10.58,3.726H29.492V56.439a9.868,9.868,0,0,1,2.725-2.291A11.978,11.978,0,0,1,35.9,52.71" transform="translate(145.961 2630.79)" fill="#1a1311"/>
    <path id="パス_821" data-name="パス 821" d="M46.957,63.212v8.071h2.532c0-1.344,1.781-1.344,2.247-1.344,9.589.285,13.353-5.377,15.394-9.4,1.882-3.847,3.356-8.324,7.6-9.148V48.629c-6.471.421-8.543,3.951-9.966,5.789-3.749,4.715-6.388,9.348-17.808,8.793" transform="translate(183.838 2622.462)" fill="#1a1311"/>
    <path id="パス_822" data-name="パス 822" d="M45.781,75.629,42.593,55.323H40.28c-.732,0-.957.482-1.074,1.35H37.133v-4.9h4.9l-.209-1.293c-.219-.992-.6-1.378-1.933-1.5V46.625H48.2l.8,5.146H67.046c0,11.164-7.431,15.847-15.568,15.847l1.255,8.011Zm3.764-20.305,1.591,10.127c4.161,0,7.158-4.8,7.158-10.127Z" transform="translate(162.532 2618.116)" fill="#1a1311"/>
    <path id="パス_823" data-name="パス 823" d="M23.661,46.779h9.265c.491,15.185-5.086,24.282-18.6,28.715l-1.217-2.269c9.833-4.05,12.364-13.746,12.431-21.763v-.957c0-1.138-1.058-1.5-1.882-1.5Z" transform="translate(110.437 2618.45)" fill="#1a1311"/>
    <path id="パス_824" data-name="パス 824" d="M46.822,48.172v4.655h2.589c.374-.928,1.863-1.41,3.863-.672,3.378,1.429,5.244,2.218,9.351.89V50.815a6.684,6.684,0,0,1-5.371-2.364c-2.966-2.934-7.985-2.155-10.432-.279" transform="translate(183.545 2617.852)" fill="#1a1311"/>
    <path id="パス_825" data-name="パス 825" d="M25.395,48.545H23.8c-.158.985-.618,1.512-1.356,1.512-1.024,0-1.657-1.052-1.657-2.754s.634-2.763,1.641-2.763c.773,0,1.248.494,1.372,1.508h1.591A2.8,2.8,0,0,0,22.432,43.2c-2.057,0-3.305,1.55-3.305,4.1s1.248,4.078,3.321,4.078a2.8,2.8,0,0,0,2.947-2.836" transform="translate(123.481 2610.692)" fill="#c00065"/>
    <path id="パス_826" data-name="パス 826" d="M26.872,43.264v7.779H25.247V47.56H22.969v3.482H21.327V43.264h1.641v3h2.278v-3Z" transform="translate(128.253 2610.826)" fill="#c00065"/>
    <rect id="長方形_406" data-name="長方形 406" width="1.641" height="7.779" transform="translate(156.342 2654.094)" fill="#c00065"/>
    <path id="パス_827" data-name="パス 827" d="M29.959,43.264v7.779H28.47l-2.041-3.679c-.2-.393-.425-.913-.491-1.093.016.5.051.634.051,1.233v3.54H24.357V43.264h1.458l2.057,3.707a9.226,9.226,0,0,1,.513,1.1c-.032-.466-.032-.707-.032-1.277v-3.53Z" transform="translate(134.824 2610.827)" fill="#c00065"/>
    <path id="パス_828" data-name="パス 828" d="M31.487,43.264H26.5v7.779h4.984V49.712h-3.34V47.56h2.982v-1.3H28.147V44.575h3.34Z" transform="translate(139.478 2610.826)" fill="#c00065"/>
    <path id="パス_829" data-name="パス 829" d="M33.89,45.676v-.044c0-1.54-.992-2.43-2.671-2.43s-2.792.963-2.792,2.358c0,1.024.567,1.657,1.952,2.139l1.03.38c.634.238.957.529.957,1.014a1.077,1.077,0,0,1-1.2.97c-.859,0-1.268-.453-1.268-1.378H28.221v.2c0,1.569,1.1,2.494,2.912,2.494,1.714,0,2.89-.989,2.89-2.443,0-1.077-.58-1.727-2.031-2.224l-1.014-.352c-.618-.225-.909-.5-.909-.96,0-.52.482-.862,1.1-.862a1.073,1.073,0,0,1,1.182,1.093v.044Z" transform="translate(143.204 2610.69)" fill="#c00065"/>
    <path id="パス_830" data-name="パス 830" d="M35.315,43.264H30.28v7.779h5.035V49.712H31.909V47.56h3v-1.3h-3V44.575h3.406Z" transform="translate(147.67 2610.826)" fill="#c00065"/>
    <path id="パス_831" data-name="パス 831" d="M33.075,43.263h2.377c2.037,0,3,.764,3,2.282a1.886,1.886,0,0,1-1.182,1.847c.913.282,1.131.678,1.131,1.968v.352a3.914,3.914,0,0,0,.155,1.334H36.839a2.212,2.212,0,0,1-.082-.716c0-.146,0-.361.016-.684v-.326c0-1.03-.358-1.353-1.54-1.353H34.7v3.08H33.075ZM34.7,44.575v2.088h.6c1.115,0,1.508-.285,1.508-1.068,0-.745-.393-1.02-1.575-1.02H34.7" transform="translate(153.731 2610.824)" fill="#c00065"/>
    <path id="パス_832" data-name="パス 832" d="M40.092,43.264h-5v7.779h5V49.712H36.721V47.56H39.7v-1.3H36.721V44.575h3.372Z" transform="translate(158.099 2610.826)" fill="#c00065"/>
    <path id="パス_833" data-name="パス 833" d="M42.5,45.676v-.044c0-1.54-.976-2.43-2.655-2.43s-2.808.963-2.808,2.358c0,1.024.583,1.657,1.952,2.139l1.03.38c.634.238.941.529.941,1.014a1.056,1.056,0,0,1-1.166.97c-.875,0-1.264-.453-1.264-1.378H36.819v.2c0,1.569,1.1,2.494,2.928,2.494,1.73,0,2.874-.989,2.874-2.443,0-1.077-.542-1.727-2.015-2.224l-1.014-.352c-.618-.225-.89-.5-.89-.96,0-.52.463-.862,1.1-.862a1.047,1.047,0,0,1,1.15,1.093v.044Z" transform="translate(161.851 2610.69)" fill="#c00065"/>
    <path id="パス_834" data-name="パス 834" d="M44.112,43.264v1.312H42.194v6.467H40.566V44.575H38.683V43.264Z" transform="translate(165.895 2610.826)" fill="#c00065"/>
    <path id="パス_835" data-name="パス 835" d="M44.345,43.263l2.275,7.789H44.906l-.428-1.638h-2.1l-.444,1.638h-1.7l2.24-7.789Zm-.19,4.858L43.73,46.5c-.092-.336-.209-1.043-.311-1.445a10.2,10.2,0,0,1-.314,1.461l-.425,1.6h1.473" transform="translate(169.26 2610.824)" fill="#c00065"/>
    <path id="パス_836" data-name="パス 836" d="M47.821,43.264H46.18v5.1c0,1.138-.276,1.559-1.065,1.559s-1.081-.421-1.081-1.559v-5.1H42.428v5.1c0,2.006.821,2.88,2.738,2.88,1.832,0,2.655-.919,2.655-2.88Z" transform="translate(174.016 2610.827)" fill="#c00065"/>
    <path id="パス_837" data-name="パス 837" d="M44.477,43.263h2.4c2.05,0,3.029.764,3.029,2.282a1.922,1.922,0,0,1-1.214,1.847c.906.282,1.125.678,1.125,1.968v.352a4,4,0,0,0,.155,1.334h-1.7a1.783,1.783,0,0,1-.086-.716V49.318c0-1.03-.358-1.353-1.54-1.353H46.1v3.08H44.477ZM46.1,44.575v2.088h.6c1.131,0,1.524-.285,1.524-1.068,0-.745-.393-1.02-1.575-1.02H46.1" transform="translate(178.459 2610.824)" fill="#c00065"/>
    <path id="パス_838" data-name="パス 838" d="M50.464,43.263l2.275,7.789H51.025l-.409-1.638H48.477l-.428,1.638h-1.73l2.3-7.789Zm-.19,4.858L49.849,46.5a10.931,10.931,0,0,1-.311-1.445c-.1.5-.171.906-.33,1.461l-.393,1.6h1.458" transform="translate(182.454 2610.824)" fill="#c00065"/>
    <path id="パス_841" data-name="パス 841" d="M79.711,48.025c3.612,1.036,4.37.13,5.051-.453a4.844,4.844,0,0,1-4.519-1.312C78.427,44.428,71.8,38.9,64.935,37.847c5.086-1.378,5.735-4.341,5.393-5.175-.976,1.518-4.078,1.176-5.463.833-1.847-.466-11.354-.773-15.891,5.4a36.681,36.681,0,0,1-4.693,4.984c8.134-2.487,15.6-2.487,26.047.824,2.364.764,3.647,1.2,5.311,1.9,1.641.631,2.358.767,4.072,1.41" transform="translate(178.034 2587.855)" fill="#00286e"/>
    <path id="パス_842" data-name="パス 842" d="M40.861,43.159c1.556-.1,4.845,0,6.677,1.825,3.463,3.5,6.768,5.254,12.57,5.251,1.882,0,2.481-.108,3.989,2.05.307-5.187-2.022-6.556-4.42-7.843,6.033,2.671,19.488,5.846,30.737-2.9a15.633,15.633,0,0,1-5.922-.925C79,38.979,76.874,37.563,66.325,36.286c-7.792-.545-15.432.963-17.248,2.072-1.35.913-6.486,4.525-8.217,4.8" transform="translate(170.617 2595.443)" fill="#00286e"/>
    <path id="パス_843" data-name="パス 843" d="M53.347,18.373c-3.34,1.429-6.3,2.785-7.618,3.422C41.411,23.83,21.105,35,21.137,60.66c.019,25.778,21.354,42.987,42.949,42.952,21.538-.006,42.99-17.19,42.959-42.952C107.01,40.393,94.05,29,87.83,24.831c-1.125-.729-2.24-1.382-3.555-2.117-3.086-1.575-7.551-3.663-10.821-5.238-3.257-1.5-5.621-2.8-6.8-4.728.551,2.028.326,3.391-1.229,5.764-.478.7-2.209,3.048-2.535,3.429a97.891,97.891,0,0,0-9.7,14.51c-3.147,5.758-4.753,10.048-5.444,14.307a34.722,34.722,0,0,0-.168,11.376,25.856,25.856,0,0,0,2.64,8.02,29.437,29.437,0,0,0,3.955,5.368,16.1,16.1,0,0,1-5.156-4.186,24.4,24.4,0,0,1-4.161-8.055,26.964,26.964,0,0,1-1.081-12.425,37.609,37.609,0,0,1,2.262-9.034c1.248-3.175,2.326-5.32,2.789-6.246a69.734,69.734,0,0,1,6.886-10.565c1.058-1.508,3.321-4.189,5.685-7.193,2.342-2.811,3.7-4.683,2.259-8.521-.209,3.5-5.514,6.778-10.308,9.075" transform="translate(127.841 2537.163)" fill="#c00065"/>
    <path id="パス_844" data-name="パス 844" d="M17.407,47.96c-3.6,1.065-4.313.146-5.035-.437a4.8,4.8,0,0,0,4.538-1.334c1.8-1.809,8.391-7.32,15.292-8.419-5.086-1.366-5.7-4.344-5.377-5.162.957,1.534,4.078,1.176,5.428.818,1.885-.437,11.385-.742,15.923,5.444a35.338,35.338,0,0,0,4.7,4.975c-8.134-2.522-15.635-2.522-26.047.827-2.342.773-3.666,1.188-5.3,1.882-1.667.627-2.383.8-4.113,1.407" transform="translate(108.832 2587.714)" fill="#18542e"/>
    <path id="パス_845" data-name="パス 845" d="M62.473,43.1c-1.556-.117-4.813,0-6.677,1.832-3.479,3.486-6.746,5.247-12.555,5.216-1.9.032-2.481-.044-3.986,2.11-.311-5.241,2-6.566,4.417-7.874-6.049,2.7-19.5,5.859-30.74-2.9a15.521,15.521,0,0,0,5.91-.906c5.517-1.641,7.64-3.058,18.166-4.348,7.808-.548,15.416.976,17.248,2.088,1.331.925,6.5,4.522,8.217,4.785" transform="translate(110.048 2595.308)" fill="#18542e"/>
    <rect id="長方形_407" data-name="長方形 407" width="220" height="220.003" transform="translate(82 2516.999)" fill="none"/>
  </g>
</svg>
