<svg xmlns="http://www.w3.org/2000/svg" xmlns:xlink="http://www.w3.org/1999/xlink" width="240" height="146.126" viewBox="0 0 240 146.126">
  <defs>
    <clipPath id="clip-path">
      <rect id="長方形_449" data-name="長方形 449" width="240" height="146.126" fill="none"/>
    </clipPath>
  </defs>
  <g id="グループ_1326" data-name="グループ 1326" transform="translate(-172 -4016)">
    <g id="グループ_563" data-name="グループ 563" transform="translate(172 4016)">
      <g id="グループ_314" data-name="グループ 314" transform="translate(0 0)" clip-path="url(#clip-path)">
        <path id="パス_1221" data-name="パス 1221" d="M35.15,21.4c-46.868,28.53-46.868,74.791,0,103.33,46.849,28.525,122.827,28.525,169.714,0,46.845-28.54,46.845-74.8,0-103.33C157.977-7.135,82-7.135,35.15,21.4" transform="translate(-0.003 0)" fill="#fff" fill-rule="evenodd"/>
        <path id="パス_1222" data-name="パス 1222" d="M35.074,21.237c-46.531,27.771-46.531,72.811,0,100.582s121.982,27.78,168.513,0c46.55-27.771,46.55-72.811,0-100.582-46.531-27.771-121.968-27.771-168.513,0" transform="translate(0.658 1.534)" fill="#fff" fill-rule="evenodd"/>
        <path id="パス_1223" data-name="パス 1223" d="M34.767,20.936c-45.107,26.337-45.107,69.075,0,95.412,45.126,26.356,118.293,26.356,163.42,0,45.126-26.337,45.126-69.075,0-95.412s-118.293-26.342-163.42,0" transform="translate(3.509 4.418)" fill="#d4142d" fill-rule="evenodd"/>
        <path id="パス_1224" data-name="パス 1224" d="M59.792,60.882h-.128a.43.43,0,0,1-.171-.123.324.324,0,0,1-.076-.138L59.4,55.228c0-.214,0-.38.019-.6a4.047,4.047,0,0,1,.1-.522,5.036,5.036,0,0,1,.337-.769A4.984,4.984,0,0,1,60.4,52.6a3.421,3.421,0,0,1,.617-.527c.171-.095.356-.185.546-.271l.375-.142c.109-.066.261-.123.37-.195a1.541,1.541,0,0,0,.731-.793,1.488,1.488,0,0,0,.114-1.03,1.153,1.153,0,0,0-.095-.342,1.946,1.946,0,0,0-.2-.332l-.28-.494a.123.123,0,0,1,.038-.09c.014-.038.033-.052.052-.057a.321.321,0,0,1,.19,0,.487.487,0,0,1,.223.057,2.137,2.137,0,0,1,.38.119c.166.076.337.142.517.2a2.686,2.686,0,0,0,.712.176,4,4,0,0,0,1.405.019,4.515,4.515,0,0,0,1.272-.361,3.887,3.887,0,0,0,.717-.441l.2-.147c.389-.261.788-.522,1.2-.76.337-.233.693-.451,1.049-.65a14.422,14.422,0,0,1,6.347-1.756l.3-.019-.636,1.3a14.666,14.666,0,0,1-.8,1.462,26.84,26.84,0,0,1-1.8,2.649,25.017,25.017,0,0,1-2,2.317c-.574.617-1.192,1.192-1.832,1.771-.826.745-1.685,1.438-2.568,2.112a37.006,37.006,0,0,1-6.893,4.083Zm47.21-5.4v-.465a6.164,6.164,0,0,1,.09-1.144,8.07,8.07,0,0,1,.228-1.016,2.469,2.469,0,0,1,.128-.479,2.294,2.294,0,0,1,.508-.817,2.473,2.473,0,0,1,.522-.385c.119-.062.228-.128.337-.185a.785.785,0,0,0,.209-.133,1.312,1.312,0,0,0,.2-.223,1.809,1.809,0,0,0,.3-.56,1.047,1.047,0,0,0,.081-.351,1.707,1.707,0,0,0-.157-.7,1.032,1.032,0,0,0-.185-.318c-.095-.076-.152-.161-.242-.247-.427-.28-.883-.57-1.348-.835-.394-.242-.774-.475-1.182-.684a17.85,17.85,0,0,0-7.23-2c-.451-.038-.921-.062-1.367-.076l-.356-.019a7.853,7.853,0,0,0-.9.085,5.675,5.675,0,0,0-1.082.185,6.339,6.339,0,0,0-1.315.456,2.362,2.362,0,0,0-.337.128,1.617,1.617,0,0,0-.427.332,1.7,1.7,0,0,0-.247.408,3.569,3.569,0,0,0-.09.4,2.187,2.187,0,0,0,0,.5.671.671,0,0,0,.109.318,2.346,2.346,0,0,0,.19.356,3.488,3.488,0,0,0,.432.693,4.3,4.3,0,0,0,.465.6c.171.195.318.432.47.631a13.119,13.119,0,0,1,.636,1.149,9.084,9.084,0,0,1,.522,1.543,10.783,10.783,0,0,1,.171,1.305,4.745,4.745,0,0,1-.038.513,5.429,5.429,0,0,1-.043.679c-.446.019-.911.033-1.362.057a19.22,19.22,0,0,1-2.155-.057,20.9,20.9,0,0,1-3.076-.394c-.465-.085-.911-.18-1.362-.285a.9.9,0,0,0-.541-.114c-.266-.081-.527-.166-.807-.271-.242-.1-.47-.214-.712-.318a6.829,6.829,0,0,1-1.3-.921c-.2-.195-.427-.427-.617-.655l-.09-.109,1.082-1.51c.475-.65.9-1.324,1.329-2a40.407,40.407,0,0,0,2.369-4.382l.631-1.381,2.3-.214,2.957-.323,2.084-.256,1.139-.147c.413-.047.769-.071,1.149-.109a16.22,16.22,0,0,1,4.23.356,15.8,15.8,0,0,1,2.364.679l1.082.37c.693.233,1.386.446,2.1.622.674.161,1.31.318,2,.475l1.073.252c.147.028.275.052.427.071a2.858,2.858,0,0,0,1.182-.128,3,3,0,0,0,.731-.337,2.529,2.529,0,0,0,.446-.375,3.419,3.419,0,0,0,.427-.441c.062-.095.138-.157.195-.261s.142-.18.223-.271a.621.621,0,0,0,.128-.171.548.548,0,0,1,.076-.095c0,.019.019.028.038.057a.831.831,0,0,1,.095.09,2.928,2.928,0,0,1,.3.456,4.482,4.482,0,0,1,.2.46c.057.157.119.3.171.475.128.375.247.731.356,1.106.09.356.185.712.247,1.082a9.844,9.844,0,0,1,.052,2.563c-.033.437-.114.888-.19,1.315a17.253,17.253,0,0,1-.854,3.252c-.1.261-.209.555-.318.826s-.209.532-.342.8a.858.858,0,0,1-.133.161.637.637,0,0,1-.408.195l-2.079.119c-1.182.062-2.321.114-3.484.1-.807-.014-1.614-.038-2.416-.057m-.413,15.1v-2.34c.019-.916.057-1.832.095-2.73.038-.565.052-1.116.09-1.685l4.662-.228c-.18.413-.408.817-.617,1.23-.218.456-.484.9-.745,1.339a21.938,21.938,0,0,1-1.842,2.587c-.275.342-.555.674-.854,1l-.731.812c0,.014-.019.014-.057.014M15.606,41.95a4.294,4.294,0,0,0,.451.375,3.516,3.516,0,0,0,.693.4,3.556,3.556,0,0,0,1.1.3,3.865,3.865,0,0,0,3.076-.916c.147-.142.275-.266.432-.413.218-.237.446-.489.655-.722a9.7,9.7,0,0,0,.6-.8,8.117,8.117,0,0,0,.394-.712,4.01,4.01,0,0,0,.28-.551,5.052,5.052,0,0,0,.285-.845,5.359,5.359,0,0,0,.109-1.049,5.444,5.444,0,0,0-.508-2.317c-.109-.218-.223-.413-.337-.6s-.266-.389-.413-.574a9.308,9.308,0,0,0-.992-1.144c-.337-.318-.674-.655-1.049-.964a14.023,14.023,0,0,0-5.227-2.62,14.707,14.707,0,0,0-2.829-.422,13.052,13.052,0,0,0-2.506.123A12.37,12.37,0,0,0,6.9,29.28c-.356.147-.726.3-1.082.456a2.394,2.394,0,0,0-.247.161c-.071.071-.152.128-.228.214a.787.787,0,0,0-.128.342.906.906,0,0,0,0,.527.821.821,0,0,0,.128.3c.076.071.157.147.228.223l1.875,1.571c.593.513,1.2,1.059,1.794,1.6a53.976,53.976,0,0,1,4.552,4.942c.413.527.821,1.049,1.215,1.576a1.576,1.576,0,0,0,.6.76m88.847,30.989-1.405,1.519c-.489.517-1.011,1.025-1.5,1.519-.992.935-2,1.847-3.052,2.7-.807.641-1.609,1.234-2.454,1.832-1.144.831-2.345,1.59-3.556,2.317-.94.57-1.913,1.106-2.905,1.619-1.13.565-2.25,1.092-3.432,1.557l-1.248.494c-.081.071-.157.133-.228.19a.715.715,0,0,0-.209.2.791.791,0,0,0-.147.37.812.812,0,0,0-.019.37.747.747,0,0,0,.128.285.606.606,0,0,0,.209.161.773.773,0,0,0,.247.142,3.13,3.13,0,0,0,.631.313,5.41,5.41,0,0,0,1.239.427,6.957,6.957,0,0,0,1.31.128h.228c.389,0,.783,0,1.158-.033.432-.024.878-.057,1.31-.123a12.885,12.885,0,0,0,1.984-.4c.617-.142,1.239-.313,1.837-.5s1.182-.413,1.761-.646c.6-.218,1.2-.46,1.766-.7a58.56,58.56,0,0,0,9.589-5.189c1.419-.945,2.768-1.965,4.078-3.033.546-.451,1.068-.9,1.6-1.377,1.144-1.011,2.212-2.06,3.28-3.171,1.272-1.367,2.468-2.768,3.594-4.22.641-.821,1.22-1.619,1.8-2.478a46.846,46.846,0,0,0,2.677-4.363c.451-.033.916-.062,1.391-.1a34.964,34.964,0,0,1,5.654.223,15.592,15.592,0,0,1,1.761.342,16.09,16.09,0,0,1,1.856.551c.693.256,1.348.527,1.984.831l.8.408c.318.142.655.271.992.413a13.135,13.135,0,0,0,1.842.527c.209.047.408.085.636.119a1.845,1.845,0,0,0,.465.043,2.108,2.108,0,0,0,.6-.043,2.8,2.8,0,0,0,.793-.252,3.348,3.348,0,0,0,.859-.513,2.938,2.938,0,0,0,.508-.546,3.774,3.774,0,0,0,.5-.888,4.3,4.3,0,0,0,.171-.845c0-.19,0-.375-.019-.57a3.8,3.8,0,0,0-.209-.854,5.187,5.187,0,0,0-.28-.76c-.128-.242-.266-.494-.394-.741-.09-.176-.209-.361-.318-.546a12.1,12.1,0,0,0-.992-1.443,9.668,9.668,0,0,0-1.1-1.215,9.992,9.992,0,0,0-1.894-1.453,11.74,11.74,0,0,0-1.068-.593c-.3-.157-.6-.313-.921-.456a7.891,7.891,0,0,0-2.074-.593,7.992,7.992,0,0,0-2.4-.024l-.356.043-2.806.394c-.674.09-1.358.233-2.046.351l.788-1.78c.2-.5.394-.983.555-1.5l.209-.546a.949.949,0,0,1,.138-.256,1.714,1.714,0,0,1,.484-.494,1.218,1.218,0,0,1,.546-.195.827.827,0,0,0,.18-.047c.247-.043.494-.109.731-.166.4-.076.793-.133,1.182-.19a1.7,1.7,0,0,0,.3-.09,1.237,1.237,0,0,0,.356-.19.884.884,0,0,0,.266-.266,2.073,2.073,0,0,0,.318-.593,1.583,1.583,0,0,0,.019-.294,1.47,1.47,0,0,0-.038-.3,2.615,2.615,0,0,0-.1-.366.842.842,0,0,0-.161-.318.924.924,0,0,0-.209-.294,1.053,1.053,0,0,0-.356-.513c-.128-.166-.285-.342-.432-.522-.19-.209-.37-.389-.541-.579l-1.533-1.158c-.437-.313-.883-.631-1.329-.921a22.094,22.094,0,0,0-2.777-1.571,23.832,23.832,0,0,0-5.958-1.9c-.527-.1-1.049-.18-1.59-.266l-.769-.123c-.228,0-.427-.019-.617-.019-.209.019-.394.038-.622.066a5.466,5.466,0,0,0-1.1.342c-.19.1-.375.209-.584.337a3.355,3.355,0,0,0-.351.261l-.038-.123c-.318-.418-.6-.816-.921-1.234-.242-.323-.527-.641-.764-.959-.28-.323-.565-.627-.864-.921a13.861,13.861,0,0,0-1.514-1.263,17.652,17.652,0,0,0-1.8-1.144c-.66-.347-1.334-.66-2.008-.945-.408-.147-.821-.309-1.253-.441a7.76,7.76,0,0,0-1.239-.318,8.673,8.673,0,0,0-1.514-.18,7.188,7.188,0,0,0-1.011,0,12.213,12.213,0,0,0-1.391.142c-.275.057-.522.1-.783.161l-.337.09-1.6.541c-.517.133-1.03.29-1.548.413-.978.247-1.97.441-2.981.6-.527.076-1.054.133-1.59.195l-.119,0c.062-.375.152-.745.228-1.154.152-.622.3-1.277.465-1.908l.489-1.889c.076-.123.128-.261.19-.385a4.3,4.3,0,0,1,.337-.46,2.588,2.588,0,0,1,.84-.655c.128-.057.285-.123.432-.18a3.946,3.946,0,0,0,.37-.19,2.716,2.716,0,0,0,.38-.237l.318-.176a1.89,1.89,0,0,0,.622-.693,1.394,1.394,0,0,0,.166-.65,1.826,1.826,0,0,0-.057-.46,1.613,1.613,0,0,0-.228-.57.962.962,0,0,0-.337-.342l-1.31-.94a13.912,13.912,0,0,0-1.2-.769,23.051,23.051,0,0,0-2.981-1.552c-.6-.247-1.2-.479-1.813-.674-.475-.152-.959-.318-1.424-.46s-.9-.294-1.329-.418c-.755-.2-1.538-.38-2.3-.517a24.268,24.268,0,0,0-3.209-.332c-.408,0-.826-.019-1.215-.019a1.077,1.077,0,0,0-.356.057,1.775,1.775,0,0,0-.84.385,1.845,1.845,0,0,0-.508.508,2.378,2.378,0,0,0-.413,1.619,3.3,3.3,0,0,0,.109.565,6.09,6.09,0,0,0,.731,1.861c.171.309.318.627.489.926.133.294.285.584.394.883a9.429,9.429,0,0,1,.636,2.725,7.379,7.379,0,0,1,.057.907v.94c0,.679-.038,1.367-.076,2.051a33.03,33.03,0,0,1-.489,3.66l-2.62.19c-1.386.09-2.772.142-4.173.166-1.557.019-3.133.019-4.685-.024-.935-.043-1.856-.066-2.772-.123l-.731-.019a8.452,8.452,0,0,0-.973-.133c-.266-.057-.527-.1-.788-.161a7.2,7.2,0,0,1-1.571-.555,8.949,8.949,0,0,1-1.747-1.073,11.481,11.481,0,0,1-1.087-.992c-.052-.043-.109-.123-.166-.166a1.143,1.143,0,0,0-.318-.171.858.858,0,0,0-.356-.1,1.479,1.479,0,0,0-.788.047,1.409,1.409,0,0,0-.427.266,1.216,1.216,0,0,0-.394.446.609.609,0,0,0-.1.228c-.033.1-.071.233-.109.337-.057.2-.09.427-.147.622a3.526,3.526,0,0,0-.038.631v.285c.038.427.095.854.166,1.291.057.4.128.774.209,1.168a16.766,16.766,0,0,0,1.068,3.28c.171.323.318.66.484.973s.3.612.47.935c.057.095.109.2.166.275a1.612,1.612,0,0,1,.152.517l.038.123h-.038l-.152-.1c-.2-.109-.413-.214-.617-.342-.185-.1-.413-.214-.617-.332-.19-.095-.38-.166-.579-.252a6.754,6.754,0,0,0-1.6-.389,7.416,7.416,0,0,0-2.677.2c-.261.062-.508.142-.783.209-.418.1-.812.195-1.22.3s-.745.161-1.163.247a14.933,14.933,0,0,1-4.529,0,7.38,7.38,0,0,1-1.092-.18l-.228-.019c-.009-.033-.038-.033-.038-.057V43.8c.028-.019.028-.038.038-.076l2.065-2.207a124.683,124.683,0,0,0,9.143-11.208l1.286-1.752c.6-.85,1.2-1.737,1.747-2.639.6-.94,1.158-1.9,1.7-2.886.821-1.562,1.614-3.157,2.321-4.776.465-1.059.883-2.141,1.277-3.242l.446-1.291a.848.848,0,0,1,.057-.19.641.641,0,0,0-.038-.38,1.24,1.24,0,0,0-.109-.332,1.575,1.575,0,0,0-.247-.361.688.688,0,0,0-.28-.214c-.076-.028-.185-.066-.266-.1s-.166-.047-.275-.085a2.137,2.137,0,0,0-.247,0,1.966,1.966,0,0,0-.408.123,1.237,1.237,0,0,0-.489.3.692.692,0,0,0-.114.157l-2.037,2.468c-1.97,2.355-4.011,4.657-6.11,6.869-1.576,1.671-3.162,3.3-4.814,4.927-.736.7-1.462,1.381-2.212,2.074L42.636,31.6c-.394.375-.807.712-1.2,1.082-.812.693-1.614,1.367-2.459,2.037-.821.627-1.647,1.239-2.45,1.842a80.425,80.425,0,0,1-6.874,4.42c-1.187.655-2.4,1.267-3.6,1.837-.75.366-1.5.745-2.25,1.125a8.5,8.5,0,0,1-1.139.456,11.987,11.987,0,0,1-1.2.332c-.427.085-.859.142-1.258.2-.3.043-.56.085-.84.1a10.89,10.89,0,0,1-1.106-.019c-.285-.024-.541-.076-.821-.109a15.407,15.407,0,0,1-1.761-.394c-.413-.142-.845-.313-1.253-.5-.228-.119-.489-.242-.731-.385l-.361-.195c-.076-.038-.185-.066-.275-.1a1.788,1.788,0,0,0-1.011-.014,1.806,1.806,0,0,0-.864.665A.812.812,0,0,0,11,44.3a1.609,1.609,0,0,0-.095.332v.5c.095.4.19.793.285,1.2.109.375.228.741.356,1.116a13.514,13.514,0,0,0,1.044,2.4,17.227,17.227,0,0,0,1.068,1.809,13.985,13.985,0,0,0,.973,1.244c.3.361.622.736.94,1.059a17.733,17.733,0,0,0,1.946,1.828,20.5,20.5,0,0,0,3.133,2.155l.655.375c.275.171.574.318.859.465.261.123.546.261.826.366a10.837,10.837,0,0,0,1.666.5,11.059,11.059,0,0,0,2.022.195,3.79,3.79,0,0,0,.731-.052,1.862,1.862,0,0,0,.527-.176,1.479,1.479,0,0,0,.593-.446,2.115,2.115,0,0,0,.342-.532,1.656,1.656,0,0,1,.095-.337c.052-.209.109-.385.161-.6.062-.18.119-.385.195-.6a5.213,5.213,0,0,1,.655-1.258,5.953,5.953,0,0,1,.992-1.158c.209-.19.375-.347.565-.513l.256-.209,1.481-1.1c.883-.674,1.742-1.386,2.587-2.112.574-.5,1.139-1.011,1.7-1.538l.318-.28c.109.166.261.309.389.484a5.878,5.878,0,0,0,.641.646,4.163,4.163,0,0,0,.935.593,4.039,4.039,0,0,0,1.457.361,2.2,2.2,0,0,0,.3.014l2.44-.057c1.51-.062,3.014-.171,4.543-.294l1.652-.157-.038,1.5-1.552.313a33.1,33.1,0,0,1-3.313.422c-.9.062-1.8.1-2.7.095l-.84-.014c-.228-.024-.437-.057-.641-.081a3.726,3.726,0,0,1-.655-.152,3.085,3.085,0,0,1-.688-.318,3.57,3.57,0,0,1-.437-.3l-.313-.233a1.7,1.7,0,0,0-.38-.252,1.241,1.241,0,0,0-.337-.119,1.5,1.5,0,0,0-.413,0,1,1,0,0,0-.5.256.916.916,0,0,0-.285.413c-.033.09-.052.209-.095.323a2.907,2.907,0,0,0-.095.8,4.718,4.718,0,0,0,.038.736c.019.237.081.465.1.679a11.721,11.721,0,0,0,.674,2.279,10.261,10.261,0,0,0,.973,1.813,4.409,4.409,0,0,0,.541.641,3.362,3.362,0,0,0,.427.385,1.457,1.457,0,0,0,.318.147,1.2,1.2,0,0,0,.437.09,3.2,3.2,0,0,0,.517-.014,1.607,1.607,0,0,0,.4-.142l1.666-.446c.541-.147,1.068-.266,1.628-.37a30.118,30.118,0,0,1,5.151-.57l.356,0c0,.166.019.3.019.46,0,.237,0,.465-.019.693l-.038.536-1.557.28-2.378.337c-.674.076-1.329.157-2,.2-.56.062-1.12.095-1.685.114l-.446.024h-.788c-.242-.024-.465-.043-.712-.076a5.634,5.634,0,0,1-1.31-.389,4.111,4.111,0,0,1-1.049-.612,4.176,4.176,0,0,1-.546-.361,3.084,3.084,0,0,0-.356-.19,1.247,1.247,0,0,0-.446-.09,1.164,1.164,0,0,0-.807.385.889.889,0,0,0-.166.3,1.883,1.883,0,0,0-.114.275,3.3,3.3,0,0,0-.114.717,3.883,3.883,0,0,0,0,.665c.019.233.057.489.09.712.081.413.157.807.247,1.215a14.325,14.325,0,0,0,.636,2.16,9.307,9.307,0,0,0,.489,1.1,6.248,6.248,0,0,0,.375.627,3.251,3.251,0,0,0,.859.869,1.671,1.671,0,0,0,.318.161,2.025,2.025,0,0,0,.394.085,4.5,4.5,0,0,0,.508-.019,1.425,1.425,0,0,0,.389-.109c.076-.052.138-.057.176-.1.479-.166.973-.313,1.438-.484.408-.142.864-.271,1.291-.394a17.971,17.971,0,0,1,4.253-.584c.674,0,1.367,0,2.022.052.356.043.712.062,1.049.085V68.5a.905.905,0,0,0-.019.228,2.315,2.315,0,0,0,.1.375,2.564,2.564,0,0,0,.161.29,1.352,1.352,0,0,0,.176.233,1.423,1.423,0,0,0,.218.19c.119.062.247.1.356.157.119.019.228.066.337.085.337.095.674.161,1.011.242.337.047.674.076,1.016.095a7.678,7.678,0,0,0,1.685-.085,9.682,9.682,0,0,0,1.932-.513c.275-.138.574-.252.84-.4a4.895,4.895,0,0,0,.826-.57c.128-.123.237-.228.356-.356a2.954,2.954,0,0,0,.318-.622,1.972,1.972,0,0,0,.109-.446l.038-.185-.038-1.267,1.856-.4c.9-.195,1.78-.427,2.663-.693,1.248-.385,2.521-.831,3.741-1.329A43.869,43.869,0,0,0,72.6,61.337c.755-.4,1.486-.812,2.193-1.234.883-.527,1.742-1.082,2.568-1.661.522-.394,1.068-.783,1.6-1.2.465-.375.93-.76,1.4-1.135l.057-.009v.009c.019.418.057.835.09,1.277a9.5,9.5,0,0,0,.119,1.073,8.583,8.583,0,0,0,.356,1.557,11.888,11.888,0,0,0,.6,1.552,14.6,14.6,0,0,0,.75,1.491,18.865,18.865,0,0,0,1.158,1.771,7.033,7.033,0,0,0,.617.684,5.109,5.109,0,0,0,1.405,1.021,4.769,4.769,0,0,0,3.038.318,2.8,2.8,0,0,0,.56-.171l.394-.166c.394-.176.807-.356,1.234-.532.375-.142.755-.3,1.144-.437a17.914,17.914,0,0,1,3.745-.854.55.55,0,0,0,.318-.038l-.185,5.678c0,.1.019.228.019.332a1.419,1.419,0,0,0,.185.608,1.76,1.76,0,0,0,.28.47,2.71,2.71,0,0,0,.641.655,3.132,3.132,0,0,0,.821.375c.4.076.807.128,1.2.2.389.052.745.09,1.125.138a16.294,16.294,0,0,0,2.454-.009c.37-.038.745-.081,1.12-.147l.736-.123c.033-.019.071,0,.128.038a.229.229,0,0,0-.019.071M23.4,33.434a3.3,3.3,0,0,0,.337.432,2.462,2.462,0,0,0,.484.484,2.986,2.986,0,0,0,.75.479,4.288,4.288,0,0,0,1.571.413,4.076,4.076,0,0,0,1.054-.076,3.506,3.506,0,0,0,.783-.252c.209-.085.394-.157.584-.252a5.848,5.848,0,0,0,.821-.489,5.692,5.692,0,0,0,1.22-1.059,6.838,6.838,0,0,0,1.343-2.331,6.254,6.254,0,0,0-.128-4.111,5.677,5.677,0,0,0-.9-1.624,3.861,3.861,0,0,0-.527-.608,9.331,9.331,0,0,0-1.234-1.135c-.375-.285-.755-.551-1.144-.8a13.43,13.43,0,0,0-3.332-1.481,13.188,13.188,0,0,0-7.515.066,12.042,12.042,0,0,0-1.348.527,10.634,10.634,0,0,0-.992.46l-.5.256c-.081.085-.133.161-.228.247a1.355,1.355,0,0,0-.152.28,1.127,1.127,0,0,0-.09.423,1.292,1.292,0,0,0,.114.484.909.909,0,0,0,.185.233.58.58,0,0,0,.152.171l1.571,1.3c.489.437.992.85,1.462,1.305A34.179,34.179,0,0,1,22.423,32.1l.978,1.329M41.7,21.908c-.171-.271-.318-.536-.489-.816a6.062,6.062,0,0,0-.446-.688,9.422,9.422,0,0,0-2.625-2.269,8.209,8.209,0,0,0-2.772-.983,8.573,8.573,0,0,0-4.363.252c-.038.038-.095.057-.133.09a1.1,1.1,0,0,0-.261.29,1.117,1.117,0,0,0-.171.313.5.5,0,0,0-.076.233.741.741,0,0,0-.052.332.985.985,0,0,0,.109.408,1.043,1.043,0,0,0,.19.309,1.5,1.5,0,0,1,.109.133l1.6,1.88c1.4,1.7,2.73,3.437,3.969,5.236a2.226,2.226,0,0,1,.3.294,2.277,2.277,0,0,0,.916.5,2.485,2.485,0,0,0,1.011.1,2.779,2.779,0,0,0,.5-.114,3.677,3.677,0,0,0,.527-.2,6.689,6.689,0,0,0,.9-.546,4.167,4.167,0,0,0,1.533-3.1,4.573,4.573,0,0,0-.28-1.647m6.926-5.193c-.166-.252-.318-.494-.484-.726-.147-.214-.3-.432-.446-.627A7.409,7.409,0,0,0,46.6,14.308a9.165,9.165,0,0,0-1.23-.85,9.349,9.349,0,0,0-2.084-.854c-.3-.071-.622-.142-.916-.195a8.516,8.516,0,0,0-1.291-.109,8.991,8.991,0,0,0-1.239,0c-.209,0-.408.038-.6.047-.228.038-.413.085-.622.128a3.025,3.025,0,0,0-.579.294,1.247,1.247,0,0,0-.242.233,1.875,1.875,0,0,0-.2.356,1.717,1.717,0,0,0-.095.627.941.941,0,0,0,.185.513,1.039,1.039,0,0,0,.19.294,6.367,6.367,0,0,0,.546.608c.166.19.356.356.522.527.223.214.427.413.636.646a14.235,14.235,0,0,1,1.011,1.149c.337.408.636.831.935,1.253.318.408.622.85.921,1.267l.745,1.125a2.252,2.252,0,0,1,.247.285,2.381,2.381,0,0,0,.731.589,2.8,2.8,0,0,0,1.965.252,1.856,1.856,0,0,0,.446-.142,4.278,4.278,0,0,0,1.13-.608,4.392,4.392,0,0,0,1.044-1.182,3.586,3.586,0,0,0,.451-2.112,3.915,3.915,0,0,0-.166-.907,3.634,3.634,0,0,0-.285-.579,1.387,1.387,0,0,1-.133-.252M147.856,38.57a3.6,3.6,0,0,0,.3.422,2.553,2.553,0,0,0,.465.517,3.543,3.543,0,0,0,.831.517,3.424,3.424,0,0,0,.968.275,3.724,3.724,0,0,0,.978.024,2.532,2.532,0,0,0,.522-.1,2.958,2.958,0,0,0,.508-.2c.237-.1.484-.2.712-.328a9.967,9.967,0,0,0,.911-.508,6.408,6.408,0,0,0,1.163-.945,6.669,6.669,0,0,0,1-1.215,7.292,7.292,0,0,0,.826-6,7.642,7.642,0,0,0-.266-.731,7.261,7.261,0,0,0-1.011-1.676,5.049,5.049,0,0,0-.655-.736,10.889,10.889,0,0,0-1.59-1.343,10.587,10.587,0,0,0-3.916-1.6,8.17,8.17,0,0,0-1.22-.157c-.375-.038-.731-.071-1.106-.076a17.566,17.566,0,0,0-3.238.214,12.717,12.717,0,0,0-2.359.627c-.337.123-.674.266-1.011.413-.318.133-.641.275-.959.432-.071.038-.147.1-.223.147a1.02,1.02,0,0,0-.223.3.96.96,0,0,0-.119.309,2.331,2.331,0,0,0-.033.294.556.556,0,0,0,0,.252,1.088,1.088,0,0,0,.071.209.694.694,0,0,0,.119.2c.038.081.071.142.109.209a.331.331,0,0,0,.152.128.22.22,0,0,0,.147.081l1.424,1.32c.432.385.826.779,1.22,1.182a32.077,32.077,0,0,1,4.552,5.9c.318.532.655,1.092.954,1.638m42.259-17.816-1.742,1.956c-1.087,1.2-2.193,2.34-3.356,3.484-.65.655-1.324,1.3-2,1.937a90.351,90.351,0,0,1-7.306,6.176c-1.082.859-2.231,1.7-3.37,2.5-1.049.717-2.093,1.438-3.147,2.127-1.514.964-3.033,1.9-4.59,2.787-.9.527-1.794,1.006-2.715,1.491l-2.378,1.22-1.647.85c-.337.166-.655.309-.992.451-.228.085-.451.176-.674.242a12.371,12.371,0,0,1-2.041.517c-.394.052-.783.109-1.182.152a12.5,12.5,0,0,1-2.924-.1,11.983,11.983,0,0,1-2.131-.494,9.712,9.712,0,0,1-1.405-.584c-.356-.166-.7-.342-1.03-.532s-.679-.375-1.016-.56c-.076-.066-.147-.133-.218-.19-.1-.033-.195-.09-.285-.109a1.2,1.2,0,0,0-.408-.028,1.368,1.368,0,0,0-.959.541.957.957,0,0,0-.171.323,1.268,1.268,0,0,1-.071.2,2.909,2.909,0,0,0-.114.579c-.033.18-.033.361-.062.536,0,.266-.014.517-.014.779a7.672,7.672,0,0,0,.043.987A8.236,8.236,0,0,0,142.349,49a3.557,3.557,0,0,0,.223.731c.057.233.147.465.223.7.171.46.356.93.565,1.391a16.539,16.539,0,0,0,3.313,4.861c.565.593,1.144,1.163,1.723,1.714a20.625,20.625,0,0,0,2.758,2.141,27.37,27.37,0,0,0,2.677,1.381c.389.166.8.337,1.211.5l.418.171a3.842,3.842,0,0,0,.394.076,2.394,2.394,0,0,0,1.1-.057,2.8,2.8,0,0,0,1.367-.883.41.41,0,0,0,.152-.233,1.416,1.416,0,0,0,.3-.617c.038-.081.038-.18.076-.29l.057-.366a1.935,1.935,0,0,1,.114-.5,2.715,2.715,0,0,1,.427-.892,4.09,4.09,0,0,1,.693-.736c.076-.057.171-.109.247-.166l2.3-1.642c1.177-.816,2.326-1.666,3.446-2.535q2.385-1.858,4.681-3.793c1.481-1.263,2.962-2.568,4.367-3.9,1.215-1.135,2.416-2.274,3.579-3.427.579-.57,1.125-1.135,1.685-1.723a56.529,56.529,0,0,0,3.893-4.638,53.013,53.013,0,0,0,3.413-5.141c.617-1.03,1.158-2.093,1.685-3.166l.845-1.728c.166-.332.318-.641.465-.968.266-.584.484-1.2.712-1.828.133-.441.261-.888.375-1.329l.133-.446a2.18,2.18,0,0,0,.019-.356,1.283,1.283,0,0,0-.038-.275.706.706,0,0,0-.228-.361,1.239,1.239,0,0,0-.318-.228,1.274,1.274,0,0,0-.56-.076.921.921,0,0,0-.375.123.831.831,0,0,0-.228.161c-.057.024-.09.071-.128.09" transform="translate(19.375 45.149)" fill="#3d3942" fill-rule="evenodd"/>
        <path id="パス_1225" data-name="パス 1225" d="M9.044,12.456l1.894-1.6,8.44,10.32-1.946,1.6ZM6.457,11.15a2.235,2.235,0,0,0-.337,3.014l8.991,10.994a2.113,2.113,0,0,0,2.919.361l3.693-3.076a2.153,2.153,0,0,0,.332-2.905L12.974,8.4A1.992,1.992,0,0,0,10.2,8.032L6.457,11.15" transform="translate(21.295 28.563)" fill="#fcfdfd" fill-rule="evenodd"/>
        <path id="パス_1226" data-name="パス 1226" d="M18.221,24.506l1.894-.821a.631.631,0,0,0,.28-.826l-3.2-6.67,3.636-1.59a.614.614,0,0,0,.3-.817l-.674-1.405a.677.677,0,0,0-.864-.294L15.97,13.659,13.72,9l3.736-1.633a.614.614,0,0,0,.237-.793l-.612-1.277a.68.68,0,0,0-.845-.3l-4.8,2.093a2.063,2.063,0,0,0-1.03,2.763l6.95,14.36a.643.643,0,0,0,.864.3" transform="translate(38.246 18.522)" fill="#fcfdfd" fill-rule="evenodd"/>
        <path id="パス_1227" data-name="パス 1227" d="M25.591,20.853l-.484-1.334a.648.648,0,0,0-.807-.389L20.644,20.34l-1.818-5.051,3.821-1.263a.575.575,0,0,0,.337-.76l-.517-1.5a.675.675,0,0,0-.793-.38L17.9,12.65l-1.652-4.7,3.836-1.272a.611.611,0,0,0,.356-.8l-.5-1.453a.688.688,0,0,0-.845-.342l-5.108,1.69a2.026,2.026,0,0,0-1.31,2.568l4.809,13.676a2.2,2.2,0,0,0,2.7,1.277l5-1.643a.65.65,0,0,0,.413-.8" transform="translate(47.078 15.172)" fill="#fcfdfd" fill-rule="evenodd"/>
        <path id="パス_1228" data-name="パス 1228" d="M26.891,20.627l-.375-1.367a.635.635,0,0,0-.764-.446L22,19.706,20.6,14.536l3.916-.945a.616.616,0,0,0,.394-.731l-.394-1.538a.676.676,0,0,0-.774-.437l-3.85.935L18.594,7l3.935-.945a.614.614,0,0,0,.427-.769l-.389-1.491a.683.683,0,0,0-.812-.408L16.514,4.653a2.042,2.042,0,0,0-1.5,2.454l3.689,14a2.206,2.206,0,0,0,2.587,1.514l5.136-1.239a.622.622,0,0,0,.465-.76" transform="translate(56.026 12.617)" fill="#fcfdfd" fill-rule="evenodd"/>
        <path id="パス_1229" data-name="パス 1229" d="M26.675,10.1l-.1-5.246a2.844,2.844,0,0,1,1.989.527,2.716,2.716,0,0,1-.019,4.3,2.4,2.4,0,0,1-1.87.422m.166,10.069-.109-6.988a4.283,4.283,0,0,0,1.044-.157,6.985,6.985,0,0,1,1.6,3.76,4.049,4.049,0,0,0,.84,2.606,3.351,3.351,0,0,0,2.549,1.225,2.687,2.687,0,0,0,1.291-.285.88.88,0,0,0,.527-1.049c-.133-.37-.47-.418-.769-.6a4.837,4.837,0,0,1-1.277-1.88,19.39,19.39,0,0,1-.655-2.5,3.011,3.011,0,0,0-1.685-2.089,6.249,6.249,0,0,0,1.932-2.492A5.809,5.809,0,0,0,31.674,4.4,5.229,5.229,0,0,0,27.8,2.45l-3.783-.024a.623.623,0,0,0-.631.622L23.7,20.133a.724.724,0,0,0,.631.665l1.894-.019a.623.623,0,0,0,.617-.608" transform="translate(87.602 9.09)" fill="#fcfdfd" fill-rule="evenodd"/>
        <path id="パス_1230" data-name="パス 1230" d="M22.738,9.247a11.57,11.57,0,0,1-.66-.954,3.279,3.279,0,0,1-.465-2.426.827.827,0,0,1,1.5-.043,3.456,3.456,0,0,1,0,2.217,10.238,10.238,0,0,1-.356,1.182Zm1.272,9.3a1.307,1.307,0,0,1-1.234-1.239,2.906,2.906,0,0,1,.541-2.131l2.136,2.525a1.474,1.474,0,0,1-1.443.845m3.166,1.206.864,1.025,3.2-.674-2.625-3.114a10,10,0,0,0,.057-5.326l-2.226.252a7.78,7.78,0,0,1,.166,2.63l-2.3-2.734a11.538,11.538,0,0,0,1.462-5.2,3.774,3.774,0,0,0-1.647-3.489,3.417,3.417,0,0,0-3.859.351c-1.443,1.234-1.277,3.233-.845,4.8a15.068,15.068,0,0,0,1.927,3.726,11.734,11.734,0,0,0-1.5,5.9A3.692,3.692,0,0,0,23.863,21.6a3.79,3.79,0,0,0,3.313-1.847" transform="translate(71.625 10.073)" fill="#fcfdfd" fill-rule="evenodd"/>
        <path id="パス_1231" data-name="パス 1231" d="M33.842,20.566l.09-1.377a.675.675,0,0,0-.617-.665L29.536,18.3l.3-5.336,3.931.247a.639.639,0,0,0,.622-.631l.09-1.548a.616.616,0,0,0-.565-.636L30,10.184l.3-4.98,3.969.237a.6.6,0,0,0,.655-.6l.119-1.51a.655.655,0,0,0-.636-.636L29.1,2.38A2.113,2.113,0,0,0,26.911,4.3l-.883,14.408a2.1,2.1,0,0,0,1.932,2.16l5.17.3a.668.668,0,0,0,.712-.6" transform="translate(97.516 8.904)" fill="#fcfdfd" fill-rule="evenodd"/>
        <path id="パス_1232" data-name="パス 1232" d="M30.847,17.447a4.719,4.719,0,0,1-.973-1.405c-.109-.252-.266-.408-.451-.2l-1.106,1.215a.7.7,0,0,0-.166.665,8.953,8.953,0,0,0,1.158,2.241,4.051,4.051,0,0,0,3.5,1.581c1.8-.047,3.6-1.918,3.878-3.921a4.766,4.766,0,0,0-.413-3.043c-.451-1.1-1.367-3.722-2.207-5.478a7.683,7.683,0,0,1-.565-1.305,1.909,1.909,0,0,1,.109-1.424,1.388,1.388,0,0,1,1.538-.532A2.592,2.592,0,0,1,36.691,7.1c.114.214.285.271.432.1l1.049-1.068a.738.738,0,0,0,.152-.674A4.436,4.436,0,0,0,35.68,2.84a3.71,3.71,0,0,0-4.515,1.3,4.91,4.91,0,0,0-.693,4,9.735,9.735,0,0,0,.712,1.87c.508,1.073,1.438,3.632,2.122,5.483a1.856,1.856,0,0,1,.147,1.234,1.6,1.6,0,0,1-1.239,1.211,1.565,1.565,0,0,1-1.367-.489" transform="translate(105.381 9.473)" fill="#fcfdfd" fill-rule="evenodd"/>
        <path id="パス_1233" data-name="パス 1233" d="M33.461,5.777l-2.7,15.167a.636.636,0,0,0,.522.712l1.856.266a.642.642,0,0,0,.726-.5L36.584,6.266l2.549.4a.639.639,0,0,0,.75-.479l.28-1.438c.081-.366-.237-.608-.522-.741L31.567,2.744a.592.592,0,0,0-.731.479l-.261,1.438a.631.631,0,0,0,.489.741Z" transform="translate(114.531 10.201)" fill="#fcfdfd" fill-rule="evenodd"/>
        <path id="パス_1234" data-name="パス 1234" d="M40.028,14.446l-3-.679L40.384,6.2ZM32.4,20.826l.864.195a.686.686,0,0,0,.693-.385L36,16.126,39.933,17,39.71,21.97a.61.61,0,0,0,.489.608l1.889.413c.351.085.864-.2.769-.551v-.019l.8-17.816a.621.621,0,0,0-.484-.636l-3.223-.731a.582.582,0,0,0-.655.356L31.958,19.957a.616.616,0,0,0,.446.869" transform="translate(119.523 12.09)" fill="#fcfdfd" fill-rule="evenodd"/>
        <path id="パス_1235" data-name="パス 1235" d="M43.927,12.854,46.1,8.031a2.654,2.654,0,0,1,1.533,1.277,2.847,2.847,0,0,1-1.894,3.921,2.26,2.26,0,0,1-1.813-.375m-4.215,9.271,2.905-6.442a3.808,3.808,0,0,0,1.011.275,7.072,7.072,0,0,1-.247,4.087,4.072,4.072,0,0,0-.389,2.711,3.192,3.192,0,0,0,1.7,2.122,2.269,2.269,0,0,0,1.258.256.922.922,0,0,0,.94-.741c.033-.408-.247-.584-.413-.854a4.29,4.29,0,0,1-.318-2.236,16.3,16.3,0,0,1,.522-2.544,2.925,2.925,0,0,0-.6-2.573,6.4,6.4,0,0,0,2.8-1.5A6.042,6.042,0,0,0,50.749,9.65a4.852,4.852,0,0,0-2.53-3.342L44.9,4.793a.632.632,0,0,0-.826.285l-7.1,15.756a.643.643,0,0,0,.247.845l1.685.745a.626.626,0,0,0,.8-.3" transform="translate(138.305 17.741)" fill="#fcfdfd" fill-rule="evenodd"/>
        <path id="パス_1236" data-name="パス 1236" d="M49.061,6.722l-.954-.313a.7.7,0,0,0-.821.4L42.951,18.964a2.481,2.481,0,1,1-4.7-1.586L42.614,5.25a.65.65,0,0,0-.446-.812l-1.989-.646a.716.716,0,0,0-.845.437L35.009,16.311c-2.4,6.67,7.738,10.026,10.135,3.351l4.31-12.143a.624.624,0,0,0-.394-.8" transform="translate(129.82 14.108)" fill="#fcfdfd" fill-rule="evenodd"/>
        <path id="パス_1237" data-name="パス 1237" d="M55.914,13.482,43.681,22.7a.638.638,0,0,0-.133.854l1.073,1.415a.589.589,0,0,0,.821.128L57.67,15.87l1.467,1.989a.626.626,0,0,0,.859.128l1.144-.864a.726.726,0,0,0,.166-.888L56.735,10.05a.605.605,0,0,0-.859-.114l-1.163.888a.616.616,0,0,0-.147.85Z" transform="translate(162.772 36.761)" fill="#fcfdfd" fill-rule="evenodd"/>
        <path id="パス_1238" data-name="パス 1238" d="M48.815,16.955l-2.62-1.6,5.749-6.038Zm-9.423,3.522.745.46a.667.667,0,0,0,.793-.142l3.48-3.584,3.451,2.112-1.894,4.6a.637.637,0,0,0,.228.755l1.7.992c.3.185.84.1.873-.275l.024-.019,6.8-16.482a.611.611,0,0,0-.247-.764L52.542,6.4a.59.59,0,0,0-.745.1L39.283,19.523a.609.609,0,0,0,.109.954" transform="translate(146.514 23.656)" fill="#fcfdfd" fill-rule="evenodd"/>
        <path id="パス_1239" data-name="パス 1239" d="M41.511,22.178l.9.783a.585.585,0,0,0,.854-.062l6.674-7.795L47.074,26.574a.628.628,0,0,0,.185.617l1.2,1.049a.655.655,0,0,0,.883-.1L60.765,14.683a.626.626,0,0,0-.057-.873L59.7,12.936a.6.6,0,0,0-.859.062l-6.371,7.458L55.054,9.347a.659.659,0,0,0-.185-.617l-1.092-.959a.667.667,0,0,0-.9.1L41.473,21.31a.637.637,0,0,0,.038.869" transform="translate(154.83 28.634)" fill="#fcfdfd" fill-rule="evenodd"/>
        <path id="パス_1240" data-name="パス 1240" d="M17.7,25.275l1.775-1.03a.6.6,0,0,0,.19-.845l-3.931-6.257,3.446-1.994a.621.621,0,0,0,.2-.85l-.84-1.324a.676.676,0,0,0-.864-.195L14.3,14.746,11.5,10.384l3.522-2.041a.594.594,0,0,0,.147-.812L14.4,6.32a.629.629,0,0,0-.835-.2L9.031,8.741A2.055,2.055,0,0,0,8.324,11.6L16.84,25.067a.6.6,0,0,0,.864.209" transform="translate(30.014 22.622)" fill="#fcfdfd" fill-rule="evenodd"/>
        <path id="パス_1241" data-name="パス 1241" d="M4.583,16.452l10.738,9.423a2.063,2.063,0,0,0,2.877-.223l3.337-3.864a.68.68,0,0,0-.057-.9l-1.011-.878a.671.671,0,0,0-.9.062l-2.431,2.863-10-8.8L9.549,11.33a.646.646,0,0,0-.038-.883l-.973-.835a.619.619,0,0,0-.864.057l-3.337,3.9a2.09,2.09,0,0,0,.247,2.886" transform="translate(14.495 35.457)" fill="#fcfdfd" fill-rule="evenodd"/>
        <path id="パス_1242" data-name="パス 1242" d="M57.916,54.571c.019-.2.019-.408.038-.617a3.224,3.224,0,0,1,.1-.56,2.849,2.849,0,0,1,.351-.892,6.307,6.307,0,0,1,.522-.835,6.2,6.2,0,0,1,.6-.617,3.206,3.206,0,0,1,.707-.437c.138-.047.247-.114.375-.171a2.346,2.346,0,0,0,.418-.176c.109-.052.228-.1.3-.147a1.1,1.1,0,0,0,.375-.726,1.424,1.424,0,0,0-.057-.385.7.7,0,0,0-.171-.256l-.356-.679c-.019-.057-.019-.1-.033-.147A1.276,1.276,0,0,1,61.1,47.7a1.035,1.035,0,0,1,.19-.441,2.2,2.2,0,0,1,.223-.185,1.086,1.086,0,0,1,.318-.152,1.5,1.5,0,0,1,.413,0c.095.024.223.047.323.062.109.038.237.081.356.128l.356.142a2.277,2.277,0,0,0,.636.2,3.274,3.274,0,0,0,1.291.062,3.581,3.581,0,0,0,1.946-.831c.413-.271.826-.522,1.234-.8.337-.214.712-.441,1.068-.636A15.782,15.782,0,0,1,74.1,43.615a16.337,16.337,0,0,1,1.785-.214c.427-.038.821-.057,1.258-.057l.617-.028-.807,1.7c-.2.475-.451.9-.674,1.358A26.449,26.449,0,0,1,74.4,49.325a29.435,29.435,0,0,1-2.307,2.8c-.612.66-1.291,1.315-1.965,1.937-.821.741-1.7,1.453-2.582,2.146a40.527,40.527,0,0,1-4.515,2.953c-.655.356-1.348.717-2.022,1.044-.565.271-1.111.522-1.666.788-.081.019-.133.028-.228.047a.876.876,0,0,1-.337-.047.862.862,0,0,1-.3-.114,1,1,0,0,1-.5-.688.144.144,0,0,0-.024-.1Zm38.2.655-1.647.085c-.465,0-.94.01-1.405,0a25.275,25.275,0,0,1-4.515-.456c-.465-.095-.911-.19-1.386-.3a.927.927,0,0,0-.5-.1c-.3-.1-.56-.195-.826-.285-.228-.1-.484-.209-.726-.337a7.2,7.2,0,0,1-2.459-2l-.294-.375L83.56,49.8c.356-.522.731-1.044,1.068-1.576a40.685,40.685,0,0,0,2.53-4.467c.266-.57.546-1.158.812-1.742l.256-.6,2.492-.223,2.962-.3,2.378-.29,1.1-.142c.418-.047.788-.1,1.2-.114a14.841,14.841,0,0,1,2.25.019,19.064,19.064,0,0,1,2.264.366,17.111,17.111,0,0,1,2.231.636l1.234.432c.736.223,1.462.432,2.193.617.655.171,1.348.332,2,.489l.864.185c.109.019.218.047.337.062a1.89,1.89,0,0,0,.745-.043,2.173,2.173,0,0,0,1.087-.646c.071-.085.171-.171.242-.247a2.735,2.735,0,0,1,.266-.323,3.537,3.537,0,0,1,.394-.536.727.727,0,0,1,.427-.256.4.4,0,0,1,.28,0,.731.731,0,0,1,.3.09.6.6,0,0,1,.171.123c.071.071.109.128.166.195a2.84,2.84,0,0,1,.37.57c.095.209.19.413.285.6.09.233.171.47.261.707a13.149,13.149,0,0,1,.413,1.419,10.519,10.519,0,0,1,.223,1.358,11.319,11.319,0,0,1,.038,1.135c-.019.38-.038.755-.09,1.111-.043.451-.119.878-.19,1.339a16.491,16.491,0,0,1-.5,2.06,16.358,16.358,0,0,1-.992,2.72l-.1.214c-.052.057-.109.128-.185.218a1.943,1.943,0,0,1-.394.337,1.454,1.454,0,0,1-.522.161l-2.1.142c-1.12.047-2.241.066-3.351.066-.954,0-1.889-.009-2.844-.047l-.546-.019c-.019-.237-.057-.522-.057-.8a9.554,9.554,0,0,1,.076-1.6c.076-.441.171-.888.28-1.31.057-.171.095-.323.166-.494a3.119,3.119,0,0,1,1.695-1.718.683.683,0,0,0,.218-.218.558.558,0,0,0,.09-.209.529.529,0,0,0,.028-.252.693.693,0,0,0-.028-.252.771.771,0,0,0-.109-.19.91.91,0,0,0-.128-.152c-.427-.252-.845-.536-1.272-.793-.375-.228-.769-.423-1.168-.65a16.676,16.676,0,0,0-3.855-1.434,18,18,0,0,0-2.886-.46c-.427-.019-.883-.052-1.31-.062L96.862,45c-.275.014-.56.024-.84.057-.337.052-.693.119-1.011.19a11.245,11.245,0,0,0-1.106.375c-.076.033-.171.085-.28.128a.628.628,0,0,0-.28.266,1.469,1.469,0,0,0-.095.3v.28c.019.057.057.114.076.166.09.185.166.351.261.508.128.2.242.389.394.589.09.119.2.228.3.356a7.509,7.509,0,0,1,.878,1.253,10.461,10.461,0,0,1,.674,1.5,9.043,9.043,0,0,1,.356,1.614,7.891,7.891,0,0,1,.024,1.737c-.043.3-.062.608-.1.907m15.547,7.681c-.218.47-.446.949-.693,1.415-.2.4-.427.8-.655,1.2A23.745,23.745,0,0,1,108.2,68.57c-.285.351-.584.7-.864,1.035l-.783.869c-.057.028-.114.081-.176.119a.551.551,0,0,1-.237.109.64.64,0,0,1-.247.028,1.112,1.112,0,0,1-.356-.085.808.808,0,0,1-.37-.446.275.275,0,0,1-.038-.171V67.592c0-.954.057-1.894.076-2.848l.09-1.557V63.04a.594.594,0,0,1,.09-.313.716.716,0,0,1,.489-.275l.095-.009,5.284-.285a.313.313,0,0,1,.152.033.392.392,0,0,1,.237.252.337.337,0,0,1,.081.176.389.389,0,0,1-.062.29M15.529,40.795c.095.095.2.185.318.285a2.746,2.746,0,0,0,.769.4,3.067,3.067,0,0,0,2.848-.375,3.549,3.549,0,0,0,.574-.5,12.258,12.258,0,0,0,1.011-1.144c.19-.3.4-.622.584-.959.057-.157.171-.323.247-.494a3.236,3.236,0,0,0,.242-.774,5.2,5.2,0,0,0,.095-.93,4.51,4.51,0,0,0-.356-1.7c-.057-.161-.171-.323-.228-.5-.109-.157-.218-.337-.337-.494a10.425,10.425,0,0,0-.954-1.116,9.253,9.253,0,0,0-.959-.926A12.679,12.679,0,0,0,15.1,29.174a12.145,12.145,0,0,0-3.181-.622,13.121,13.121,0,0,0-2.4.038,13.024,13.024,0,0,0-3.219.869c-.247.1-.489.2-.755.3-.019.038-.071.071-.09.1a.284.284,0,0,0-.095.2.249.249,0,0,0,.038.19c.019.024.038.071.076.09l1.889,1.6c.584.494,1.163,1.011,1.723,1.557a49.218,49.218,0,0,1,4.59,4.951c.413.527.826,1.04,1.239,1.562a1.388,1.388,0,0,0,.617.788m34.839,8.232-.057,2.991-1.794.394c-.712.119-1.386.233-2.1.3a30.448,30.448,0,0,1-5.355.256,4.935,4.935,0,0,1-.693-.085,4.466,4.466,0,0,1-.726-.138,3.611,3.611,0,0,1-.712-.29,3.3,3.3,0,0,1-.774-.546c-.09-.057-.185-.147-.3-.214a.59.59,0,0,0-.147-.085.54.54,0,0,0-.247-.009.337.337,0,0,0-.218.119.358.358,0,0,0-.081.133c-.019.071-.038.123-.057.209a2.356,2.356,0,0,0-.052.608,2.248,2.248,0,0,0,.052.589c.019.195.057.394.095.589a11.913,11.913,0,0,0,.451,1.624,9.335,9.335,0,0,0,.864,1.813,5.339,5.339,0,0,0,.394.574,3.314,3.314,0,0,0,.484.517,1.006,1.006,0,0,0,.47.157,1.709,1.709,0,0,0,.394-.028c.071-.019.147-.057.2-.076l1.652-.451c.6-.161,1.2-.294,1.8-.413a30.741,30.741,0,0,1,5.284-.555l1.011-.033a5.264,5.264,0,0,1,.071.769,9.085,9.085,0,0,1,.038,1.011c-.019.318-.038.655-.071.987l-.038.361-1.913.356a44.494,44.494,0,0,1-5.17.617l-1.7.1c-.285,0-.56,0-.84,0-.261-.014-.508-.052-.774-.066a8.1,8.1,0,0,1-1.272-.332,4.628,4.628,0,0,1-1.011-.522,2.819,2.819,0,0,1-.427-.29c-.147-.1-.3-.2-.432-.294a1.924,1.924,0,0,1-.242-.119.339.339,0,0,0-.209-.019.421.421,0,0,0-.2.1,1.175,1.175,0,0,0-.09.123.509.509,0,0,0-.062.18,1.715,1.715,0,0,0-.095.527,2.611,2.611,0,0,0,.019.517,5.663,5.663,0,0,0,.076.57c.062.28.114.555.152.826.128.484.247.992.394,1.491a11.965,11.965,0,0,0,.617,1.7c.09.2.185.4.28.589a5.807,5.807,0,0,0,.394.508,2.586,2.586,0,0,0,.28.28,1.56,1.56,0,0,0,.185.128.78.78,0,0,0,.3.095,1.63,1.63,0,0,0,.375-.019.824.824,0,0,0,.337-.142c.489-.166.992-.323,1.5-.5.394-.128.788-.252,1.2-.351a18.025,18.025,0,0,1,3.37-.589,18.237,18.237,0,0,1,3.3-.009c.446.019.892.057,1.348.114l.465.033-.038,2.169v.138a.376.376,0,0,0,.057.176,1.121,1.121,0,0,0,.152.228.364.364,0,0,0,.28.166,1.313,1.313,0,0,0,.2.071c.318.081.617.161.921.223a8.11,8.11,0,0,0,.864.109,7.241,7.241,0,0,0,1.438-.057,6.888,6.888,0,0,0,1.557-.366,6.14,6.14,0,0,0,1.03-.413,4.955,4.955,0,0,0,.636-.4,2.036,2.036,0,0,0,.356-.318,1.135,1.135,0,0,0,.28-.479,3.014,3.014,0,0,0,.095-.441l-.038-1.832,2.06-.432c.693-.147,1.41-.332,2.1-.517,1.443-.4,2.863-.869,4.272-1.41.631-.261,1.286-.541,1.923-.812,1.429-.641,2.777-1.329,4.106-2.084.921-.517,1.842-1.054,2.734-1.657A33.831,33.831,0,0,0,78.3,55.582l.935-.726a.536.536,0,0,1,.209-.114.5.5,0,0,1,.218-.066,1.2,1.2,0,0,1,.228,0,.593.593,0,0,1,.228.081.533.533,0,0,1,.2.161.591.591,0,0,1,.171.28.463.463,0,0,1,.052.256c0,.422.038.835.057,1.258.038.337.071.693.133,1.03a11.871,11.871,0,0,0,.821,2.763c.209.47.432.921.693,1.4A18.445,18.445,0,0,0,83.508,63.8a3.059,3.059,0,0,0,.546.593,4.4,4.4,0,0,0,1.5.959,3.633,3.633,0,0,0,2.321.081c.152-.052.28-.1.456-.161l.18-.085c.413-.176.812-.366,1.22-.532s.8-.318,1.2-.456a20.762,20.762,0,0,1,3.057-.779c.408-.071.8-.133,1.2-.176l.935-.1L95.87,69.69a.581.581,0,0,0,.043.271.831.831,0,0,0,.09.366,1.563,1.563,0,0,0,.209.361,1.8,1.8,0,0,0,.555.5,1.562,1.562,0,0,0,.475.195c.37.076.764.142,1.139.2s.764.1,1.144.133a15.325,15.325,0,0,0,2.188-.019c.356-.047.75-.076,1.13-.138l.726-.138c.057,0,.109,0,.2,0a.6.6,0,0,1,.242.038,1.064,1.064,0,0,1,.19.1.7.7,0,0,1,.223.2.652.652,0,0,1,.152.46c0,.066-.019.152-.019.195a.837.837,0,0,1-.071.209c-.019.038-.019.076-.062.114L102.99,74.3c-.5.546-1.011,1.068-1.557,1.6-1.049.992-2.15,1.951-3.257,2.867-.807.627-1.609,1.225-2.421,1.785-1.139.816-2.34,1.586-3.522,2.317-.992.57-2,1.154-3.033,1.68-1.12.57-2.25,1.054-3.389,1.51l-1.163.494a.181.181,0,0,0-.09.076.244.244,0,0,0-.057.19.2.2,0,0,0,.057.076c.014.028.052.038.071.066.19.095.4.195.584.3a5.3,5.3,0,0,0,2.056.432c.119.009.228.009.337.019.4-.019.774-.028,1.168-.038.5-.057.992-.09,1.481-.166a16.2,16.2,0,0,0,1.942-.418,15.714,15.714,0,0,0,1.747-.517c.579-.19,1.12-.4,1.685-.622.693-.261,1.367-.532,2.041-.831a57.5,57.5,0,0,0,8.051-4.31c.812-.546,1.614-1.078,2.369-1.647a49.049,49.049,0,0,0,7.6-6.736q1.787-1.93,3.385-4.007c.655-.835,1.277-1.7,1.856-2.578.807-1.2,1.571-2.454,2.264-3.717a1.049,1.049,0,0,1,.342-.612l1.571-.128c.769-.047,1.5-.081,2.245-.066a31.109,31.109,0,0,1,4.382.337,18.526,18.526,0,0,1,4.372,1.324,15.616,15.616,0,0,1,1.457.655c.261.138.546.275.807.389a11.459,11.459,0,0,0,2.326.684l.37.085c.114,0,.242.009.394.009a2.057,2.057,0,0,0,1.177-.294,2.212,2.212,0,0,0,.769-.574,2.653,2.653,0,0,0,.451-.7,2.269,2.269,0,0,0,.171-.589,2.371,2.371,0,0,0,.019-.517L144,61.682a3.92,3.92,0,0,0-.247-.745,6.813,6.813,0,0,0-.318-.688c-.109-.237-.261-.437-.37-.665a12.389,12.389,0,0,0-.94-1.377,10.284,10.284,0,0,0-1.049-1.239,10.759,10.759,0,0,0-2.136-1.586c-.337-.2-.731-.4-1.087-.584-.337-.171-.693-.3-1.044-.441a7.448,7.448,0,0,0-3.38-.356,3.144,3.144,0,0,0-.5.057l-2.848.389c-.674.1-1.386.233-2.041.356-.071,0-.147,0-.223,0a.618.618,0,0,1-.313-.119.5.5,0,0,1-.209-.233c-.038-.062-.057-.119-.095-.195a2.245,2.245,0,0,1-.014-.323c.014-.019.014-.081.052-.1l.712-1.652c.209-.513.408-1.04.6-1.552l.261-.712a3.4,3.4,0,0,1,.19-.37,2.586,2.586,0,0,1,.617-.674,2.322,2.322,0,0,1,.821-.342,2.456,2.456,0,0,1,.28-.047,7.426,7.426,0,0,1,.731-.166c.38-.085.793-.152,1.182-.2.076-.024.128-.033.209-.052a.7.7,0,0,0,.218-.18.85.85,0,0,0,.209-.4.4.4,0,0,0-.033-.19,1.035,1.035,0,0,0-.119-.366c-.057-.1-.109-.195-.166-.29s-.147-.19-.209-.261a7.383,7.383,0,0,0-.446-.589,6.5,6.5,0,0,0-.636-.674c-.484-.389-.992-.793-1.514-1.154-.418-.29-.826-.589-1.272-.883a21.69,21.69,0,0,0-3.56-1.9,23.433,23.433,0,0,0-4.78-1.405c-.484-.1-1.011-.176-1.514-.275l-.845-.128h-.5a4.64,4.64,0,0,0-.546.057,3.114,3.114,0,0,0-.712.228,3.885,3.885,0,0,0-.826.446c-.057.028-.09.071-.166.109a.662.662,0,0,1-.171.1.813.813,0,0,1-.337.038.973.973,0,0,1-.375-.109.731.731,0,0,1-.3-.394c-.28-.394-.584-.8-.859-1.182-.242-.318-.508-.646-.769-.964a13.452,13.452,0,0,0-.959-.987,13.041,13.041,0,0,0-1.5-1.158,11.172,11.172,0,0,0-1.737-1.059,15.191,15.191,0,0,0-1.856-.85,10.663,10.663,0,0,0-1.168-.422,11.955,11.955,0,0,0-1.192-.271c-.3-.057-.6-.085-.9-.123-.3-.019-.6-.019-.9-.019-.427,0-.84.047-1.248.085-.38.066-.755.147-1.111.233l-.261.085-1.59.517c-.565.147-1.106.3-1.647.446-.954.228-1.913.422-2.867.565-.636.09-1.3.18-1.932.252l-.973.1.28-1.538c.114-.627.266-1.272.432-1.908.171-.7.356-1.4.546-2.084l.128-.555c.071-.171.152-.318.223-.475a4.053,4.053,0,0,1,.3-.46,3.239,3.239,0,0,1,.674-.674,3.859,3.859,0,0,1,.883-.484c.071-.028.18-.071.275-.119.114-.052.223-.114.361-.19.166-.1.356-.223.522-.337.052-.057.128-.123.19-.185.014-.062.071-.133.09-.209a.718.718,0,0,0,.071-.28,1.534,1.534,0,0,0-.052-.318.652.652,0,0,0-.076-.2.459.459,0,0,0-.19-.237c-.427-.309-.854-.608-1.291-.907-.375-.266-.75-.5-1.139-.745a20.945,20.945,0,0,0-3.394-1.69c-.413-.157-.8-.313-1.215-.437-.47-.161-.935-.323-1.429-.475-.427-.138-.892-.271-1.348-.4a20.146,20.146,0,0,0-2.6-.565,20.68,20.68,0,0,0-2.753-.252L79.2,19.338a1.935,1.935,0,0,0-.28.052,1.411,1.411,0,0,0-.712.437,1.3,1.3,0,0,0-.261.408,1.467,1.467,0,0,0-.114.959,3,3,0,0,0,.095.408,5.967,5.967,0,0,0,.318,1.011c.152.285.3.551.446.817.157.294.3.6.475.9.161.342.3.707.446,1.059a10.574,10.574,0,0,1,.617,3.726v1.22c-.019.8-.071,1.6-.147,2.412-.081.959-.209,1.9-.38,2.858l-.147.788-3,.2c-1.386.085-2.777.142-4.158.18-1.571.028-3.147.028-4.738-.009-1.03-.043-2.079-.066-3.114-.133l-.712-.038c-.356-.038-.712-.085-1.049-.142a6.313,6.313,0,0,1-.835-.157,7.157,7.157,0,0,1-1.633-.565A12.044,12.044,0,0,1,58.424,34.6a13.356,13.356,0,0,1-1.272-1.149.571.571,0,0,0-.266-.166.743.743,0,0,0-.636.047,1.944,1.944,0,0,0-.185.166.553.553,0,0,0-.114.152c-.019.057-.038.095-.057.147-.038.18-.109.37-.128.532a2.259,2.259,0,0,0-.071.475,4.292,4.292,0,0,0-.019.494c.052.432.109.84.18,1.263.038.37.119.745.19,1.1a16.746,16.746,0,0,0,1.177,3.465,11.175,11.175,0,0,0,.508,1.011l.266.508a1.661,1.661,0,0,1,.147.29,1.343,1.343,0,0,1,.152.366,3.444,3.444,0,0,1,.147.589.34.34,0,0,1-.019.195c-.019.057-.033.119-.052.161-.057.071-.119.171-.171.228a.742.742,0,0,1-.522.233.8.8,0,0,1-.318-.043.531.531,0,0,1-.247-.142,4.7,4.7,0,0,0-.992-.584,9.219,9.219,0,0,0-1.13-.427,6.711,6.711,0,0,0-1.419-.256,7.687,7.687,0,0,0-1.438.066c-.247.047-.456.1-.693.147-.247.081-.494.142-.755.209-.413.109-.859.228-1.31.337a13.5,13.5,0,0,1-1.424.233,14.752,14.752,0,0,1-3.935.052c-.351-.052-.726-.095-1.1-.176l-.807-.147a.252.252,0,0,1-.128-.038.343.343,0,0,1-.147-.109c-.062-.047-.119-.1-.176-.152a.768.768,0,0,1-.142-.4.855.855,0,0,1,.014-.328,1.569,1.569,0,0,1,.166-.294.378.378,0,0,0,.076-.09l2.056-2.193c1.429-1.567,2.815-3.176,4.182-4.814q2.67-3.261,5.151-6.679c.413-.546.807-1.082,1.22-1.633.821-1.168,1.6-2.374,2.307-3.617.536-.911,1.044-1.847,1.548-2.8s.959-1.908,1.386-2.891c.636-1.415,1.22-2.872,1.728-4.363l.228-.688a.393.393,0,0,0,.009-.119.269.269,0,0,0-.033-.161.831.831,0,0,0-.185-.271c-.019-.038-.076-.052-.109-.066a.632.632,0,0,0-.171-.043.477.477,0,0,0-.356.09.486.486,0,0,0-.171.147L58.5,14.975c-2.435,2.9-4.984,5.739-7.624,8.455q-1.211,1.239-2.416,2.445c-1.144,1.154-2.345,2.269-3.522,3.351l-1.794,1.7c-.456.441-.94.878-1.391,1.305-.859.731-1.685,1.472-2.563,2.146-.845.641-1.671,1.291-2.53,1.913a76.751,76.751,0,0,1-7.624,4.923c-1.011.56-2.065,1.087-3.1,1.571-.484.228-.954.46-1.438.717-.318.166-.655.337-1.011.5-.318.147-.655.285-.992.408a8.22,8.22,0,0,1-1.258.375c-.427.1-.84.171-1.272.228-.394.071-.8.109-1.177.152a8.381,8.381,0,0,1-1.092,0c-.318-.014-.617-.062-.916-.1-.332-.057-.66-.1-1-.176-.465-.1-.873-.233-1.329-.375a10.1,10.1,0,0,1-1.9-.864l-.228-.147-.19-.062a1.123,1.123,0,0,0-.574.014.924.924,0,0,0-.285.2,1.371,1.371,0,0,0-.242.375.762.762,0,0,0-.019.2v.171c.09.394.19.783.3,1.177.109.375.228.76.356,1.149a16.423,16.423,0,0,0,.992,2.207c.166.318.318.612.508.916a16.208,16.208,0,0,0,1.367,1.9c.285.323.6.655.9.992a22.1,22.1,0,0,0,1.8,1.723,21.445,21.445,0,0,0,3.313,2.283.755.755,0,0,1,.47.266c.28.142.56.285.845.427.242.123.517.247.783.356a10.782,10.782,0,0,0,1.685.46,9.3,9.3,0,0,0,1.709.157c.147,0,.318-.009.484-.014a1.488,1.488,0,0,0,.427-.157.964.964,0,0,0,.356-.323.656.656,0,0,0,.157-.332,2.188,2.188,0,0,1,.128-.361l.171-.593a2.89,2.89,0,0,1,.185-.551,5.94,5.94,0,0,1,.6-1.173,7.811,7.811,0,0,1,.992-1.258c.209-.176.394-.361.6-.536.147-.123.318-.266.489-.418l1.476-1.092c.94-.717,1.837-1.462,2.715-2.231.546-.475,1.092-.959,1.6-1.443l.408-.356a.244.244,0,0,1,.1-.128.494.494,0,0,1,.337-.1c.052,0,.109.019.166.019.033.019.109.047.152.076a.538.538,0,0,0,.128.062.282.282,0,0,1,.071.18,2.829,2.829,0,0,0,.157.275,1.756,1.756,0,0,0,.2.214l.228.28c.128.133.28.261.394.375a3.571,3.571,0,0,0,.527.361,2.589,2.589,0,0,0,.8.323,3.005,3.005,0,0,0,.565.076,1.557,1.557,0,0,0,.3.024l2.487-.066c1.785-.071,3.56-.195,5.345-.361l1.586-.171M23.357,32.359a4.5,4.5,0,0,0,.3.375,2.234,2.234,0,0,0,.451.446,3.721,3.721,0,0,0,.75.408,3.078,3.078,0,0,0,.973.256,4.879,4.879,0,0,0,.527,0,3.5,3.5,0,0,0,.93-.214c.176-.076.337-.138.494-.223a4.873,4.873,0,0,0,.764-.427A4.759,4.759,0,0,0,29.69,32a5.219,5.219,0,0,0,1.215-2.127,4.786,4.786,0,0,0,.247-1.552,5.444,5.444,0,0,0-.432-2.26,5.878,5.878,0,0,0-1.2-1.766,10.5,10.5,0,0,0-1.1-.992,11.365,11.365,0,0,0-1.068-.745,13.3,13.3,0,0,0-3.712-1.576,12.25,12.25,0,0,0-6.8.3c-.318.128-.655.247-.935.394-.3.123-.6.275-.883.418l-.427.218c-.057.019-.076.085-.119.133a.557.557,0,0,0-.052.242.5.5,0,0,0,.171.328l1.647,1.334c.446.389.935.793,1.386,1.225a36.249,36.249,0,0,1,4.752,5.435l.978,1.348M40.3,21.583c-.157-.247-.3-.508-.456-.76-.128-.2-.275-.408-.408-.6a7.587,7.587,0,0,0-1.049-1.116A7.7,7.7,0,0,0,37.1,18.2a8.245,8.245,0,0,0-3.124-1.025,7.985,7.985,0,0,0-2.231.047,4.972,4.972,0,0,0-.954.218.363.363,0,0,0-.247.223.827.827,0,0,0-.09.361.372.372,0,0,0,.071.2,1.119,1.119,0,0,0,.114.157l1.533,1.809c1.424,1.733,2.777,3.494,4.073,5.322.052.066.128.133.18.2a1.767,1.767,0,0,0,.584.337,1.512,1.512,0,0,0,.783.057,1.318,1.318,0,0,0,.418-.1,3.511,3.511,0,0,0,.427-.19,4.451,4.451,0,0,0,.788-.522,3.409,3.409,0,0,0,1.063-2.535,3.507,3.507,0,0,0-.2-1.168m6.964-5.113c-.128-.223-.3-.456-.47-.7a6.531,6.531,0,0,0-.427-.6,6.922,6.922,0,0,0-1-.945,6.438,6.438,0,0,0-1.12-.755,8.933,8.933,0,0,0-1.647-.7,6.636,6.636,0,0,0-1.22-.256,8.1,8.1,0,0,0-1.063-.09c-.356,0-.712,0-1.068.009-.19.019-.337.024-.508.038a3.24,3.24,0,0,0-.5.123,1.322,1.322,0,0,0-.38.176l-.109.128a.662.662,0,0,0-.095.494.768.768,0,0,0,.109.195,5.691,5.691,0,0,0,.812.873l.522.546c.209.209.389.413.6.608.375.418.712.835,1.068,1.258.318.441.636.869.954,1.324.337.441.636.873.959,1.334a1.214,1.214,0,0,0,.527.76c.052.085.109.152.161.228a1.974,1.974,0,0,0,.565.446c.09.019.185.076.28.1a2.1,2.1,0,0,0,1,.066c.128-.043.261-.066.37-.114s.185-.057.266-.1a3.667,3.667,0,0,0,1.438-1.2,3.03,3.03,0,0,0,.413-1.049,2.442,2.442,0,0,0,.038-.812,2.084,2.084,0,0,0-.166-.793,1.283,1.283,0,0,0-.171-.375c-.038-.071-.095-.147-.133-.223M147.87,37.552c.081.1.152.209.228.328a1.7,1.7,0,0,0,.37.418,2.938,2.938,0,0,0,.693.427,4.2,4.2,0,0,0,.864.228,2.439,2.439,0,0,0,.375,0,2.008,2.008,0,0,0,.712-.147c.152-.066.28-.1.427-.176.28-.138.565-.261.845-.394.247-.133.494-.28.731-.437a5.771,5.771,0,0,0,1.609-1.628,6.554,6.554,0,0,0,1.149-3.722v-.233a6.686,6.686,0,0,0-.356-1.88,6.415,6.415,0,0,0-1.092-1.894,5.811,5.811,0,0,0-.584-.66,8.876,8.876,0,0,0-1.476-1.22,10.192,10.192,0,0,0-2.905-1.329c-.351-.095-.745-.166-1.12-.228a9.483,9.483,0,0,0-1.106-.109,12.006,12.006,0,0,0-2.022-.019,13.188,13.188,0,0,0-2.606.385,13.547,13.547,0,0,0-2.431.817l-.712.342c-.057.033-.095.076-.138.1a.427.427,0,0,0-.09.252v.152a.738.738,0,0,0,.057.161,1.021,1.021,0,0,0,.076.1c.038.024.057.062.114.071l1.5,1.381c.408.356.8.736,1.2,1.139a32.59,32.59,0,0,1,5.151,6.845l.541.916m42.074-16.819-1.7,1.913c-.973,1.078-1.984,2.127-3.033,3.162q-2.115,2.122-4.367,4.111c-.978.864-1.97,1.7-2.962,2.5-1.12.916-2.283,1.823-3.461,2.7a101.4,101.4,0,0,1-9.518,6.314c-1.239.722-2.469,1.415-3.745,2.07l-2.53,1.3c-.389.19-.783.389-1.182.579-.318.161-.674.318-1.03.465a12.746,12.746,0,0,1-2.2.65,10.769,10.769,0,0,1-1.576.252,14.379,14.379,0,0,1-3.47-.085,10.919,10.919,0,0,1-2.2-.513c-.475-.166-.921-.347-1.377-.555-.356-.176-.726-.366-1.063-.56-.394-.218-.769-.432-1.12-.627-.076-.047-.119-.1-.157-.119a.4.4,0,0,0-.28-.057.506.506,0,0,0-.394.214c-.038.047-.09.109-.09.157a1.331,1.331,0,0,0-.109.46,2.108,2.108,0,0,0-.062.479c0,.157-.014.3-.014.465a5.537,5.537,0,0,0,0,.888c.014.294.038.574.076.878a5.981,5.981,0,0,0,.318,1.192c.071.247.166.494.237.726.152.422.318.821.508,1.234a15.252,15.252,0,0,0,2.587,3.978c.237.294.5.57.783.854a15.788,15.788,0,0,0,1.13,1.125,16.116,16.116,0,0,0,1.211,1.092,18.975,18.975,0,0,0,3.579,2.25c.394.195.793.37,1.182.546q.563.221,1.125.456c.09.028.209.038.318.062a1.77,1.77,0,0,0,1.31-.342,1.8,1.8,0,0,0,.394-.356,1.481,1.481,0,0,0,.3-.6.657.657,0,0,0,.038-.271c.052-.214.071-.418.114-.6.076-.252.147-.494.237-.741a4,4,0,0,1,1.258-1.5,1.534,1.534,0,0,1,.228-.195l2.321-1.633c1.277-.9,2.549-1.856,3.783-2.829a131.247,131.247,0,0,0,10.059-8.687c1.239-1.168,2.435-2.355,3.617-3.594a51.882,51.882,0,0,0,5.6-6.969c.617-.9,1.2-1.842,1.737-2.782a34.159,34.159,0,0,0,1.723-3.223l.826-1.69a7.165,7.165,0,0,0,.432-.935,11.812,11.812,0,0,0,.707-1.842c.157-.389.247-.8.375-1.225l.1-.3a.457.457,0,0,0-.019-.157.441.441,0,0,0-.1-.138.381.381,0,0,0-.256-.043.268.268,0,0,0-.19.09" transform="translate(20.05 45.778)" fill="#fff" fill-rule="evenodd"/>
      </g>
    </g>
  </g>
</svg>
