<svg xmlns="http://www.w3.org/2000/svg" xmlns:xlink="http://www.w3.org/1999/xlink" width="270" height="270" viewBox="0 0 270 270">
  <defs>
    <filter id="楕円形_22" x="0" y="0" width="270" height="270" filterUnits="userSpaceOnUse">
      <feOffset dx="5" dy="5" input="SourceAlpha"/>
      <feGaussianBlur stdDeviation="5" result="blur"/>
      <feFlood flood-opacity="0.6"/>
      <feComposite operator="in" in2="blur"/>
      <feComposite in="SourceGraphic"/>
    </filter>
    <clipPath id="clip-path">
      <rect id="長方形_578" data-name="長方形 578" width="220" height="220.003" fill="none"/>
    </clipPath>
  </defs>
  <g id="グループ_1308" data-name="グループ 1308" transform="translate(-62 -8456)">
    <g transform="matrix(1, 0, 0, 1, 62, 8456)" filter="url(#楕円形_22)">
      <circle id="楕円形_22-2" data-name="楕円形 22" cx="120" cy="120" r="120" transform="translate(10 10)" fill="#fff"/>
    </g>
    <g id="グループ_436" data-name="グループ 436" transform="translate(82 8475.999)" clip-path="url(#clip-path)">
      <path id="パス_2015" data-name="パス 2015" d="M215.781,108.292A107.491,107.491,0,1,1,108.291.8,107.491,107.491,0,0,1,215.781,108.292" transform="translate(1.709 1.712)" fill="#fff"/>
      <path id="パス_2016" data-name="パス 2016" d="M110,220A110,110,0,1,1,220,110,110.123,110.123,0,0,1,110,220M110,5.022A104.981,104.981,0,1,0,214.981,110,105.1,105.1,0,0,0,110,5.022" transform="translate(0 0.001)" fill="#0d2142"/>
      <path id="パス_2017" data-name="パス 2017" d="M26.322,26.153c0,.74,0,1.54.471,1.54.279,0,.461-.289.461-.863V22.179h1.791V26.5c0,1.879-.678,2.93-2.133,2.93-1.594,0-2.343-1.139-2.2-3.272Z" transform="translate(52.776 47.394)" fill="#0d2142"/>
      <path id="パス_2018" data-name="パス 2018" d="M26.29,29.237l1.973-7.058H30.1l1.967,7.058H30.283l-.235-.925H28.263l-.223.925Zm2.873-4.925-.543,2.516h1.117Z" transform="translate(56.178 47.394)" fill="#0d2142"/>
      <path id="パス_2019" data-name="パス 2019" d="M28.3,29.242V22.178h2.666a2.136,2.136,0,0,1,2.34,2.381c0,1.525-.706,2.481-2.3,2.481h-.894v2.2ZM30.858,25.4c.43,0,.74-.226.74-.831,0-.646-.6-.747-.963-.747h-.527V25.4Z" transform="translate(60.462 47.392)" fill="#0d2142"/>
      <path id="パス_2020" data-name="パス 2020" d="M29.943,29.237l1.989-7.058h1.832l1.967,7.058H33.939l-.207-.925h-1.8l-.207.925Zm2.889-4.925-.558,2.516h1.132Z" transform="translate(63.984 47.394)" fill="#0d2142"/>
      <path id="パス_2021" data-name="パス 2021" d="M35.624,26.028l-.056-1.6V22.179h1.719v7.058H35.608L33.62,25.391,33.711,27v2.237H31.985V22.179h1.681Z" transform="translate(68.348 47.394)" fill="#0d2142"/>
      <path id="パス_2022" data-name="パス 2022" d="M34.033,29.239V22.178h4.476v1.641H35.83v1.016h2.28v1.644H35.83V27.6H38.6v1.644Z" transform="translate(72.723 47.392)" fill="#0d2142"/>
      <path id="パス_2023" data-name="パス 2023" d="M38.834,24.355a.526.526,0,0,0-.251-.471.853.853,0,0,0-.477-.138c-.38,0-.574.144-.574.408,0,1.054,3.168.408,3.168,2.977a2.29,2.29,0,0,1-2.578,2.422,2.383,2.383,0,0,1-2.44-2.371h1.747a.723.723,0,0,0,.3.568.763.763,0,0,0,.5.173c.442,0,.762-.185.762-.5,0-1.085-3.178-.345-3.178-3.049a2.142,2.142,0,0,1,2.381-2.252,2.244,2.244,0,0,1,2.362,2.237Z" transform="translate(76.245 47.263)" fill="#0d2142"/>
      <path id="パス_2024" data-name="パス 2024" d="M37.554,29.239V22.178h4.461v1.641H39.336v1.016h2.271v1.644H39.336V27.6h2.782v1.644Z" transform="translate(80.247 47.392)" fill="#0d2142"/>
      <path id="パス_2025" data-name="パス 2025" d="M41.906,26.767v2.472H40.08V22.178h2.607c1.838,0,2.428.624,2.428,2.011,0,.816-.279,1.509-.91,1.716.574.279.925.464.925,1.876,0,.919-.031,1.23.191,1.23v.229H43.5A6.226,6.226,0,0,1,43.408,28c0-.919-.132-1.23-.96-1.23Zm0-1.54H42.6c.574,0,.866-.191.866-.671a.666.666,0,0,0-.721-.734h-.838Z" transform="translate(85.645 47.392)" fill="#0d2142"/>
      <path id="パス_2026" data-name="パス 2026" d="M42.014,29.239V22.178h4.476v1.641H43.824v1.016h2.268v1.644H43.824V27.6H46.61v1.644Z" transform="translate(89.778 47.392)" fill="#0d2142"/>
      <path id="パス_2027" data-name="パス 2027" d="M46.834,24.355a.666.666,0,0,0-.264-.471.854.854,0,0,0-.471-.138c-.4,0-.565.144-.565.408,0,1.054,3.153.408,3.153,2.977a2.29,2.29,0,0,1-2.578,2.422,2.408,2.408,0,0,1-2.444-2.371h1.725a.931.931,0,0,0,.311.568.782.782,0,0,0,.511.173c.461,0,.756-.185.756-.5,0-1.085-3.153-.345-3.153-3.049a2.139,2.139,0,0,1,2.371-2.252,2.253,2.253,0,0,1,2.356,2.237Z" transform="translate(93.308 47.263)" fill="#0d2142"/>
      <path id="パス_2028" data-name="パス 2028" d="M45.428,22.178h5.038v1.854H48.844v5.207H47.049V24.032H45.428Z" transform="translate(97.072 47.392)" fill="#0d2142"/>
      <path id="パス_2029" data-name="パス 2029" d="M47.136,29.237l1.957-7.058h1.848l1.982,7.058H51.117l-.207-.925H49.093l-.207.925Zm2.873-4.925-.558,2.516h1.132Z" transform="translate(100.723 47.394)" fill="#0d2142"/>
      <path id="パス_2030" data-name="パス 2030" d="M49.174,22.178h1.8v4.228c0,.7.132,1.286.853,1.286.646,0,.838-.527.838-1.286V22.178h1.829v3.974c0,2.268-.841,3.272-2.666,3.272-1.71,0-2.651-.828-2.651-3.272Z" transform="translate(105.078 47.392)" fill="#0d2142"/>
      <path id="パス_2031" data-name="パス 2031" d="M52.989,26.767v2.472h-1.81V22.178H53.8c1.823,0,2.428.624,2.428,2.011a1.657,1.657,0,0,1-.916,1.716c.565.279.916.464.916,1.876,0,.919-.016,1.23.191,1.23v.229H54.6A7.431,7.431,0,0,1,54.507,28c0-.919-.135-1.23-.96-1.23Zm0-1.54h.725c.558,0,.85-.191.85-.671a.671.671,0,0,0-.737-.734h-.838Z" transform="translate(109.362 47.392)" fill="#0d2142"/>
      <path id="パス_2032" data-name="パス 2032" d="M52.958,29.237l1.957-7.058h1.857l1.957,7.058H56.939l-.207-.925H54.915l-.207.925Zm2.873-4.925-.558,2.516h1.132Z" transform="translate(113.163 47.394)" fill="#0d2142"/>
      <path id="パス_2033" data-name="パス 2033" d="M58.634,26.028l-.047-1.6V22.179H60.3v7.058H58.619l-1.973-3.846L56.721,27v2.237H55V22.179h1.694Z" transform="translate(117.517 47.394)" fill="#0d2142"/>
      <path id="パス_2034" data-name="パス 2034" d="M56.935,22.178h5.038v1.854H60.335v5.207H58.541V24.032H56.935Z" transform="translate(121.661 47.392)" fill="#0d2142"/>
      <path id="パス_2035" data-name="パス 2035" d="M14.553,22.672c0-.442-.088-.674-.445-.706l.119-.455c1.609.147,2.34.326,2.34.778,0,.163-.144.474-.216.991,1.619-.273,2.519-.75,2.87-.75a1.025,1.025,0,0,1,.969.838c0,.59-1.3.828-3.974,1.12l-.072.765a15.171,15.171,0,0,1,1.681-.129c2.516,0,4.2,1.452,4.2,3.407,0,2.481-2.24,4.2-6.186,4.037l-.1-.54c2.842-.273,4.4-1.725,4.4-3.767a2.387,2.387,0,0,0-2.309-2.434,1.356,1.356,0,0,1,.1.524,5.291,5.291,0,0,1-1.4,2.789,4.668,4.668,0,0,1,.295,1.054c0,.439-.471.762-1.208.762-.263,0-.423-.1-.558-.427a3.886,3.886,0,0,1-2.24.938,1.522,1.522,0,0,1-1.59-1.722c0-1.716,1.2-3.287,3.328-4.094V24.6H13.509c-1,0-1.264-.1-1.75-1.23l.455-.26a1.337,1.337,0,0,0,1.223.48l1.117-.072Zm1.59,3.3a8.726,8.726,0,0,0,.119,1.794,2.717,2.717,0,0,0,.869-1.691v-.257Zm-1.59.533a3.384,3.384,0,0,0-1.913,2.7c0,.486.191.759.558.759a2.918,2.918,0,0,0,1.546-.8,18.118,18.118,0,0,1-.191-2.666" transform="translate(23.986 45.966)" fill="#0d2142"/>
      <path id="パス_2036" data-name="パス 2036" d="M20.086,27.959a5.674,5.674,0,0,0-.4,1.28c0,.326.339.656.339,1.06a1.05,1.05,0,0,1-1.092,1.016c-1.81,0-3.385-1.9-3.385-5.207,0-1.634.238-2.695.238-3.143a.943.943,0,0,0-.5-.8l.279-.464c1.559.433,2.371.935,2.371,1.292a12.5,12.5,0,0,0-.772,3.432c0,1.779.725,2.811,1.33,2.811.351,0,.662-.536,1.088-1.556Zm1.619-4.715A4.614,4.614,0,0,1,25.918,27.7c0,.728-.4,1.1-1.211,1.1-1.013,0-.765-.806-1.164-2.34-.4-1.493-.809-2.321-2.045-2.641Z" transform="translate(32.666 46.379)" fill="#0d2142"/>
      <path id="パス_2037" data-name="パス 2037" d="M25.6,26.145c-.047.709.367,1.107,1.164,1.107a1.827,1.827,0,0,0,1.957-1.688c0-.863-.678-1.393-1.854-1.393A7.7,7.7,0,0,0,23.1,25.5c1.173,3.319,2.014,5.345,2.014,6.249,0,.449-.238.7-.637.7-.631,0-1.073-.383-1.28-1.151a33.82,33.82,0,0,0-1.427-5.066,3.273,3.273,0,0,1-1.311.637c-.367,0-.806-.565-1.267-1.7l.445-.226c.119.226.248.345.4.345a8.759,8.759,0,0,0,1.28-.345,7.993,7.993,0,0,1-.709-1.819c0-.6.709-.957,2.152-1l.056.533c-.4.056-.543.119-.543.329a10.245,10.245,0,0,0,.471,1.509,32.472,32.472,0,0,1,3.36-.982A8.811,8.811,0,0,0,24.049,22.1l.207-.571c1.976.16,2.958.5,2.958,1.076a1.4,1.4,0,0,1-.351.775l.646-.031a2.506,2.506,0,0,1,2.829,2.578,2.753,2.753,0,0,1-3.065,2.729c-1.44,0-2.227-.681-2.227-1.892l.047-.624Z" transform="translate(41 46.016)" fill="#0d2142"/>
      <path id="パス_2038" data-name="パス 2038" d="M167.484,79.424a1.983,1.983,0,0,1-1.637.27c-.957,0-.693.552-.693.552a4.665,4.665,0,0,0-2.356-.5V25.357H14.127v57.9a6.274,6.274,0,0,0-2.707.151c-.957.408,0,1.088,0,1.088l-.957.819c1.371.546.144,1.647.144,1.647s-1.236-1.236-.693,1.9,1.092,2.186,1.092,2.186a1.035,1.035,0,0,1,.693,1.5c.414,1.1,2.428,1.183,2.428,1.183v4.6H162.8V85.051l.031-.019c.486-.367,2.873-1.634,2.873-1.634l1.371.125c.674-1.23,1.368-1.644,1.368-2.72,0-1.11-.147-1.926-.957-1.38m-9.323,14.295H18.753V91.482a39.442,39.442,0,0,1,6.8-2.682,23.447,23.447,0,0,1,7.616-.383c.678.047,1.49-.631,2.168-1.183a.744.744,0,0,0,1.029.207c1.415-1.355,3.209-.982,4.743-1.779,1.1-.565,2.1.166,3.24.047a5.248,5.248,0,0,1,1.371-.069c.216.031.351.42.558.445a32.789,32.789,0,0,0,3.548-.254,36.736,36.736,0,0,0,5.775-.279c1.5-.21,2.651,1.785,4.341,1.888.179,0,.37-.436.53-.43,3.463.289,6.672,1.518,10.072,2.4,1.65.408,3.344,1.6,5.264,1.932.439.069.38.5.806.392a3.378,3.378,0,0,1,3.46.979c.267.242.885.856,1.578-.094.678-.966,2.18-.119,3.033-.471a22.079,22.079,0,0,0,3-2.444c.828-.988,1.65.11,1.65.11,1.446-2.3,2.723-2.72,2.723-2.72,0-1.371,2.745-2.2,2.745-2.2a4.955,4.955,0,0,0-2.459-1.634,2.463,2.463,0,0,0-2.18.555,7.594,7.594,0,0,1-2.478,0,14.586,14.586,0,0,0-3.265-.292c-1.343.047-2.77-.568-4.272-.4-4.436-.455-8.865-.213-13.357-.643-.37-.041-.985-.248-1.063-.743-.088-.543-.1-1.029-.59-1.355.678-.734-.025-1.565.652-2.014.471-.348,1.383-.185,1.487-1a4.7,4.7,0,0,0-.621-3.19c-.706-1.032-2.02-1.405-2.619-2.553-1.327,1.123-1.264-1.641-2.786-.95-.662.295-1.575-.016-2.4.072-.176,0-.408-.433-.527-.392-.678.182-1.371.728-1.9.58-1.474-.38-2.754.191-4.15-.006-1.992-.27-3.727.423-5.715.527a1.483,1.483,0,0,0-1.123,1c-.486-.687-1.412-.329-1.882-.311-2.626.129-5.276.42-7.952.734-.869.1-1.826-.1-2.726-.035a3.283,3.283,0,0,0-2.315,1.437c-.144.16-.985.138-1.129.417-1.179,2.284-1.019,4.821-.367,7.334-3.1,1.644-7.03,1.308-10.311,1.612V45.79l.016.053c1.424,1.129,4.225,1.23,5.653,1.3a18.654,18.654,0,0,0,5.668-.806c1.506-.423,2.949-.944,4.467-1.38a3.709,3.709,0,0,1,1.81.151c2.03.568,4.4,2.842,6.672,1.179.072-.053.307.216.22.48a2.343,2.343,0,0,0,1.794-.693,14.139,14.139,0,0,1,7.453-3.256,5.562,5.562,0,0,1,3.918,1.452c.282.257.458-.449.753-.21,1.076.778.414,2.287,1.675,2.707-.185.194-.392.489-.558.486-1.22-.176-2.045-1.01-3.256-1.158-.16-.028-.734,0-.838-.411-1.176.477-2.045,1.3-1.424,2.745.025.1-.461.4-.414.486.69,1.659-1.211,2.826-.812,4.388.119.433.646.753,1.019,1.126-.565.169-.565.844-.988,1.211-.5.427-.549,1.3-1.2,1.8a5.962,5.962,0,0,0-2.516-2.371c-1.446-.869-2.993-.135-4.583-.254-.486-.016-1.5-.1-1.531-.678-.016-.417.223-1.374.957-1.27s1.4-.2,1.9-.141a6.173,6.173,0,0,0,2.977-.649c1.292-.449,1.013-2.274.408-2.946-.693-.8-1.368-1.986-2.851-1.339-.078.047-.389-.433-.477-.4a10.9,10.9,0,0,1-3.058.273,43.292,43.292,0,0,1-6.274.311c-2.993-.138-5.938.922-8.68,2.011a4.513,4.513,0,0,0-2.691,3.09c-.166.916,1.283,1.418,1.675,1.753,1.637,1.415.386,3.67.737,5.643.558,3.385-1.559,6.474-1.559,9.818A3.423,3.423,0,0,0,25.793,73c.5.59,1.145,1.393,1.813.988,1.029-.652,2-1.612,2.93-2.089,1.189-.593,3,.085,4.508-.16a21.685,21.685,0,0,0,3.959-.6c1.647-.59,3.786-.38,5.58-.979,1.242-.4,2.811-1.1,3.049-2.13.254-1.142.916-1.628.8-2.939-.047-.4-.533-.345-.765-.232A13.14,13.14,0,0,1,40.815,66.4c-.414-.013-.342-.53-.223-.731a3.924,3.924,0,0,1,2.152-1.38c.351-.132.634.427,1.073.257,2.431-.878,4.762-2.412,5.464-4.919.458.841.119,1.942.665,2.644a2.314,2.314,0,0,0,1.794,1.095c.9-.066,2.077,0,2.594-.587a5.632,5.632,0,0,1,2.676-1.261c1.594-.524,3.375-.245,5.17-.907a5.088,5.088,0,0,1,4.213.276c.929.577,1.829.376,2.833.665a.389.389,0,0,1,.279.527,6.4,6.4,0,0,0,3.767-1.694.488.488,0,0,0-.207-.759c1.637-1.794-1.634-2.519-1.634-4.385-2.651-.367-5.27.2-7.924-.06-1.192-.132-2.6-.238-2.961-1.594-.367-1.452.74-2.789.549-4.05-.088-.508.16-.85-.166-1.339-.176-.279-.91.223-1.248-.358a.325.325,0,0,1,.263-.489c1.55,0,2.93.295,4.329-.4.445-.223.166-1.383.59-1.4,1.06-.038,1-1.211,1.637-1.148,3.711.373,7.259-.238,10.957.107.631.085,1.236-.536,1.913-.427,1.252.216,2.563-.875,3.1-1.565.543-.662.543-.938-.533-2.3-1.107-1.358-1.65-.96-2.6-.96a19.813,19.813,0,0,0-3.008-.3c-2.193.151-4.228-.5-6.525-.734-.706-.069-.85-1.023-1.534-1.49-.631-.417-.853-1.631-1.336-2.45-.605-1.029-1.738-2.246-2.622-2.262-1.3-.006-2.826.273-4.153-.747a1.144,1.144,0,0,0-1.236,0c-.932.916-1.562,1.763-1.236,3.206.041.151-.326.326-.461.543-.336.637.59,1.534-.056,1.779-1.057.417-1.989,1.079-3.287.207-.659-.445-1.471.163-2.133.191-2.858.056-7.215.417-8.027-3.532-.041-.232-.4.48-.69.229-1.81-1.434-3.959-1.459-6.038-1.525a2.328,2.328,0,0,0-2.045,1.063c-.725,1.684.207,4.144-1.609,4.893-3.444,1.408-7.745.891-11.114,2.233a12.146,12.146,0,0,0-3.463,1.578V30.006H158.161V80.493c-3.623-.5-6.936.022-10.59-.762-.778-.157-1.622-.869-2.506-.762-.32.038-.674.715-1.041.383-.295-.242-.765-.056-.885-.474-2.858.881-5.537-.627-8.441-.176-1.6.267-3.121.194-4.7.383-.16.019-.4-.276-.486-.5a1.347,1.347,0,0,1,.812-1.807c2.412-.668,4.975-1.107,7.274-.4,1.076.314,2.048-.088,3.093.025-.119-.449.307-.593.558-.769.2-.135.69.035.737-.085.295-.775.941-.866,1.324-1.405.326-.449.016-.775.191-1.339.549-1.863-1.459-2.318-2.87-2.8-3.356-1.142-8.542.938-10.1-2.707-.235-.568,1.283-1.06,1.945-1.1a54.266,54.266,0,0,1,7.939-.311,3.287,3.287,0,0,1,1.543.53c.621.518.621.765,1.474.891a2.828,2.828,0,0,0,2.356-1.095c.191-.207,0-.881-.016-1.283-.113-2,.088-4.1-.678-6.136-.16-.439,1.418-.809,2.462-.226.072.035.38-.452.483-.383a5.707,5.707,0,0,0,3.3-.176c.38-.1.411-.957.825-.919,2.387.242,5.656-1.452,4.978-3.567-.248-.8-1.785-.725-2.578-.831a57.066,57.066,0,0,0-11.148-.43c-.263.016-.574-.652-.822-.627-1.609.191-2.993-.019-4.611.311-.191.038-.753-.031-.853.4-.681-.348-1.383.119-1.885.078-1.766-.235-3.328.474-5.079-.358-.477-.213-1.568.242-2.61.342-.191.019-.383.449-.518.417-2.146-.439-4.015.229-6.038.031a.382.382,0,0,1-.279-.511c-.922.326-1.543.273-2.284,1.013-.511.543-1.148-.74-1.766-.383a5.133,5.133,0,0,1-1.164.662c-1.75.4-3.463-.775-4.683,1.151-.1.169-.351-.072-.483-.263.427-.094.364-.631.4-.831.238-.994.4-2.387.988-2.444,1.913-.163,3.623-1.732,5.477-.59.311.176.634-.467,1.06-.213.223.141.455.486.486.455,2.34-1.694,4.683.383,6.791-.471A10.513,10.513,0,0,1,130,49.589c3.121.207,6.129-.213,9.37.392.75.157,1.06-.759,1.663-1.38a10.056,10.056,0,0,1,.957-.455,10.067,10.067,0,0,0,2.531-2c1.179-1.559,1.283-3.752,3.168-5.141.191-.154.16-1.183.91-.972-.16-.5.533-.863.27-1.336-.477-.869-1.267-1.349-1.518-2.431-.088-.464-1.22-.458-1.4-1.158-.009-.1.326-.4.182-.449a7.526,7.526,0,0,0-4.291-.1c-.969.207-2,1.126-3.043.969a7.716,7.716,0,0,1-3.909-1.151c-.232-.176-.69.367-1.041.389-2.654.242-5.3-.452-7.867.075a30.38,30.38,0,0,1-7.183.687c-1.43-.129-2.92.511-4.363.543-.555.013-1.3-.6-1.854-.32a2.188,2.188,0,0,1-1.4.141c-.216-.028-.367-.389-.571-.461a3.1,3.1,0,0,0-2.168.295c-1.045.408-.853,1.524-.957,2.428-.232,1.738-.483,3.971,1.092,4.941a3.524,3.524,0,0,0,2.707.2,21.694,21.694,0,0,1,7.516-2.29,3.179,3.179,0,0,0,.91-.32,2.035,2.035,0,0,1,1.327.035c2.3.574,4.341-1.1,6.832-.568,1.139.245,2.375-.687,3.488-.48,1.434.273,2.773.119,4.109.48.549.141.891.935,1.434,1.2.455.194,1.1-.053,1.59.119a1.815,1.815,0,0,1,1.029,1.854c-.016.445-.693.731-1.019.731-3.105-.038-6.123-.364-9.3.282-.151.038-.326-.367-.549-.414-1.1-.251-2.387-.072-3.328-.442-1.045-.411-2.387.646-3.432.242-1.117-.414-2.237.439-3.074.445-1.844.05-3.717,1.2-5.4.408-1.418-.678-2.9-.408-4.188-.433a13.925,13.925,0,0,0-3.5.631c-.662.188-.678,1.136-1.308,1.663-.326.257.216.816.423,1.292.471.941-1.088,1.324-.706,2.133.339.731.1,1.656.778,2.183,3.582,2.757,1.992,7.384.9,10.926a21.864,21.864,0,0,1-1.013,2.475,3.676,3.676,0,0,1-1.575,1.876c-1.283.558-2.271,1.471-3.582,1.87-.91.279-2.064.11-3.033.4l-.383.169c-1.769.263-2.591.819-4.062.91-1.267.088-4.244,0-4.244,0-1.487.549-1.9.693-1.9.693a1.7,1.7,0,0,0-1.5-.972A1.173,1.173,0,0,1,83.95,68.9c-.678-.565-1.22.4-1.22.4-1.371-.129-1.371,2.2-2.343,3.272a2.626,2.626,0,0,1-1.766,1.1c0,1.1.144,2.616.144,2.616s-.693.4,0,1.214c.678.822,2.2.552,2.2.552,1.371,1.227,1.634.819,1.634.819.678-.966,1.637.129,1.637.129.822,0,.687,1.368.687,1.368.414,0,3.551-.4,3.551-.4,2.858-2.061,3.551-2.052,3.551-2.052a8.509,8.509,0,0,1,2.563-.806c.806,0,1.314.392,1.794.392,1.678-.847,3.137-2.045,4.878-2.889.486-.232.9-1.22,1.3-1.59,1.277-1.1,2.469-2.271,3.824-3.341.254-.191.461-.982.769-1.415,1.076-1.437,2.754-2.249,3.385-3.9.4-1.035.151-2.233.621-3.272,1.252.693,2.961-.853,3.265-.138.518,1.277-1.129,3.084-.938,4.8a2.16,2.16,0,0,0,3.369,1.565A7.342,7.342,0,0,1,121,66.189c.455.006.972.59,1.594.8.9.314.088,1.565-.518,1.637-1.28.169-2.4,1.136-3.664.025-.461-.408-.4,1.007-.972,1.126-2.108.423-4.2.471-5.157,2.553-.238.48.311.731.455,1.107.311.8-.79,1.013-.972,1.628a2.476,2.476,0,0,0,1.625,3.068c.794.16,1.631.367,2.133-.624,1.236,1.267,3.08-.769,4.285-.113a4.337,4.337,0,0,0,2.02.326c.144.016.351-.414.543-.42.637-.072,1.355-.342,1.9.207-.323.317-.471,1.095-.765.991-.769-.345-1.383.16-1.973.3-.135.031-.414-.423-.486-.4a14.552,14.552,0,0,1-4.991,1.261,46.634,46.634,0,0,0-5.129,1.095,27.314,27.314,0,0,1-3.033.631c-.311.013-.383.627-.841.486-.292-.113-.4-.706-.79-.511-.342.176-.574.709-.859.709a16.51,16.51,0,0,0-3.535.169c-.423.1-.678.709-1.117.963-.207.129-.649-.044-.75.091a2.043,2.043,0,0,0-.235,2.1c.543,1.179.295,2.259.69,3.24a2.133,2.133,0,0,0,2.462.543,14.162,14.162,0,0,1,6.051-1.719,13.7,13.7,0,0,0,5.637-1.173c1.283-.533,2.729-.907,4.021-1.474a6.16,6.16,0,0,1,4.244-.605c.734.254,1.4.765,2.221.627.207-.022.4-.452.549-.411a55.34,55.34,0,0,0,8.746.765,13.579,13.579,0,0,1,5.364.762c2.293,1.041,4.768.819,7.039,2.067,1.575.872,3.56.583,5.389.631.16.009.336-.383.543-.436,1.961-.449,3.463,1.1,5.436.332ZM33.434,79.085c1.841-.427,3.639-1.976,5.057-1.4.778.339.969,3.607-.4,3.6-1.807-.016-3.814.853-5.358-.223-.709-.486-.367-1.741.706-1.982m14.213.21c-.351.612-.056,1.612-.838,1.857-.414.107-.976.339-1.358-.213-.5-.74-.869.263-1.371.025a1.7,1.7,0,0,1-1.013-1.39c-.132-1.038-.22-2.641,1.283-2.378.32.041.5.543.853.7.621.295,1.236-.333,1.9-.191.944.191-.176,1.23.546,1.59m4.643-1.368c.423-.1.129-.812.543-.765.207.035.367.455.53.439a6.156,6.156,0,0,1,1.6-.3c1.562.486,2.666,1.2,4.42,1.286.662.031.794,1.01.455,1.459-.574.775-1.779.2-2.359,1.157-.367-.5-.922-.135-1.365-.263-1.343-.392-2.726.728-3.714.1-.941-.605.223-2-.113-3.115M32.863,62.055c-.8.047-1.841.709-2.685.238-.91-.5.151-1.474.59-1.732a6.981,6.981,0,0,1,2.666-1.274c.75-.028,1.65.06,2.447-.025,1.352-.138,2.666-.59,4.122-.3.223.041.5-.605.828-.627,1.2-.154,3.313-.966,3.545.486.1.863-1.352,1.06-2.5.972-.264-.031-.8.527-1.33.314-.216-.056-.439-.449-.527-.411a23.941,23.941,0,0,0-3.607,1.766c-1.088.709-2.459.486-3.548.59m2.974,3.513c-.753.59-1.176,1.609-1.917,1.816-1.336.37-3.551,1.264-3.974.06-.69-2.014,2.666-2,4.285-2.362.486-.119.916.072,1.412-.154.27-.135.311.533.194.64M31.524,53.629c.59-.129,1.22-.543,1.587-.423A5.006,5.006,0,0,0,36.5,53.2c.235-.125,1.06.464.925.919-.486,1.641-2.666,1.465-3.959,1.214-.869-.147-1.28-.822-2.2-1.255-.16-.072.016-.408.254-.445m94.385,7.676c-.135.038-.367-.417-.518-.414-1.782.188-4.768.957-4.887-1.427,0-.188.339-.5.5-.48a23.546,23.546,0,0,1,4.451.549c.279.094.941-1.092,1.562-1.035a25.108,25.108,0,0,1,3.9.414c1.546.436,3.388-.361,5.129-.48.16-.006.383.43.543.43a2.251,2.251,0,0,1,2.149,1.176c.238.389-.326.674-.527.693-2.92.455-5.819.213-8.717.389a12.7,12.7,0,0,0-3.582.185" transform="translate(20.89 54.185)" fill="#0d2142"/>
      <path id="パス_2039" data-name="パス 2039" d="M34.254,39.306c.056-.621-1.164-.935-1.8-1.183a5.047,5.047,0,0,0-3.711-.348,22.17,22.17,0,0,1-4.125,1.339.7.7,0,0,0-.527.991,6.709,6.709,0,0,0,2.277,2.281c1.314.888,3.168.511,4.777.3a11.492,11.492,0,0,1,1.926-.21c1.738.1,1.092-1.961,1.179-3.174" transform="translate(51.31 80.228)" fill="#0d2142"/>
    </g>
  </g>
</svg>
