<svg xmlns="http://www.w3.org/2000/svg" xmlns:xlink="http://www.w3.org/1999/xlink" width="240" height="240" viewBox="0 0 240 240">
  <defs>
    <clipPath id="clip-path">
      <rect id="長方形_703" data-name="長方形 703" width="220" height="220" fill="none"/>
    </clipPath>
  </defs>
  <g id="グループ_1328" data-name="グループ 1328" transform="translate(-172 -6993.063)">
    <g id="グループ_573" data-name="グループ 573" transform="translate(-65 6331.063)">
      <circle id="楕円形_22" data-name="楕円形 22" cx="120" cy="120" r="120" transform="translate(237 662)" fill="#fff"/>
      <g id="グループ_574" data-name="グループ 574" transform="translate(247 672)" clip-path="url(#clip-path)">
        <path id="パス_7187" data-name="パス 7187" d="M220,110.017A110,110,0,1,1,109.976,0,109.981,109.981,0,0,1,220,110.017" transform="translate(0 -0.001)" fill="#5c2e17"/>
        <path id="パス_7188" data-name="パス 7188" d="M61.047,67.009c-.143-.087-2.236-1.24-4.066-2.253a19.274,19.274,0,0,0,4.6-12.311V47.83a5.905,5.905,0,0,0-5.939-5.855H32.663A2.143,2.143,0,0,0,30.5,44.13v7.137a2.157,2.157,0,0,0,2.166,2.159H48.544c-.849,5.918-9.46,11.539-17.977,14.218a2.083,2.083,0,0,0-1.558,1.991v7.479A2.187,2.187,0,0,0,31.2,79.257c.154,0,.367-.024.541-.024a69.93,69.93,0,0,0,15.836-6.613c2.938,1.638,10.92,6.078,11.308,6.309a2.233,2.233,0,0,0,2.166-.038,2.077,2.077,0,0,0,1.041-1.848V68.853a2.111,2.111,0,0,0-1.041-1.844" transform="translate(72.331 104.66)" fill="#fff"/>
        <path id="パス_7189" data-name="パス 7189" d="M69.474,54.525l-.412-.049c-4.817-.507-11.308-1.265-17.03-3.451v-6.9a2.152,2.152,0,0,0-2.141-2.148H41.526a2.121,2.121,0,0,0-2.141,2.148V76.712a2.143,2.143,0,0,0,2.141,2.18H49.89a2.175,2.175,0,0,0,2.141-2.18V63.105A97.844,97.844,0,0,0,68.988,65.97a1.983,1.983,0,0,0,1.7-.51,2.184,2.184,0,0,0,.709-1.607v-7.2a2.157,2.157,0,0,0-1.925-2.124" transform="translate(98.202 104.665)" fill="#fff"/>
        <path id="パス_7190" data-name="パス 7190" d="M53.414,41.3H48.988a2.094,2.094,0,0,0-1.467.6,2.132,2.132,0,0,0-1.478-.6H41.564a2.195,2.195,0,0,0-2.145,2.2V47.89a1.819,1.819,0,0,0,.049.36H37.917c.213-.94.388-1.841.412-2a2.181,2.181,0,0,0-.437-1.792,2.085,2.085,0,0,0-1.652-.8H28.552a2.2,2.2,0,0,0-2.138,1.75c-.024.185-.3,1.624-.534,2.844H21.208a2.195,2.195,0,0,0-2.19,2.173v7.151a2.153,2.153,0,0,0,2.19,2.141h2.33l-1.114,5.74c-.318,1.541-.982,2.6-3.434,3.675a2.188,2.188,0,0,0-1.261,1.981v7.665a2.06,2.06,0,0,0,.9,1.768,2.018,2.018,0,0,0,1.24.374,1.734,1.734,0,0,0,.678-.087c5.383-1.81,11.8-4.9,13.533-13.362l1.555-7.752h6.152l.024,9.39H37.893a2.2,2.2,0,0,0-2.162,2.166V78.4a2.2,2.2,0,0,0,2.162,2.173H48.551a5.894,5.894,0,0,0,5.9-5.851V54.129a5.867,5.867,0,0,0-1.642-4.073h.6a2.136,2.136,0,0,0,2.162-2.166V43.505a2.16,2.16,0,0,0-2.162-2.2" transform="translate(44.205 102.979)" fill="#fff"/>
        <path id="パス_7191" data-name="パス 7191" d="M54.083,42.592a3.731,3.731,0,0,1,3.773,3.7v4.615c0,4.562-1.928,8.873-5.691,12.695l-.175.175s6.208,3.469,6.375,3.542v8.188c-.486-.255-12.409-6.948-12.409-6.948l-.094.07a63.642,63.642,0,0,1-16.227,6.948V68.1c9.439-2.907,19.56-9.485,19.56-17.191V49.729h-18.1V42.592Z" transform="translate(73.894 106.198)" fill="#1a1311"/>
        <path id="パス_7192" data-name="パス 7192" d="M48.361,42.592v8.314c6.494,2.844,14.036,3.637,19.36,4.21v7.2c-8.1-.884-13.233-1.614-19.36-3.706V75.178H40V42.592Z" transform="translate(99.731 106.198)" fill="#1a1311"/>
        <rect id="長方形_701" data-name="長方形 701" width="4.479" height="4.391" transform="translate(85.766 146.478)" fill="#1a1311"/>
        <rect id="長方形_702" data-name="長方形 702" width="4.426" height="4.391" transform="translate(93.19 146.478)" fill="#1a1311"/>
        <path id="パス_7193" data-name="パス 7193" d="M34.711,42.592c-.073.374-.922,4.608-.922,4.608H47.022a3.778,3.778,0,0,1,3.8,3.706V71.5a3.761,3.761,0,0,1-3.8,3.675H36.367v-7.13h6.079V54.354H32.325l-1.9,9.485c-1.478,7.242-6.906,10.012-12.087,11.713V67.891c2.819-1.244,4.154-2.714,4.65-5.268l1.677-8.269H19.679V47.2H26.1s.877-4.353.922-4.608Z" transform="translate(45.731 106.198)" fill="#1a1311"/>
        <path id="パス_7194" data-name="パス 7194" d="M183.162,37.493a4.86,4.86,0,0,0-1.457-3.549,5.029,5.029,0,0,0-3.605-1.513H162.513l-1.1-7.661a5.036,5.036,0,0,0-4.982-4.44h-9.9a4.955,4.955,0,0,0-3.773,1.7,4.646,4.646,0,0,0-1.289,3.333,4.912,4.912,0,0,0,.049.765l.9,6.3h-9.153a5.027,5.027,0,0,0-5.027,5.062v8.954a4.808,4.808,0,0,0,1.432,3.493,4.963,4.963,0,0,0-1.362,3.438v1.01a4.388,4.388,0,0,0-.73-.094H108.973a5.265,5.265,0,0,0,.461-2.11V43.3a4.9,4.9,0,0,0-1.488-3.591,5.138,5.138,0,0,0-1.68-1.128,4.8,4.8,0,0,0,.566-2.26V27.338a5.25,5.25,0,0,0-1.464-3.6,5.18,5.18,0,0,0-3.574-1.425l-39.479-.031a5.038,5.038,0,0,0-5.062,5.058v8.978a4.791,4.791,0,0,0,.559,2.26A4.46,4.46,0,0,0,56.156,39.7a4.79,4.79,0,0,0-1.5,3.591v8.887a5.007,5.007,0,0,0,1.453,3.556,5.094,5.094,0,0,0,3.574,1.53h12.6v9.174H65.62c-1.338,0-6.934.024-8.244.024-.122,0-.3-.024-.534-.024L46.431,51.564l7.713-14.071.238-.94.119-.51V27.118a5.206,5.206,0,0,0-1.408-3.525,5.117,5.117,0,0,0-3.644-1.537H15.294a5.121,5.121,0,0,0-3.679,1.558,5.018,5.018,0,0,0-1.383,3.5V36.34a5.093,5.093,0,0,0,5.062,5.051H29.425L15.532,66.062c-.168,0-.332.014-.629.014H12.255A5.543,5.543,0,0,0,8.6,67.62a5.218,5.218,0,0,0-1.408,3.591v9.167A5.074,5.074,0,0,0,8.6,83.92a5.2,5.2,0,0,0,3.654,1.544h5.593a17.23,17.23,0,0,0,8.293-1.824,14.882,14.882,0,0,0,6.079-6.47L35.8,70.733l5.81,8.747.049.045a14.378,14.378,0,0,0,7.081,5.411,17.929,17.929,0,0,0,6.152.852l2.459-.024c1.334.024,6.955-.119,8.269-.119H77.054A14.457,14.457,0,0,0,92.037,70.527V57.269H99.1a4.784,4.784,0,0,0-.541,2.107v8.07a5.03,5.03,0,0,0,1.537,3.567,4.864,4.864,0,0,0,3.549,1.5h23.937a5,5,0,0,0,3.556-1.5,4.85,4.85,0,0,0,1.506-3.567v-.157a5.289,5.289,0,0,0,.73.087h12.646l1.439,14.4a5.034,5.034,0,0,0,5.006,4.576h9.925a4.986,4.986,0,0,0,3.7-1.656l.119-.094.056-.056a5.107,5.107,0,0,0,1.184-3.273,3.4,3.4,0,0,0-.045-.461l-1.362-13.439H178.03a5.215,5.215,0,0,0,3.605-1.506,5.142,5.142,0,0,0,1.432-3.563V53.378a4.918,4.918,0,0,0-1.362-3.438,4.73,4.73,0,0,0,1.457-3.493ZM57.327,71.561v-.024l.555-.524Z" transform="translate(17.935 50.69)" fill="#1a1311"/>
        <path id="パス_7195" data-name="パス 7195" d="M54.811,66.714a.826.826,0,0,0-.555-.224A18.134,18.134,0,0,1,52,66.322a2.577,2.577,0,0,1-1.345-1.079L38.267,47.521l8.761-15.909.073-.391v-8.4a.723.723,0,0,0-.192-.534.826.826,0,0,0-.541-.231H12.213a.66.66,0,0,0-.51.231.74.74,0,0,0-.238.534v9.216a.844.844,0,0,0,.238.541.77.77,0,0,0,.51.231H33.746L16.056,64.184c-.748,1.247-1.963,1.949-4.2,1.949H9.174a.705.705,0,0,0-.51.231.649.649,0,0,0-.238.541v9.174a.7.7,0,0,0,.238.559.647.647,0,0,0,.51.22h5.617a13.019,13.019,0,0,0,6.232-1.3A10.343,10.343,0,0,0,25.3,70.885l7.029-12.7,9.754,14.47a10.269,10.269,0,0,0,4.943,3.955,16.648,16.648,0,0,0,4.814.555l2.414-.007a.86.86,0,0,0,.555-.224.891.891,0,0,0,.224-.58V67.286a.987.987,0,0,0-.224-.573" transform="translate(21.009 54.989)" fill="#fff"/>
        <path id="パス_7196" data-name="パス 7196" d="M39.987,76.848H28.679a1.045,1.045,0,0,1-.541-.217.769.769,0,0,1-.168-.524V67a.781.781,0,0,1,.168-.5.858.858,0,0,1,.541-.206H36.7a2.677,2.677,0,0,0,2.117-.765,3.024,3.024,0,0,0,.828-2.236V48.447H22.74a.715.715,0,0,1-.507-.241.792.792,0,0,1-.224-.517V38.8a.857.857,0,0,1,.224-.548.917.917,0,0,1,.507-.2H67.449a.824.824,0,0,1,.517.2.808.808,0,0,1,.217.548v8.887a.722.722,0,0,1-.217.517.66.66,0,0,1-.517.241H50.817V66a10.653,10.653,0,0,1-3,7.9,10.391,10.391,0,0,1-7.8,2.952Zm-14.6-44.286a.805.805,0,0,1-.755-.741V22.847a.832.832,0,0,1,.22-.552.814.814,0,0,1,.534-.164H64.846a.7.7,0,0,1,.755.716v8.975a.651.651,0,0,1-.245.493.657.657,0,0,1-.51.248Z" transform="translate(54.88 55.181)" fill="#fff"/>
        <path id="パス_7197" data-name="パス 7197" d="M35.326,40.828a.646.646,0,0,1-.486-.192.666.666,0,0,1-.248-.524V32.036a.8.8,0,0,1,.2-.524.762.762,0,0,1,.534-.217H59.262a.711.711,0,0,1,.534.217.687.687,0,0,1,.22.524v8.077a.7.7,0,0,1-.22.524.8.8,0,0,1-.534.192Z" transform="translate(86.251 78.03)" fill="#fff"/>
        <path id="パス_7198" data-name="パス 7198" d="M63.018,78.97a.79.79,0,0,1-.734-.667l-1.8-18.319H43.919a.743.743,0,0,1-.534-.241.706.706,0,0,1-.189-.5V50.3a.864.864,0,0,1,.189-.5.713.713,0,0,1,.534-.206h15.5l-.493-5.474h-15.1a.662.662,0,0,1-.51-.255.862.862,0,0,1-.248-.5v-8.95a.743.743,0,0,1,.248-.51.627.627,0,0,1,.51-.255H57.98L56.324,22.4a.776.776,0,0,1,.175-.58.807.807,0,0,1,.583-.255h9.9a.761.761,0,0,1,.734.674L69.3,33.65H88.659a.775.775,0,0,1,.73.765v8.95a.856.856,0,0,1-.2.5.708.708,0,0,1-.531.255H70.267l.461,5.474H88.586a.752.752,0,0,1,.534.206,1.079,1.079,0,0,1,.189.5v8.943a.653.653,0,0,1-.238.5.6.6,0,0,1-.486.241H71.8l1.876,18.159a.752.752,0,0,1-.2.559.708.708,0,0,1-.531.269Z" transform="translate(107.383 53.764)" fill="#fff"/>
        <path id="パス_7199" data-name="パス 7199" d="M123.843,22.252a3.384,3.384,0,0,0,3.382-3.382V14.126a3.364,3.364,0,0,0-3.382-3.357h-10.05a2.947,2.947,0,0,0-.6.038,2.979,2.979,0,0,0-.583-.038h-8.37a3.358,3.358,0,0,0-3.357,3.357V18.87a3.359,3.359,0,0,0,1.289,2.641V27.52a3.163,3.163,0,0,0-.559-.224l-2.8-7.1a3.33,3.33,0,0,0,.273-1.327V14.126A3.359,3.359,0,0,0,95.7,10.769H84.483A3.364,3.364,0,0,0,81.1,14.126V18.87a3.161,3.161,0,0,0,.192,1.146L78.38,27.3l-.024.017a3.611,3.611,0,0,0-1.949-.989V23.031A3.339,3.339,0,0,0,79.277,19.7V14.126a3.367,3.367,0,0,0-3.406-3.357H60.354a3.579,3.579,0,0,0-1.607.405,3.273,3.273,0,0,0-1.583-.405H39.282a3.3,3.3,0,0,0-3.158,2.323l-1.359-1.376a3.427,3.427,0,0,0-2.389-.947H23.058a3.39,3.39,0,0,0-2.379.947L17.294,15.1a3.445,3.445,0,0,0-.992,2.4v6.253A3.368,3.368,0,0,0,17,25.77a3.39,3.39,0,0,0-.7,2.054v4.049a3.308,3.308,0,0,0,.992,2.379l3.385,3.4a3.506,3.506,0,0,0,2.379.985h9.317a3.545,3.545,0,0,0,2.389-.985l3.333-3.4a3.265,3.265,0,0,0,1.02-2.379V25.745a3.458,3.458,0,0,0-.685-2.068.464.464,0,0,1,.175-.224c.213,0,.437.049.674.049h2.676v4.367A3.314,3.314,0,0,0,40.7,30.5v4.758a3.371,3.371,0,0,0,3.35,3.382H52.4a3.385,3.385,0,0,0,3.385-3.382V30.5a3.344,3.344,0,0,0-1.244-2.627V23.5h2.627a3.215,3.215,0,0,0,1.121-.185v4.552A3.342,3.342,0,0,0,56.972,30.5v4.758a3.4,3.4,0,0,0,3.382,3.382H75.871a3.522,3.522,0,0,0,1.824-.541,3.334,3.334,0,0,0,1.75.541h8.126a3.429,3.429,0,0,0,2.41-1.072,3.5,3.5,0,0,0,2.428,1.072h8.133a3.338,3.338,0,0,0,1.869-.587,3.169,3.169,0,0,0,1.824.587h8.37a3.692,3.692,0,0,0,.583-.07,3.345,3.345,0,0,0,.6.07h10.05a3.384,3.384,0,0,0,3.382-3.382V30.5a3.375,3.375,0,0,0-3.382-3.389h-.2l-2.522-2.526,2.379-2.33Z" transform="translate(40.647 26.851)" fill="#170d09"/>
        <path id="パス_7200" data-name="パス 7200" d="M20.633,24.708l-3.357-3.357V15.105l3.357-3.375H29.95l3.35,3.375v4.154H27.515v-2.1l-.681-.685H23.745l-.678.685V19.28l.678.685h6.2l3.35,3.382v6.127l-3.35,3.385H20.633l-3.357-3.385V25.424h5.792V27.4l.678.7h3.088l.681-.7v-2l-.681-.692Z" transform="translate(43.075 29.248)" fill="#fff"/>
        <path id="パス_7201" data-name="パス 7201" d="M35.995,17.752V16.481H34.73V28.107h1.265v4.751H27.656V28.107h1.289V16.481H27.656v1.272H22.88V11.73H40.759v6.023Z" transform="translate(57.05 29.246)" fill="#fff"/>
        <path id="パス_7202" data-name="パス 7202" d="M39.686,28.1v-.852H44.43v5.61H28.912V28.1H30.2V16.475H28.912V11.731H44.43V17.3H39.686v-.828H36.011V19.93h.859v-.852h4.716v6.428H36.87v-.849h-.859V28.1Z" transform="translate(72.089 29.249)" fill="#fff"/>
        <path id="パス_7203" data-name="パス 7203" d="M50.628,16.48H49.584l4.625,11.626h1.265v4.751H47.348V28.106h.7l-.311-.985h-5.6l-.332.985h.7v4.751H34.377V28.106h1.289l4.65-11.626h-.9V11.729H50.628Zm-4.377,6.613-1.338-3.357-1.334,3.357Z" transform="translate(85.715 29.244)" fill="#fff"/>
        <path id="パス_7204" data-name="パス 7204" d="M49.843,28.1v4.758h-8.37V28.1h1.3V16.475h-1.3V11.731h8.37v4.744H48.554v2.976l3.015-2.976h-.531V11.731h10.04v4.744h-1.75l-5.736,5.712,5.89,5.914h1.6v4.758H51.038V28.1h.555l-2.044-2.054-1,1.02V28.1Z" transform="translate(103.408 29.249)" fill="#fff"/>
        <path id="パス_7205" data-name="パス 7205" d="M104.211,206.156A101.92,101.92,0,1,1,206.134,104.239,101.988,101.988,0,0,1,104.211,206.156m0-201.674a99.756,99.756,0,1,0,99.782,99.757A99.847,99.847,0,0,0,104.211,4.482" transform="translate(5.765 5.774)" fill="#fff"/>
      </g>
    </g>
  </g>
</svg>
