<svg xmlns="http://www.w3.org/2000/svg" xmlns:xlink="http://www.w3.org/1999/xlink" width="240" height="240" viewBox="0 0 240 240">
  <defs>
    <clipPath id="clip-path">
      <rect id="長方形_484" data-name="長方形 484" width="220" height="220" fill="none"/>
    </clipPath>
  </defs>
  <g id="グループ_1327" data-name="グループ 1327" transform="translate(-172 -5575.063)">
    <g id="グループ_538" data-name="グループ 538" transform="translate(-65 4913.063)">
      <circle id="楕円形_22" data-name="楕円形 22" cx="120" cy="120" r="120" transform="translate(237 662)" fill="#fff"/>
      <g id="グループ_348" data-name="グループ 348" transform="translate(247 672)">
        <g id="グループ_347" data-name="グループ 347" transform="translate(0 0)" clip-path="url(#clip-path)">
          <path id="パス_1441" data-name="パス 1441" d="M215.778,108.288A107.49,107.49,0,1,1,108.288.8a107.49,107.49,0,0,1,107.49,107.49" transform="translate(1.71 1.712)" fill="#fff"/>
          <path id="楕円形_21" data-name="楕円形 21" d="M107.49-.8a109.083,109.083,0,0,1,21.823,2.2A107.7,107.7,0,0,1,168.036,17.7a108.6,108.6,0,0,1,39.233,47.643,107.751,107.751,0,0,1,6.31,20.328,109.337,109.337,0,0,1,0,43.646,107.7,107.7,0,0,1-16.294,38.723,108.6,108.6,0,0,1-47.643,39.233,107.751,107.751,0,0,1-20.328,6.31,109.337,109.337,0,0,1-43.646,0,107.7,107.7,0,0,1-38.723-16.294A108.6,108.6,0,0,1,7.712,149.641,107.751,107.751,0,0,1,1.4,129.313a109.337,109.337,0,0,1,0-43.646A107.7,107.7,0,0,1,17.7,46.944,108.6,108.6,0,0,1,65.339,7.712,107.751,107.751,0,0,1,85.667,1.4,109.084,109.084,0,0,1,107.49-.8Zm0,214.98a107.482,107.482,0,0,0,21.5-2.168,106.1,106.1,0,0,0,38.149-16.053A107.005,107.005,0,0,0,205.8,149.019a106.146,106.146,0,0,0,6.216-20.026,107.739,107.739,0,0,0,0-43.006,106.1,106.1,0,0,0-16.053-38.149A107,107,0,0,0,149.019,9.183a106.146,106.146,0,0,0-20.026-6.216,107.739,107.739,0,0,0-43.006,0A106.1,106.1,0,0,0,47.838,19.019,107,107,0,0,0,9.183,65.961,106.146,106.146,0,0,0,2.966,85.987a107.739,107.739,0,0,0,0,43.006,106.1,106.1,0,0,0,16.053,38.149A107.006,107.006,0,0,0,65.961,205.8a106.146,106.146,0,0,0,20.026,6.216A107.482,107.482,0,0,0,107.49,214.182Z" transform="translate(2.509 2.511)" fill="#813a3a"/>
          <path id="パス_1442" data-name="パス 1442" d="M24.524,52.681a1.655,1.655,0,0,1-1.855,1.87c-1.974,0-1.974-1.251-1.974-2.4h1.172c0,.946.05,1.386.714,1.386s.7-.418.7-.858V48.463h1.242Z" transform="translate(44.357 103.874)" fill="#813a3a"/>
          <path id="パス_1443" data-name="パス 1443" d="M26.041,52.584c0,.528.1.629.255.688v.179H25.032a2.291,2.291,0,0,1-.1-.528,1.738,1.738,0,0,1-1.415.638,1.234,1.234,0,0,1-1.342-1.286,1.33,1.33,0,0,1,1.276-1.389l1.04-.173c.182-.028.405-.1.405-.355,0-.5-.456-.512-.786-.512a.645.645,0,0,0-.71.629H22.313c.138-1.371,1.072-1.565,1.974-1.565.613,0,1.754.195,1.754,1.286ZM24.9,51.292a1.607,1.607,0,0,1-.786.255c-.421.072-.78.179-.78.663a.521.521,0,0,0,.547.528.964.964,0,0,0,1.018-.877Z" transform="translate(47.535 104.83)" fill="#813a3a"/>
          <path id="パス_1444" data-name="パス 1444" d="M24.817,49.674h.031a1.441,1.441,0,0,1,1.308-.764c.968,0,1.82.758,1.82,2.288,0,1.194-.544,2.364-1.82,2.364a1.321,1.321,0,0,1-1.257-.657h-.016v2.266H23.726V49.026h1.091ZM25.851,52.6c.729,0,.952-.8.952-1.323,0-.692-.258-1.348-.987-1.348-.8,0-1,.7-1,1.414,0,.644.3,1.257,1.034,1.257" transform="translate(50.853 104.833)" fill="#813a3a"/>
          <path id="パス_1445" data-name="パス 1445" d="M29.12,52.584c0,.528.116.629.255.688v.179H28.111a4.092,4.092,0,0,1-.1-.528,1.754,1.754,0,0,1-1.43.638,1.234,1.234,0,0,1-1.342-1.286,1.331,1.331,0,0,1,1.292-1.389l1.04-.173c.2-.028.405-.1.405-.355,0-.5-.456-.512-.745-.512a.638.638,0,0,0-.736.629H25.392c.138-1.371,1.072-1.565,1.974-1.565.613,0,1.754.195,1.754,1.286Zm-1.141-1.292a1.538,1.538,0,0,1-.786.255c-.437.072-.776.179-.776.663a.494.494,0,0,0,.509.528.966.966,0,0,0,1.053-.877Z" transform="translate(54.1 104.83)" fill="#813a3a"/>
          <path id="パス_1446" data-name="パス 1446" d="M30.779,53.451H29.623V50.779c0-.321-.019-.883-.748-.883a.926.926,0,0,0-.94,1.022v2.534H26.8V49.028h1.1v.654h.016a1.468,1.468,0,0,1,1.33-.773,1.407,1.407,0,0,1,1.531,1.481Z" transform="translate(57.442 104.83)" fill="#813a3a"/>
          <path id="パス_1447" data-name="パス 1447" d="M32.43,52.159a1.913,1.913,0,0,1-1.943,1.4c-1.223,0-2.194-.6-2.194-2.417A2.066,2.066,0,0,1,30.4,48.909c.871,0,2.078.415,2.078,2.442v.211H29.453c.031.324.1,1.075,1.034,1.075a.74.74,0,0,0,.751-.478Zm-1.141-1.37a.891.891,0,0,0-.886-.93c-.544,0-.849.361-.918.93Z" transform="translate(60.642 104.83)" fill="#813a3a"/>
          <path id="パス_1448" data-name="パス 1448" d="M32.565,50.362c-.066-.273-.157-.563-.786-.563s-.729.229-.729.431c0,.682,2.772.192,2.772,1.823,0,1.286-1.242,1.509-1.921,1.509-1.022,0-2.09-.352-2.125-1.509h1.191c0,.358.233.629.968.629.594,0,.714-.289.714-.45,0-.742-2.706-.179-2.706-1.842,0-.651.39-1.481,1.785-1.481.852,0,1.855.211,1.943,1.452Z" transform="translate(63.823 104.833)" fill="#813a3a"/>
          <path id="パス_1449" data-name="パス 1449" d="M35.352,52.159a1.9,1.9,0,0,1-1.943,1.4c-1.223,0-2.194-.6-2.194-2.417a2.06,2.06,0,0,1,2.128-2.235c.868,0,2.043.415,2.043,2.442v.211h-3c.035.324.085,1.075,1.018,1.075a.74.74,0,0,0,.751-.478Zm-1.141-1.37a.891.891,0,0,0-.886-.93c-.578,0-.849.361-.9.93Z" transform="translate(66.905 104.83)" fill="#813a3a"/>
          <path id="パス_1450" data-name="パス 1450" d="M33.548,48.464h3.027a1.659,1.659,0,0,1,1.855,1.679,1.4,1.4,0,0,1-.937,1.4c.5.223.767.415.767,1.525,0,.874,0,1.084.258,1.191V54.4H37.153a3.445,3.445,0,0,1-.132-1.194c0-.836-.057-1.141-.959-1.141H34.771V54.4H33.548Zm2.688,2.609c.629,0,.952-.229.952-.824,0-.3-.151-.786-.886-.786H34.771v1.609Z" transform="translate(71.905 103.877)" fill="#813a3a"/>
          <path id="パス_1451" data-name="パス 1451" d="M39.43,52.159a1.913,1.913,0,0,1-1.943,1.4c-1.242,0-2.175-.6-2.175-2.417a2.039,2.039,0,0,1,2.09-2.235c.886,0,2.062.415,2.062,2.442v.211H36.453c.05.324.1,1.075,1.034,1.075a.753.753,0,0,0,.751-.478Zm-1.141-1.37a.9.9,0,0,0-.9-.93c-.544,0-.833.361-.883.93Z" transform="translate(75.686 104.83)" fill="#813a3a"/>
          <path id="パス_1452" data-name="パス 1452" d="M39.55,50.362c-.05-.273-.157-.563-.786-.563-.61,0-.71.229-.71.431,0,.682,2.769.192,2.769,1.823,0,1.286-1.257,1.509-1.917,1.509-1.009,0-2.093-.352-2.109-1.509h1.172c0,.358.217.629.952.629.594,0,.729-.289.729-.45,0-.742-2.722-.179-2.722-1.842,0-.651.412-1.481,1.785-1.481.836,0,1.87.211,1.993,1.452Z" transform="translate(78.867 104.833)" fill="#813a3a"/>
          <path id="パス_1453" data-name="パス 1453" d="M39.94,49.756h.726v.836H39.94v2.4c0,.255.031.343.493.343a1.069,1.069,0,0,0,.233-.022v.9c-.185,0-.371.016-.541.016h-.154c-1.018,0-1.188-.39-1.188-.946V50.592H38.2v-.836h.582V48.571H39.94Z" transform="translate(81.88 104.106)" fill="#813a3a"/>
          <path id="パス_1454" data-name="パス 1454" d="M42.985,52.584c0,.528.116.629.255.688v.179H42a1.517,1.517,0,0,1-.107-.528,1.774,1.774,0,0,1-1.43.638,1.234,1.234,0,0,1-1.342-1.286,1.333,1.333,0,0,1,1.292-1.389l1.04-.173c.167-.028.39-.1.39-.355,0-.5-.44-.512-.745-.512a.607.607,0,0,0-.7.629H39.257c.123-1.371,1.072-1.565,1.974-1.565.613,0,1.754.195,1.754,1.286Zm-1.141-1.292a1.607,1.607,0,0,1-.786.255c-.405.072-.776.179-.776.663a.51.51,0,0,0,.544.528.954.954,0,0,0,1.018-.877Z" transform="translate(83.852 104.83)" fill="#813a3a"/>
          <path id="パス_1455" data-name="パス 1455" d="M44.661,53.37H43.536v-.629H43.52a1.44,1.44,0,0,1-1.342.739,1.42,1.42,0,0,1-1.5-1.606V48.947h1.154v2.747c0,.692.412.808.751.808a.873.873,0,0,0,.9-1V48.947h1.176Z" transform="translate(87.196 104.912)" fill="#813a3a"/>
          <path id="パス_1456" data-name="パス 1456" d="M42.283,49.027h1.106V49.8h.019c.239-.44.487-.89,1.223-.89.066,0,.116.016.207.016v1.191a1.244,1.244,0,0,0-.33-.028.949.949,0,0,0-1.069,1.053v2.31H42.283Z" transform="translate(90.627 104.835)" fill="#813a3a"/>
          <path id="パス_1457" data-name="パス 1457" d="M47.088,52.584c0,.528.116.629.255.688v.179H46.1a1.449,1.449,0,0,1-.123-.528,1.749,1.749,0,0,1-1.43.638,1.242,1.242,0,0,1-1.342-1.286A1.343,1.343,0,0,1,44.5,50.886l1.056-.173c.167-.028.39-.1.39-.355,0-.5-.456-.512-.751-.512a.62.62,0,0,0-.714.629H43.376c.138-1.371,1.056-1.565,1.958-1.565.613,0,1.754.195,1.754,1.286Zm-1.141-1.292a1.607,1.607,0,0,1-.786.255c-.421.072-.776.179-.776.663a.518.518,0,0,0,.544.528.964.964,0,0,0,1.018-.877Z" transform="translate(92.612 104.83)" fill="#813a3a"/>
          <path id="パス_1458" data-name="パス 1458" d="M48.752,53.451H47.577V50.779c0-.321-.016-.883-.745-.883a.9.9,0,0,0-.9,1.022v2.534H44.773V49.028h1.084v.654h.019a1.443,1.443,0,0,1,1.33-.773,1.427,1.427,0,0,1,1.547,1.481Z" transform="translate(95.964 104.83)" fill="#813a3a"/>
          <path id="パス_1459" data-name="パス 1459" d="M47.969,49.756h.714v.836h-.714v2.4c0,.255,0,.343.5.343a.862.862,0,0,0,.217-.022v.9c-.17,0-.358.016-.525.016H48c-1,0-1.176-.39-1.176-.946V50.592h-.594v-.836h.594V48.571h1.141Z" transform="translate(99.096 104.106)" fill="#813a3a"/>
          <path id="パス_1460" data-name="パス 1460" d="M46.671,19.087c.918.333-.05,1.685-.324,1.685.05,1.371-1.257,2.288-1.257,3.6h.085v.085c.578-.135.918-.569,1.512-.6,2.178-.145.8,3.275,2.606,3.558,1.562.226,1.9-1.855,2.688-1.855.374.236.289.651.085,1-.786,1.242-2.911,2.549-4.052.88-.44-.663-.525-3.011-1.392-3.018-2.247-.066-2.332,3.48-3.728,3.775-.085.031-.239.1-.239-.041h-.085c.107-1.556,1.958-4.941,2.722-6.356.273-.365.512-.723.786-1.094.255-.563.189-1.1.594-1.609" transform="translate(91.24 40.911)" fill="#813a3a"/>
          <path id="パス_1461" data-name="パス 1461" d="M36.843,19.115c.767.229.493,1.1,1.157,1.393a13.052,13.052,0,0,1,2.024.723c1.7,1.091,1.242,3.546-.189,4.618-.8.607-1.886.446-2.672.981-.255.289-.471.563-.729.836-.189.217-.578.629-.9.393-.5-.39.679-1.128.167-1.657-.374-.424-1.358-.773-1.358-1.408.78-.239,1.106.541,1.836.456.528-.085.786-2.42.729-2.961-.066-.311-.151-.578-.217-.852-1.157-.2-3.3,1.393-3.728,2.455-.217.764-.459,1.515-.679,2.254-.6.484-.751-.817-.786-1.1-.066-.811.138-5.036.817-5.036.173,0,.258.088.308.261.082.446-.223.77-.273,1.185-.016.764-.016,1.547-.035,2.323.116,0,.173.047.173-.079a9.611,9.611,0,0,1,1.855-2.194c.66-.361,1.339-.717,1.993-1.1.371-.349.233-1.072.506-1.5m1.106,2.26v.085c-.767.622-.339,1.751-.339,2.688v1.345c.05.179.3.245.49.211,2.637-.365,3.011-3.929-.151-4.328" transform="translate(67.488 40.971)" fill="#813a3a"/>
          <path id="パス_1462" data-name="パス 1462" d="M40.76,19.162c.921.289.2,1.091.714,1.653.44.506,1.056.534,1.613.814a3.047,3.047,0,0,1,1.653,2.992C44.658,26.068,43.5,28.029,41.848,28c-.258-.019-.748-.352-.6-.352.308-.428.9-.585,1.33-.846a2.951,2.951,0,0,0,1.037-3.684,3.218,3.218,0,0,0-1.465-1.345,1.211,1.211,0,0,0-1.053.176,14.571,14.571,0,0,0-1.669,3.618c-.016.547.563.836.563,1.342-.629.173-.9-.358-1.481-.28-.695.094-1.122.742-1.971.714-1.534-.072-1.534-2.367-1.106-3.445.39-.67.78-1.308,1.176-1.965.255-.578-.547-1.452,0-1.955.148-.047.289-.088.456-.138.088.512.173,1.012.255,1.509.289.339,2.59-.427,2.86-.736.167-.465.374-.949.578-1.452M36.809,23.2c-.456.61-2.053,3.282-.255,3.4,2.093.157,1.141-2.71.255-3.4m2.606-1.515c-1.292.641-1.993.692-1.223,2.32.148.286.3.528.456.8a4.888,4.888,0,0,0,1.345-3.121Z" transform="translate(75.427 41.072)" fill="#813a3a"/>
          <path id="パス_1463" data-name="パス 1463" d="M42.208,19.163c.767.273.324,1.342,1.257,1.342.273-.006.563-.038.852-.066.258-.044.5-.063.751-.085.217-.028.456-.072.679-.079.405-.094.836.025.836.5-.852.233-4,.151-4.187,1.04.05.258.1.541.151.8h.679c.412-.126,1.842,0,1.842-.657.182.079.644.657.679.657,1.242.67,2.911,2.175,1.987,3.851-.283.575-2.838,2.628-2.838,1.191a8.917,8.917,0,0,0,1.6-.839,1.818,1.818,0,0,0-.679-3.313c-.487-.116-2.515,2.461-2.82,3.008-.107.355-.207.726-.324,1.1-.123.138-.412.044-.528-.05-.817-.45-1.87.418-2.706-.245a1.3,1.3,0,0,1-.393-1.251c.412-1.98,1.411-1.807,2.452-3.049.273-.352.632-1.336.069-1.609-.481-.072-.987-.138-1.465-.2-.239-.069-.644-.151-.644-.5a7.911,7.911,0,0,1,2.332-.255c.148-.418.289-.858.421-1.276m1.43,3.964c-1.6.594-1.091.93-1.091,2.508.035.035.05.063.085.1.016-.038.053-.066.072-.1a3.575,3.575,0,0,0,1.785-2.358c-.3-.05-.563-.091-.852-.151m-2.348.918v.079c-1.04.484-3.062,2.867-.594,2.867,1-.641,1.091-1.047,1.034-2.367,0-.145.038-.5-.1-.5a3.054,3.054,0,0,0-.339-.079" transform="translate(83.627 41.074)" fill="#813a3a"/>
          <path id="パス_1464" data-name="パス 1464" d="M56.2,26.1v.173a1.5,1.5,0,0,0,.173-.173Z" transform="translate(120.463 55.934)" fill="#813a3a"/>
          <path id="パス_1465" data-name="パス 1465" d="M43.391,30.639a1.1,1.1,0,0,0-.085.151c.05-.035.085-.107.151-.151Z" transform="translate(92.82 65.671)" fill="#813a3a"/>
          <path id="パス_1466" data-name="パス 1466" d="M65.174,21c1.741,0,5.869,1.182,5.737,3.335-.05.918-2.027,1.635-1.481,2.578.83,1.474,5.086,1.141,6.919,1.141.5-.028,1.012-.069,1.518-.1,1.1-.358,2.794,0,3.945,0,2.584.031,8.082-.013,9.829,1.257a2.239,2.239,0,0,1,.89,1.675,2.72,2.72,0,0,1-.343,1.848c-.952,1.317-2.926,1.034-4.5,1.018-3.354-.135-6.717-.292-10.078-.44-2.207-.129-5.048-.324-6.953.4a2.559,2.559,0,0,0-1.512,1.631c-.066.339-.138.688-.207,1.012.17,2.609,9.716,3.018,11.841,4.152A4.954,4.954,0,0,1,82.9,42.832c.226.556-.541,1.54-.663,2.093a11.14,11.14,0,0,0-.154,3.338c.289,2.065-.151,4.35-1.87,5.3-.135.072-.27.123-.4.179-2.163,1.012-5.7.861-7.934.1-1-.339-1.968-1.056-3.093-1.056-1.273,0-2.43.846-3.524,1.27a7.117,7.117,0,0,1-1.921.4q-3.829.009-7.654.044-9.619.151-19.225.324c-1.65.088-3.285.179-4.954.289-2.669.3-5.95,1.223-8.449.006-3.184-1.559-2.738-5.344-2.637-8.77.016-1.408.016-3.241.751-4.319a3.788,3.788,0,0,1,2.958-1.481c.185-.028.39-.05.582-.085a2.605,2.605,0,0,0,.506-.094c.154-.016.339-.035.494-.066.189-.044.339-.063.512-.094.217-.028.405-.05.6-.063.148-.031.321-.066.487-.094s.324-.05.5-.094c.182-.022.336-.05.528-.082.167-.025.324-.063.506-.085,1.364-.644,2.49-.534,3.115-2.254C33,34.59,29.144,34.165,27.24,33.688c-.9-.229-1.785-.456-2.7-.685-.481.185-.968.361-1.43.553-.745.226-1.515.465-2.26.695-2.216.544-11.5,1.763-11.131-2.1a2.509,2.509,0,0,1,1.229-1.685,8.018,8.018,0,0,1,4.115-1.336c.189-.022.393-.05.578-.079.289-.031.563-.053.833-.088,1.8-.591,5.121.45,6.617,1.062.582.261,1.141.528,1.7.792v-.1c.817-.4,1.647-.8,2.468-1.207,1.446-.613,3.228-1.091,4.354-2.348,1.135-1.273.066-2.21-.207-3.473-.339-1.663,1.418-2.543,2.791-2.543,1.584-.572,3.247.575,4.118,1.682,1.11,1.437-.578,3.257.544,4.58a2.59,2.59,0,0,0,1.647.83,28.149,28.149,0,0,0,5.275.145c3.37-.016,6.72-.063,10.074-.088.424-.025.849-.057,1.276-.085.4-.022.817-.063,1.242-.079.286-.031.578-.057.852-.082.185-.028.39-.069.578-.1a2.722,2.722,0,0,0,.512-.079c.167-.035.339-.044.5-.066.531-.286,1.179-.3,1.518-.836a5.779,5.779,0,0,0,.443-2.537,4.171,4.171,0,0,1,1.342-2.8,1.713,1.713,0,0,1,1.053-.563ZM53.829,32.908c-1.242.035-2.5.079-3.763.094-2.945.05-11.043.264-12.111,2.955-1.27,3.25,5.224,3.539,7.079,3.885a17.182,17.182,0,0,0,3.517.8,13.456,13.456,0,0,1,3.011-1.179c.258-.028.531-.044.751-.072.273-.022.528-.066.786-.088.286-.028.591-.072.915-.079.255-.035.494-.066.748-.113a4,4,0,0,0,.77-.075,6.81,6.81,0,0,0,.679-.069c.22-.044.49-.06.742-.094.242-.016.5-.05.754-.082a3,3,0,0,0,.5-.085c.16-.028.333-.044.5-.088,1.3-.578,3.4-.745,3.555-2.6a1.761,1.761,0,0,0-.456-1.424c-1.553-1.763-5.413-1.682-7.981-1.682M67.452,43.083c-1.6.673-5.969,3.917-3.228,5.881.883.657,2.106.673,3.2.962.934.258,1.653.868,2.7.868.189,0,.343-.066.512-.082,1.87-.93,4.954-.453,5.972-2.587a3.484,3.484,0,0,0,.2-2.772c-1.157-1.776-7.029-2.27-9.361-2.27m-19.492-.676c-2.314,1.235-3.451,5.061-.886,6.739,1.191.764,2.653.72,4.256.72.374-.019.726-.05,1.1-.085.189-.022.428-.031.666-.066a5.223,5.223,0,0,1,.663-.085c.167-.028.321-.06.506-.094,1.5-.66,5.02-1.018,4.423-3.671-.44-2.043-5.1-2.238-6.856-2.656a18.96,18.96,0,0,0-3.876-.8M33.79,44.161c-2.125.424-7.673.563-6.755,4.008.7,2.622,7.107,2.464,9.682,2.464.167-.035.339-.05.49-.094a6.08,6.08,0,0,0,2.483-1.226c1.892-2-.462-4.423-2.414-4.941a13.462,13.462,0,0,0-3.486-.211" transform="translate(20.8 45.004)" fill="#813a3a"/>
          <path id="パス_1467" data-name="パス 1467" d="M42.332,32.319c6.683,0,13.2.333,19.734.333,2.754.041,5.491.066,8.229.091,6.262,0,13.887-.28,18.36,3.153,1.446,1.125,2.144,2.879,2.854,4.435.82,1.792,1.719,3.863,1.349,6.1-.431,2.291-2.556,3.257-4.731,2.31a4.686,4.686,0,0,1-2.4-3.307c-.339-1.421-.7-4.253-1.738-5.215-3.605-3.379-10.049-2.364-15.208-2.622-2.854-.129-6.038-.78-8.877-.245-1.653.308-3.844,2.128-5.243,3.112-.39.283-1.735,1.012-1.735,1.609,3.712.239,7.267.494,11.09.494.77-.031,1.572-.044,2.317-.066.751-.044,1.462-.072,2.213-.088.374-.035.78-.069,1.154-.1.2-.016.412-.053.594-.072.273-.025.563-.072.852-.1a3.783,3.783,0,0,1,2.656.811c1.172.824,2.364,2.128,2.263,3.728-.1,1.358-3.08,5.727-4.218,6.768-.629.4-1.238.824-1.858,1.242-.506.6-1,1.191-1.5,1.77-.613.6-1.226,1.2-1.82,1.792a43.18,43.18,0,0,1-11.241,7.563,46.752,46.752,0,0,1-10.992,3.48,171.913,171.913,0,0,1-17.4,2.948c-1.669.2-5,.651-6.5-.006a3.031,3.031,0,0,1-1.176-1.547c-.934-2.6,1.449-4.017,3.829-4.017.308-.022.613-.05.921-.085.478-.044.934-.05,1.446-.082.663-.035,1.323-.05,2.009-.079.541-.035,1.119-.063,1.682-.079.355-.031.717-.066,1.072-.11a3.246,3.246,0,0,0,.6-.066,4.306,4.306,0,0,1,.594-.079c.223-.035.44-.057.663-.085.223-.044.462-.06.663-.094s.339-.05.528-.088a3.334,3.334,0,0,0,.578-.091c.189-.022.374-.031.578-.053.207-.044.405-.079.594-.107a3.936,3.936,0,0,0,.5-.079c.2-.031.39-.05.591-.072.154-.031.346-.072.494-.094.223-.031.409-.05.6-.079a3.616,3.616,0,0,1,.512-.082c.167-.044.321-.063.512-.094.167-.035.3-.05.487-.085.157-.016.358-.06.512-.079.308-.06.613-.11.9-.16.2-.035.355-.066.512-.082,2.093-.88,4.724-.751,6.768-1.754.088-.044.629-.355.462-.355-.207-.192-.4-.365-.6-.56-1.943-1.028-3.961-3.866-3.763-6.227.085-.487.192-1.006.289-1.512.223-.55.5-.651.512-1.342a3.842,3.842,0,0,1,.44-1.367,17.7,17.7,0,0,1,2.845-2.128c.44-.016.918-.028,1.358-.028a9.108,9.108,0,0,1,1.172-.261,2.234,2.234,0,0,0,.852.663,2.956,2.956,0,0,1,1.515,2.175,4.629,4.629,0,0,1,3.134,4.281c-.069.365-.141.723-.192,1.094.123.4.223.786.308,1.185-.035.547-.406.9-.406,1.506h.255v-.085c1.886-.594,2.939-2.543,4.558-3.64,1.342-.7,2.653-1.4,3.979-2.093,0-.031.031-.05.05-.088.2-.49.427-.974.666-1.5.236-.28.49-.578.729-.858.151-.418.258-.839.406-1.267.563-.764,1.091-1.531,1.622-2.31V48.13c-.629-.525-1.333-1.537-2.109-1.71-1.465-.349-3.373-.016-4.872.013H53.846c-1.242,0-3.467-.251-4.523.116-1.053.528-2.093,1.056-3.146,1.609-1.974.833-3.91,1.751-5.938,2.593-.8.462-1.635.927-2.449,1.38-1.43.578-2.977.968-4.438,1.408-1.565.462-3.574,1.279-5.359.9a5.065,5.065,0,0,1-1.719-.987,3.241,3.241,0,0,1-1.1-1.1c-.7-1.616.324-2.128,1.443-2.578,7.267-2.983,15.481-3.7,21.161-9.729.648-.673,1.531-1.446,1.531-2.414-2.515-1.371-6.1-.528-9-.528-1.141-.129-2.295-.261-3.42-.383l-3.027.3c-1.619.05-3.115-.3-4.611-.2-.629.151-1.242.308-1.87.453a22.731,22.731,0,0,0-6.774,2.948c-1.531,1.157-1.971,2.656-2.672,4.253a19.572,19.572,0,0,1-1.987,3.543c-.255.336-.544.965-.971,1.138a5.462,5.462,0,0,1-2.345.11A2.839,2.839,0,0,1,10.3,47.841c-1.578-2.823,1.987-4.743,3.1-6.9.594-1.185.494-2.559.817-3.91.578-2.238,3.671-4.042,5.954-4.042.207-.031.409-.031.6-.079.594-.025,1.172-.066,1.751-.075a34.767,34.767,0,0,1,6.211.427c.864.211,1.682.434,2.534.644,1.308-.009,2.637-.05,3.929-.066.189-.044.355-.044.512-.094a8.91,8.91,0,0,1,3.794-1.006,4.234,4.234,0,0,0,.475-.091,4.68,4.68,0,0,0,.61-.079c.192-.031.374-.044.6-.075.371-.063.767-.113,1.157-.179" transform="translate(21.223 69.272)" fill="#813a3a"/>
          <path id="パス_1468" data-name="パス 1468" d="M42.4,34.3a.445.445,0,0,0-.085.179,1.3,1.3,0,0,1,.151-.179Z" transform="translate(90.696 73.512)" fill="#813a3a"/>
          <path id="パス_1469" data-name="パス 1469" d="M83.214,24.091c2.159,0,5.07.2,4.746,2.926-.1.824-.751,1.987.05,2.615,1.481,1.157,7.535.685,9.9.685,1.034-.044,2.075-.063,3.093-.094.685-.028,1.348-.063,2.043-.079.644-.016,1.273-.063,1.927-.085.61-.031,1.238-.05,1.851-.082.968-.028,1.955-.057,2.945-.091,2.6,0,7.4-.277,7.956,2.59a1.683,1.683,0,0,1-.868,1.757c-2.093,1.32-5.51,1.031-8.264,1.031Q98,35.049,87.433,34.857c0,.1-.066.145.066.145v.1c1.333.915.512,2.738,1.4,3.907C90.51,41.09,97.8,40.8,100.855,40.8c.525-.006,1.069-.038,1.6-.066.528-.05,1.072-.066,1.578-.085.462-.044.9-.075,1.364-.094a11.213,11.213,0,0,1,3.624-.016c2.059.094,9.32.289,9.031,3.043a2.054,2.054,0,0,1-.761,1.449c-2.49,1.98-10.449.528-13.746.321-2.741-.044-5.479-.116-8.22-.189-.937,0-3.335-.211-3.913.324a.461.461,0,0,0-.151.434c.2,1.3,2.889,2.059,3.964,2.455q.99.391,1.993.78a9.99,9.99,0,0,0,1.968,1.267c.937.113,1.892.229,2.829.352.984.324,1.968.663,2.961.974,1.779.339,3.605.682,5.391,1.028,2.144.418,6.529.937,8.063,2.282,1.443,1.257.119,3.48-1.022,4.4a3.234,3.234,0,0,1-2.009.707,23.539,23.539,0,0,1-6.328-1.531,58.6,58.6,0,0,1-8.267-3.156c-1.04-.563-1.8-1.669-2.892-2.153-1.276-.553-2.86-.585-4.168-1.053-2.483-.9-4.746-2.314-7.4-2.81-.239-.035-.456-.05-.695-.079-.189-.022-.374-.031-.563-.05-.239.019-.44.028-.679.05-2.845.361-5.259,2.31-7.673,3.558-1.069.56-2.244.912-3.285,1.462-.512.478-1,.937-1.512,1.4a10.957,10.957,0,0,1-3.675,1.933A52.766,52.766,0,0,1,59.7,59.344a13.5,13.5,0,0,0-3.722.751c-.157.079-.289.163-.431.245a3.011,3.011,0,0,0-1.084,1.82c-.138,1.855-.273,3.734-.4,5.6A43.341,43.341,0,0,1,51.438,79.09C49.329,84.5,45.343,89.558,40.92,93.738c-1.358,1.273-4.014,3.822-6.023,3.332-1.952-.462-2.449-3.929-1.713-5.532.556-1.245,1.647-2.059,2.483-3.159,1.719-2.332,3.759-4.526,5.68-6.711a22.587,22.587,0,0,0,3.706-4.938,29.207,29.207,0,0,0,3.027-9.977c.531-4.558.242-9.424,1.059-13.846a23.943,23.943,0,0,1,.952-3.59c.289-.817,1.257-1.855,1.157-2.8-.1-.82-1.075-1.4-1.38-2.159-.729-1.748-.814-3.778-1.292-5.617-.39-1.506-1.77-2.618-1.481-4.379.239-1.713,2.706-2.867,4.325-2.867.283-.031.594-.06.9-.088.509.013,1,.013,1.515.013a23.355,23.355,0,0,1,4.523.754,11.262,11.262,0,0,0,2.945.657,13.839,13.839,0,0,1,5.715-1.842c2.788.019,5.6.057,8.405.079.371-.022.71-.06,1.084-.079.255-.022.512-.066.751-.088a4.751,4.751,0,0,0,.578-.079c.9-.428,2.024-.349,2.7-1.147a1.477,1.477,0,0,0,.223-1.286c-.173-.544-.339-1.122-.512-1.707-.223-1.9,1.581-2.219,2.961-2.587m-23,10.511c-1.531.641-3.266,1.207-4.269,2.688-.918,1.3-.767,3.6-.952,5.281-.138,1.242-1.091,2.071-1.279,3.285-.2,1.257.563,2.32.817,3.455.786,3.341-.2,4.866,4.187,4.866a4.106,4.106,0,0,1,.578-.1c.223-.019.456-.063.663-.079.17-.035.339-.05.509-.079.308-.066.613-.11.921-.167.167-.038.339-.06.509-.094.286-.05.613-.107.921-.173s.61-.11.934-.16c.421-.1.836-.167,1.242-.258,2.043-.484,4.1-1,6.139-1.481,1.091-.405,1.462-1.484,2.348-2.2,1.553-1.223,3.81-1.82,4.97-3.59.066-.038.082-.082.148-.116V45.51h-.082v-.072c-2.367.06-4.643.868-7.057.717a10.356,10.356,0,0,1-2.672-.638,5.8,5.8,0,0,0-1.958-.6,1.344,1.344,0,0,1-.339.085c-.934.506-1.855,1.012-2.738,1.49-2.247.987-6.277,1.754-8.1-.443a2.527,2.527,0,0,1-.563-2.439c.44-1.172,2.3-1.98,3.524-1.98.339-.028.679-.094,1.018-.145.39-.038.783-.057,1.172-.079a1.829,1.829,0,0,1,.39-.031,10.056,10.056,0,0,1,3.184.578,4.565,4.565,0,0,0,1.6.522c.512-.182.99-.361,1.465-.534a11.227,11.227,0,0,1,3.929-.883c.934-.374,4.457-.069,5.73-.069.4-.047.852-.075,1.248-.1.182-.028.39-.047.594-.091a12.63,12.63,0,0,0,1.987-.723c1.515-.956.751-3.307,1.7-4.636.189-.2.406-.383.578-.585v-.1h-.066v-.079c-6.211,0-11.81.824-17.879.824-1.927,0-3.184-.852-5.055-.9" transform="translate(70.433 51.637)" fill="#813a3a"/>
          <path id="パス_1470" data-name="パス 1470" d="M48.274,36.944c.066.151.189.424.405.424V37.2c.05-.066.091-.088,0-.088-.132-.063-.289-.107-.405-.173" transform="translate(103.468 79.185)" fill="#813a3a"/>
          <path id="パス_1471" data-name="パス 1471" d="M66.186,32.824c2.191.289,2.835.886,3.25,3.055.132.5.264.993.406,1.477.339.544,5.391,2.37,6.177,2.37.167-.028.324-.063.49-.079a12.815,12.815,0,0,1,4.052-.924,10.817,10.817,0,0,1,4.1.066c6.62.858,6.978,4.671,6.482,10.929-.2,2.628-.44,5.221-2.009,7.148-2.075,2.48-5.715,3.25-9.1,3.137-1.628-.044-2.977-.622-4.523-.758-1.669-.17-5.344.679-6.054,2.188C66.83,66.86,79.775,65.766,82.99,65.766c.239-.035.512-.057.748-.079.27-.028.56-.066.849-.094.273-.028.563-.05.852-.085.189-.044.358-.05.563-.088.255-.035.512-.05.767-.072.2-.035.39-.063.6-.079.2-.035.44-.066.644-.11a3.774,3.774,0,0,0,.613-.069,4.6,4.6,0,0,1,.578-.075c.239-.035.456-.063.679-.085.223-.044.44-.06.644-.094a4.791,4.791,0,0,0,.512-.094,3.816,3.816,0,0,0,.679-.085,14.8,14.8,0,0,1,4.269-.984c2.672-.9,5.755,2.9,3.407,4.9-2.54,2.175-8.883,2.282-12.624,2.4a99.485,99.485,0,0,1-13.356-.28c-3.42-.371-8.047-1.028-9.7-4.278-.949-1.886-.167-4.891-2.4-5.862-1.745-.776-3.671.207-5.542-.031-1.106-.145-2.009-1.091-3.093-1.091h-.173c-2.672.233-4.847,1.619-7.626.2-2.738-1.358-3.128-4.574-3.31-7.563-.273-4.473.339-9.238,4.35-11.2a7.111,7.111,0,0,1,3.062-.8c.431-.041.836-.063,1.264-.085,1.374-.339,2.449.758,3.741.648,1.122-.113,1.8-1.16,3.043-1.16.563,0,1.125-.044,1.688-.082.239-.028.494-.028.745-.079,1.141-.475,2.232-.484,3.062-1.547a4.02,4.02,0,0,0,.6-1.993c.233-1.914,1.389-2.42,3.062-2.945M54.018,42.329q-1.349.651-2.7,1.3a6.5,6.5,0,0,0-2.024.773,1.364,1.364,0,0,0-.424,1.047c0,2,4.442,1.757,6.073,1.757.629-.035,1.238-.06,1.867-.094.38-.035.751-.05,1.16-.066.22-.047.443-.069.66-.094s.4-.069.585-.1.358-.028.525-.063a12.953,12.953,0,0,0,2.637-1c1.531-1.16-.066-2.54-1.242-3.062-1.415-.641-3.165.066-4.762,0-.77-.113-1.55-.258-2.351-.4m20.809-.339c-.852.289-1.719.585-2.6.846-1.515.317-4.1.028-3.69,2.326.371,2.4,8.148,2.109,10.511,2.109.44-.016.9-.025,1.342-.06.27-.035.544-.06.833-.094.223-.035.446-.05.679-.066,1.141-.531,2.9-.336,2.556-2.194a1.9,1.9,0,0,0-.786-1.352c-1.05-.641-3.555-.308-4.878-.5-1.364-.223-2.571-.88-3.964-1.015m1.257,9.245c-1.785.324-6.972-.035-7.45,2.031a1.467,1.467,0,0,0,.371,1.336c.937.742,3.25,1,4.476,1.38a8.81,8.81,0,0,0,2.537.792,6.913,6.913,0,0,1,3.863-1.421c.148-.028.321-.05.506-.082.2-.028.443-.057.66-.091a6.361,6.361,0,0,0,.67-.094c.2-.022.39-.038.594-.057.2-.044.409-.075.578-.1.185-.019.339-.041.525-.072.651-.4,1.091-.673,1.025-1.6-.192-2.32-6.312-2.015-8.355-2.015m-20.891,0c-2.075.405-7.164-.157-7.164,2.867,0,1.452,2.251,1.829,3.285,2.21.578.239,1.176.487,1.77.7.817-.132,1.613-.27,2.433-.393.255-.044.512-.063.767-.107.374-.006.8-.05,1.15-.079.9-.022,1.754-.05,2.622-.072.289-.044.563-.06.852-.094.968-.528,1.855-.861,1.789-2.282-.119-2.8-5.221-2.754-7.5-2.754" transform="translate(88.979 70.355)" fill="#813a3a"/>
        </g>
      </g>
    </g>
  </g>
</svg>
